<svg width="37" height="36" viewBox="0 0 37 36" fill="none" xmlns="http://www.w3.org/2000/svg">
<circle cx="18.6914" cy="18" r="18" fill="#C4C4C4"/>
<path d="M25.1081 9.75H12.2747C11.2622 9.75 10.4414 10.5708 10.4414 11.5833V24.4167C10.4414 25.4292 11.2622 26.25 12.2747 26.25H25.1081C26.1206 26.25 26.9414 25.4292 26.9414 24.4167V11.5833C26.9414 10.5708 26.1206 9.75 25.1081 9.75Z" stroke="white" stroke-width="1.5" stroke-linecap="round" stroke-linejoin="round"/>
<path d="M15.4834 16.166C16.2428 16.166 16.8584 15.5504 16.8584 14.791C16.8584 14.0316 16.2428 13.416 15.4834 13.416C14.724 13.416 14.1084 14.0316 14.1084 14.791C14.1084 15.5504 14.724 16.166 15.4834 16.166Z" stroke="white" stroke-width="1.5" stroke-linecap="round" stroke-linejoin="round"/>
<path d="M26.9411 20.7494L22.3577 16.166L12.2744 26.2494" stroke="white" stroke-width="1.5" stroke-linecap="round" stroke-linejoin="round"/>
</svg>
