 <svg width="23" height="20" viewBox="0 0 23 20" fill="none" xmlns="http://www.w3.org/2000/svg">
<path d="M19.1553 4.01346C18.7209 3.60579 18.205 3.28239 17.6372 3.06175C17.0694 2.8411 16.4609 2.72754 15.8463 2.72754C15.2317 2.72754 14.6231 2.8411 14.0554 3.06175C13.4876 3.28239 12.9717 3.60579 12.5372 4.01346L11.6356 4.85914L10.7339 4.01346C9.85625 3.19037 8.66595 2.72797 7.42481 2.72797C6.18368 2.72797 4.99338 3.19037 4.11577 4.01346C3.23816 4.83655 2.74512 5.9529 2.74512 7.11693C2.74512 8.28095 3.23816 9.3973 4.11577 10.2204L5.01746 11.0661L11.6356 17.273L18.2536 11.0661L19.1553 10.2204C19.59 9.81291 19.9348 9.32909 20.1701 8.79659C20.4054 8.26409 20.5264 7.69333 20.5264 7.11693C20.5264 6.54052 20.4054 5.96977 20.1701 5.43726C19.9348 4.90476 19.59 4.42095 19.1553 4.01346Z" stroke="#767676" stroke-width="1.5" stroke-linecap="round" stroke-linejoin="round"/>
</svg>
