<svg width="22" height="22" viewBox="0 0 22 22" fill="none" xmlns="http://www.w3.org/2000/svg">
<path d="M19.75 1.25H2.25C1.69772 1.25 1.25 1.69772 1.25 2.25V4.58333C1.25 5.13562 1.69772 5.58333 2.25 5.58333H19.75C20.3023 5.58333 20.75 5.13562 20.75 4.58333V2.25C20.75 1.69772 20.3023 1.25 19.75 1.25Z" fill="#DBDBDB" stroke="#DBDBDB" stroke-linecap="round"/>
<path d="M19.75 8.83398H2.25C1.69772 8.83398 1.25 9.2817 1.25 9.83398V12.1673C1.25 12.7196 1.69772 13.1673 2.25 13.1673H19.75C20.3023 13.1673 20.75 12.7196 20.75 12.1673V9.83398C20.75 9.2817 20.3023 8.83398 19.75 8.83398Z" fill="#DBDBDB" stroke="#DBDBDB" stroke-linecap="round"/>
<path d="M19.75 16.416H2.25C1.69772 16.416 1.25 16.8637 1.25 17.416V19.7493C1.25 20.3016 1.69772 20.7493 2.25 20.7493H19.75C20.3023 20.7493 20.75 20.3016 20.75 19.7493V17.416C20.75 16.8637 20.3023 16.416 19.75 16.416Z" fill="#DBDBDB" stroke="#DBDBDB" stroke-linecap="round"/>
</svg>
