<svg width="20" height="20" viewBox="0 0 20 20" fill="none" xmlns="http://www.w3.org/2000/svg">
<path d="M14 6.66602C15.3807 6.66602 16.5 5.54673 16.5 4.16602C16.5 2.7853 15.3807 1.66602 14 1.66602C12.6193 1.66602 11.5 2.7853 11.5 4.16602C11.5 5.54673 12.6193 6.66602 14 6.66602Z" stroke="#767676" stroke-width="1.5" stroke-linecap="round" stroke-linejoin="round"/>
<path d="M4 12.5C5.38071 12.5 6.5 11.3807 6.5 10C6.5 8.61929 5.38071 7.5 4 7.5C2.61929 7.5 1.5 8.61929 1.5 10C1.5 11.3807 2.61929 12.5 4 12.5Z" stroke="#767676" stroke-width="1.5" stroke-linecap="round" stroke-linejoin="round"/>
<path d="M14 18.334C15.3807 18.334 16.5 17.2147 16.5 15.834C16.5 14.4533 15.3807 13.334 14 13.334C12.6193 13.334 11.5 14.4533 11.5 15.834C11.5 17.2147 12.6193 18.334 14 18.334Z" stroke="#767676" stroke-width="1.5" stroke-linecap="round" stroke-linejoin="round"/>
<path d="M6.1582 11.2578L11.8499 14.5745" stroke="#767676" stroke-width="1.5" stroke-linecap="round" stroke-linejoin="round"/>
<path d="M11.8415 5.42578L6.1582 8.74245" stroke="#767676" stroke-width="1.5" stroke-linecap="round" stroke-linejoin="round"/>
</svg>
