<svg width="22" height="22" viewBox="0 0 22 22" fill="none" xmlns="http://www.w3.org/2000/svg">
<path d="M18.7636 10.6562C18.7666 11.8541 18.5004 13.0359 17.9867 14.1052C17.3776 15.3865 16.4412 16.4642 15.2824 17.2176C14.1236 17.9711 12.7882 18.3704 11.4258 18.371C10.2863 18.3741 9.16234 18.0942 8.1453 17.5541L3.22461 19.2786L4.86484 14.1052C4.35113 13.0359 4.08492 11.8541 4.08789 10.6562C4.08842 9.22375 4.46826 7.81975 5.18487 6.60145C5.90149 5.38315 6.92657 4.39868 8.1453 3.75829C9.16234 3.21819 10.2863 2.93831 11.4258 2.94143H11.8574C13.6568 3.0458 15.3563 3.8443 16.6306 5.18403C17.9049 6.52377 18.6644 8.31059 18.7636 10.2024V10.6562Z" stroke="#767676" stroke-width="1.5" stroke-linecap="round" stroke-linejoin="round"/>
</svg>
