<svg width="21" height="22" viewBox="0 0 21 22" fill="none" xmlns="http://www.w3.org/2000/svg">
<path d="M19.5 1.25H2C1.44772 1.25 1 1.69772 1 2.25V4.58333C1 5.13562 1.44772 5.58333 2 5.58333H19.5C20.0523 5.58333 20.5 5.13562 20.5 4.58333V2.25C20.5 1.69772 20.0523 1.25 19.5 1.25Z" fill="#767676" stroke="#767676" stroke-linecap="round"/>
<path d="M19.5 8.83398H2C1.44772 8.83398 1 9.2817 1 9.83398V12.1673C1 12.7196 1.44772 13.1673 2 13.1673H19.5C20.0523 13.1673 20.5 12.7196 20.5 12.1673V9.83398C20.5 9.2817 20.0523 8.83398 19.5 8.83398Z" fill="#767676" stroke="#767676" stroke-linecap="round"/>
<path d="M19.5 16.416H2C1.44772 16.416 1 16.8637 1 17.416V19.7493C1 20.3016 1.44772 20.7493 2 20.7493H19.5C20.0523 20.7493 20.5 20.3016 20.5 19.7493V17.416C20.5 16.8637 20.0523 16.416 19.5 16.416Z" fill="#767676" stroke="#767676" stroke-linecap="round"/>
</svg>
