<svg width="21" height="21" viewBox="0 0 21 21" fill="none" xmlns="http://www.w3.org/2000/svg">
<path d="M7.83333 1.25H2.25C1.69772 1.25 1.25 1.69772 1.25 2.25V7.83333C1.25 8.38562 1.69772 8.83333 2.25 8.83333H7.83333C8.38562 8.83333 8.83333 8.38562 8.83333 7.83333V2.25C8.83333 1.69772 8.38562 1.25 7.83333 1.25Z" fill="#767676" stroke="#767676" stroke-linecap="round"/>
<path d="M19.4163 1.25H13.833C13.2807 1.25 12.833 1.69772 12.833 2.25V7.83333C12.833 8.38562 13.2807 8.83333 13.833 8.83333H19.4163C19.9686 8.83333 20.4163 8.38562 20.4163 7.83333V2.25C20.4163 1.69772 19.9686 1.25 19.4163 1.25Z" fill="#767676" stroke="#767676" stroke-linecap="round"/>
<path d="M19.4163 12.834H13.833C13.2807 12.834 12.833 13.2817 12.833 13.834V19.4173C12.833 19.9696 13.2807 20.4173 13.833 20.4173H19.4163C19.9686 20.4173 20.4163 19.9696 20.4163 19.4173V13.834C20.4163 13.2817 19.9686 12.834 19.4163 12.834Z" fill="#767676" stroke="#767676" stroke-linecap="round"/>
<path d="M7.83333 12.834H2.25C1.69772 12.834 1.25 13.2817 1.25 13.834V19.4173C1.25 19.9696 1.69772 20.4173 2.25 20.4173H7.83333C8.38562 20.4173 8.83333 19.9696 8.83333 19.4173V13.834C8.83333 13.2817 8.38562 12.834 7.83333 12.834Z" fill="#767676" stroke="#767676" stroke-linecap="round"/>
</svg>
