<svg xmlns="http://www.w3.org/2000/svg" width="22" height="22" viewBox="0 0 22 22" fill="none">
  <path fill-rule="evenodd" clip-rule="evenodd" d="M7.00013 1.33887C7.56018 0.835473 8.40587 0.900396 8.88905 1.48388L11 4.03309L13.111 1.48388C13.5941 0.900396 14.4398 0.835473 14.9999 1.33887C15.5599 1.84227 15.6222 2.72337 15.139 3.30686L12.7688 6.16915L20.588 15.6117C20.8538 15.9326 21 16.3424 21 16.7662V18.6744C21 19.9588 20.0006 21 18.7679 21H16.4855C15.8548 21 15.2535 20.722 14.8303 20.2347L11 15.824L7.16969 20.2347C6.74651 20.722 6.14521 21 5.51447 21H3.23214C1.99936 21 1 19.9588 1 18.6744V16.7662C1 16.3424 1.14621 15.9326 1.41197 15.6117L9.23116 6.16915L6.86095 3.30686C6.37778 2.72337 6.44009 1.84227 7.00013 1.33887Z" stroke="#767676" stroke-width="2" stroke-linecap="round"/>
</svg>