<svg xmlns="http://www.w3.org/2000/svg" width="24" height="24" viewBox="0 0 24 24" fill="none">
  <path fill-rule="evenodd" clip-rule="evenodd" d="M8.00013 2.33887C8.56018 1.83547 9.40587 1.9004 9.88905 2.48388L12 5.03309L14.111 2.48388C14.5941 1.9004 15.4398 1.83547 15.9999 2.33887C16.5599 2.84227 16.6222 3.72337 16.139 4.30686L13.7688 7.16915L21.588 16.6117C21.8538 16.9326 22 17.3424 22 17.7662V19.6744C22 20.9588 21.0006 22 19.7679 22H17.4855C16.8548 22 16.2535 21.722 15.8303 21.2347L12 16.824L8.16969 21.2347C7.74651 21.722 7.14521 22 6.51447 22H4.23214C2.99936 22 2 20.9588 2 19.6744V17.7662C2 17.3424 2.14621 16.9326 2.41197 16.6117L10.2312 7.16915L7.86095 4.30686C7.37778 3.72337 7.44009 2.84227 8.00013 2.33887Z" fill="#7CB45B" stroke="#7CB45B" stroke-width="2" stroke-linecap="round"/>
  <path d="M6 17L6 19" stroke="white" stroke-width="2" stroke-linecap="round"/>
  <path d="M18 17L18 19" stroke="white" stroke-width="2" stroke-linecap="round"/>
</svg>