<svg width="21" height="21" viewBox="0 0 21 21" fill="none" xmlns="http://www.w3.org/2000/svg">
<path d="M7.58333 1.25H2C1.44772 1.25 1 1.69772 1 2.25V7.83333C1 8.38562 1.44772 8.83333 2 8.83333H7.58333C8.13562 8.83333 8.58333 8.38562 8.58333 7.83333V2.25C8.58333 1.69772 8.13562 1.25 7.58333 1.25Z" fill="#DBDBDB" stroke="#DBDBDB" stroke-linecap="round"/>
<path d="M19.1663 1.25H13.583C13.0307 1.25 12.583 1.69772 12.583 2.25V7.83333C12.583 8.38562 13.0307 8.83333 13.583 8.83333H19.1663C19.7186 8.83333 20.1663 8.38562 20.1663 7.83333V2.25C20.1663 1.69772 19.7186 1.25 19.1663 1.25Z" fill="#DBDBDB" stroke="#DBDBDB" stroke-linecap="round"/>
<path d="M19.1663 12.834H13.583C13.0307 12.834 12.583 13.2817 12.583 13.834V19.4173C12.583 19.9696 13.0307 20.4173 13.583 20.4173H19.1663C19.7186 20.4173 20.1663 19.9696 20.1663 19.4173V13.834C20.1663 13.2817 19.7186 12.834 19.1663 12.834Z" fill="#DBDBDB" stroke="#DBDBDB" stroke-linecap="round"/>
<path d="M7.58333 12.834H2C1.44772 12.834 1 13.2817 1 13.834V19.4173C1 19.9696 1.44772 20.4173 2 20.4173H7.58333C8.13562 20.4173 8.58333 19.9696 8.58333 19.4173V13.834C8.58333 13.2817 8.13562 12.834 7.58333 12.834Z" fill="#DBDBDB" stroke="#DBDBDB" stroke-linecap="round"/>
</svg>
