<svg width="36" height="36" viewBox="0 0 36 36" fill="none" xmlns="http://www.w3.org/2000/svg">
<circle cx="18" cy="18" r="18" fill="#7CB45B"/>
<path d="M24.4167 9.75H11.5833C10.5708 9.75 9.75 10.5708 9.75 11.5833V24.4167C9.75 25.4292 10.5708 26.25 11.5833 26.25H24.4167C25.4292 26.25 26.25 25.4292 26.25 24.4167V11.5833C26.25 10.5708 25.4292 9.75 24.4167 9.75Z" stroke="white" stroke-width="1.5" stroke-linecap="round" stroke-linejoin="round"/>
<path d="M14.7915 16.166C15.5509 16.166 16.1665 15.5504 16.1665 14.791C16.1665 14.0316 15.5509 13.416 14.7915 13.416C14.0321 13.416 13.4165 14.0316 13.4165 14.791C13.4165 15.5504 14.0321 16.166 14.7915 16.166Z" stroke="white" stroke-width="1.5" stroke-linecap="round" stroke-linejoin="round"/>
<path d="M26.2502 20.7494L21.6668 16.166L11.5835 26.2494" stroke="white" stroke-width="1.5" stroke-linecap="round" stroke-linejoin="round"/>
</svg>
