<svg xmlns="http://www.w3.org/2000/svg" width="50" height="50" viewBox="0 0 50 50" fill="none">
  <path fill-rule="evenodd" clip-rule="evenodd" d="M25 50C38.8071 50 50 38.8071 50 25C50 11.1929 38.8071 0 25 0C11.1929 0 0 11.1929 0 25C0 38.8071 11.1929 50 25 50ZM19.5 12C18.3954 12 17.5 12.8954 17.5 14V30.5C17.5 31.6046 18.3954 32.5 19.5 32.5H36C37.1046 32.5 38 31.6046 38 30.5V14C38 12.8954 37.1046 12 36 12H19.5ZM19.5 16C19.5 14.8954 20.3954 14 21.5 14H34C35.1046 14 36 14.8954 36 16V28.5C36 29.6046 35.1046 30.5 34 30.5H21.5C20.3954 30.5 19.5 29.6046 19.5 28.5V16ZM12 18.5C12 17.8096 12.5596 17.25 13.25 17.25C13.9404 17.25 14.5 17.8096 14.5 18.5V33.5C14.5 34.6046 15.3954 35.5 16.5 35.5H31.25C31.9404 35.5 32.5 36.0596 32.5 36.75C32.5 37.4404 31.9404 38 31.25 38H14C12.8954 38 12 37.1046 12 36V18.5ZM27.8764 27.25C27.186 27.25 26.6264 26.6904 26.6264 26V23.6254H24.251C23.5606 23.6254 23.001 23.0658 23.001 22.3754C23.001 21.6851 23.5606 21.1254 24.251 21.1254H26.6264V18.75C26.6264 18.0596 27.186 17.5 27.8764 17.5C28.5668 17.5 29.1264 18.0596 29.1264 18.75V21.1254L31.501 21.1254C32.1913 21.1254 32.751 21.6851 32.751 22.3754C32.751 23.0658 32.1913 23.6254 31.501 23.6254H29.1264V26C29.1264 26.6904 28.5668 27.25 27.8764 27.25Z" fill="#7CB45B"/>
</svg>