<svg width="50" height="50" viewBox="0 0 50 50" fill="none" xmlns="http://www.w3.org/2000/svg">
<circle cx="25" cy="25" r="25" fill="#7CB45B"/>
<path fill-rule="evenodd" clip-rule="evenodd" d="M17.5 14C17.5 12.8954 18.3954 12 19.5 12H36C37.1046 12 38 12.8954 38 14V30.5C38 31.6046 37.1046 32.5 36 32.5H19.5C18.3954 32.5 17.5 31.6046 17.5 30.5V14ZM21.5 14C20.3954 14 19.5 14.8954 19.5 16V28.5C19.5 29.6046 20.3954 30.5 21.5 30.5H34C35.1046 30.5 36 29.6046 36 28.5V16C36 14.8954 35.1046 14 34 14H21.5Z" fill="white"/>
<path fill-rule="evenodd" clip-rule="evenodd" d="M12 18.5C12 17.8096 12.5596 17.25 13.25 17.25C13.9404 17.25 14.5 17.8096 14.5 18.5V33.5C14.5 34.6046 15.3954 35.5 16.5 35.5H31.25C31.9404 35.5 32.5 36.0596 32.5 36.75C32.5 37.4404 31.9404 38 31.25 38H14C12.8954 38 12 37.1046 12 36V18.5Z" fill="white"/>
<path fill-rule="evenodd" clip-rule="evenodd" d="M26.6264 26C26.6264 26.6904 27.186 27.25 27.8764 27.25C28.5668 27.25 29.1264 26.6904 29.1264 26V23.6254H31.501C32.1913 23.6254 32.751 23.0658 32.751 22.3754C32.751 21.6851 32.1913 21.1254 31.501 21.1254L29.1264 21.1254V18.75C29.1264 18.0596 28.5668 17.5 27.8764 17.5C27.186 17.5 26.6264 18.0596 26.6264 18.75V21.1254L24.251 21.1254C23.5606 21.1254 23.001 21.6851 23.001 22.3754C23.001 23.0658 23.5606 23.6254 24.251 23.6254H26.6264V26Z" fill="white"/>
</svg>
