<svg width="326" height="35" viewBox="0 0 326 35" fill="none" xmlns="http://www.w3.org/2000/svg">
<path fill-rule="evenodd" clip-rule="evenodd" d="M316.889 18.9814L316.89 18.964C316.907 18.811 316.934 18.659 316.95 18.5674C316.954 18.5458 316.957 18.5275 316.96 18.5134C316.974 18.4251 316.978 18.3836 316.978 18.3408V3.38255C316.978 3.33971 316.974 3.29826 316.96 3.20992C316.957 3.19583 316.954 3.17757 316.95 3.15593C316.934 3.06438 316.907 2.91233 316.89 2.75931L316.889 2.7419L316.887 2.72444C316.779 1.42688 317.915 0.645508 318.888 0.645508C319.868 0.645508 320.962 1.46185 320.857 2.72444L320.855 2.7419L320.853 2.75931C320.836 2.91228 320.809 3.06428 320.793 3.15584C320.79 3.17752 320.786 3.19581 320.784 3.20992C320.769 3.29826 320.765 3.33971 320.765 3.38255V8.22011H323.853C324.307 8.22011 324.768 8.37061 325.125 8.71152C325.475 9.04477 325.651 9.4934 325.651 9.93871C325.651 10.384 325.475 10.8327 325.125 11.1659C324.768 11.5068 324.307 11.6573 323.853 11.6573H320.765V18.3408C320.765 18.3836 320.769 18.4251 320.784 18.5134C320.786 18.5275 320.79 18.5458 320.793 18.5675C320.809 18.6591 320.836 18.8111 320.853 18.964L320.855 18.9814L320.857 18.9989C320.962 20.2615 319.868 21.0778 318.888 21.0778C317.915 21.0778 316.779 20.2965 316.887 18.9989L316.889 18.9814ZM308.576 6.27872H314.082C314.536 6.27872 314.998 6.12822 315.355 5.7873C315.704 5.45406 315.88 5.00542 315.88 4.56011C315.88 4.1148 315.704 3.66617 315.355 3.33292C314.998 2.99201 314.536 2.8415 314.082 2.8415H306.619H299.156C298.701 2.8415 298.24 2.99201 297.883 3.33292C297.534 3.66617 297.357 4.1148 297.357 4.56011C297.357 5.00542 297.534 5.45405 297.883 5.7873C298.24 6.12821 298.701 6.27872 299.156 6.27872H304.788C304.742 10.1759 301.845 12.8639 297.299 16.1293C296.926 16.3966 296.619 16.7891 296.512 17.2873C296.404 17.7866 296.522 18.2991 296.829 18.6953C297.505 19.5678 298.644 19.5017 299.405 18.9721L299.406 18.9712L299.408 18.9703C302.137 17.0619 304.716 15.0816 306.44 12.664C306.58 12.9458 306.785 13.2022 307.042 13.4096C309.222 15.1786 311.1 16.5825 313.218 18.0104C313.232 18.0266 313.247 18.0447 313.265 18.0638C313.401 18.2158 313.647 18.4562 314.036 18.6051C314.941 18.959 316.114 18.6004 316.562 17.5256L316.573 17.4985L316.583 17.471C316.969 16.4091 316.365 15.4622 315.662 15.0678C315.519 14.9867 315.384 14.9326 315.273 14.8954C315.197 14.8699 315.127 14.8504 315.071 14.836C314.728 14.6003 314.384 14.3648 314.037 14.1279C312.541 13.105 311.005 12.0555 309.424 10.8454C309.14 10.6194 308.762 10.3645 308.325 10.2505C308.166 10.2091 307.991 10.186 307.811 10.19C308.29 9.00101 308.564 7.70724 308.576 6.27872ZM302.622 21.6989C304.462 20.4521 307.106 19.773 310.486 19.773C313.865 19.773 316.509 20.4521 318.349 21.6989C320.232 22.9754 321.211 24.8155 321.211 26.8702C321.211 28.9366 320.236 30.7854 318.351 32.0681C316.51 33.3201 313.865 33.9992 310.486 33.9992C307.107 33.9992 304.461 33.3201 302.621 32.0681C300.735 30.7854 299.76 28.9366 299.76 26.8702C299.76 24.8155 300.739 22.9754 302.622 21.6989ZM310.486 31.835C304.884 31.835 302.275 29.4799 302.275 26.8702C302.275 24.2923 304.884 21.9371 310.486 21.9371C316.087 21.9371 318.697 24.2923 318.697 26.8702C318.697 29.4799 316.087 31.835 310.486 31.835Z" fill="white"/>
<path fill-rule="evenodd" clip-rule="evenodd" d="M289.903 18.8541L289.905 18.8367C289.922 18.6837 289.949 18.5316 289.965 18.4401C289.969 18.4185 289.972 18.4002 289.974 18.3861C289.989 18.2978 289.993 18.2563 289.993 18.2135V3.38255C289.993 3.3397 289.989 3.29825 289.974 3.20992C289.972 3.19583 289.969 3.17757 289.965 3.15593C289.949 3.06438 289.922 2.91233 289.905 2.75931L289.903 2.7419L289.902 2.72444C289.793 1.42688 290.93 0.645508 291.902 0.645508C292.882 0.645508 293.976 1.46185 293.871 2.72444L293.87 2.7419L293.868 2.75931C293.851 2.91229 293.824 3.0643 293.808 3.15585C293.804 3.17753 293.801 3.19581 293.798 3.20992C293.784 3.29825 293.78 3.3397 293.78 3.38255V18.2135C293.78 18.2563 293.784 18.2978 293.798 18.3861C293.801 18.4002 293.804 18.4185 293.808 18.4402C293.824 18.5317 293.851 18.6837 293.868 18.8367L293.87 18.8541L293.871 18.8716C293.976 20.1342 292.882 20.9505 291.902 20.9505C290.93 20.9505 289.793 20.1692 289.902 18.8716L289.903 18.8541ZM271.921 7.32485L271.92 7.3074C271.886 6.90038 271.974 6.54415 272.142 6.24689H269.942C269.488 6.24689 269.026 6.09639 268.669 5.75547C268.32 5.42223 268.144 4.9736 268.144 4.52829C268.144 4.08297 268.32 3.63435 268.669 3.3011C269.026 2.96018 269.488 2.80968 269.942 2.80968H286.683C287.137 2.80968 287.598 2.96018 287.956 3.3011C288.305 3.63434 288.481 4.08297 288.481 4.52829C288.481 4.9736 288.305 5.42223 287.956 5.75547C287.598 6.09639 287.137 6.24689 286.683 6.24689H284.482C284.65 6.54692 284.739 6.90443 284.705 7.3074L284.704 7.32485L284.702 7.34226C284.685 7.49528 284.658 7.64733 284.642 7.73888C284.638 7.76052 284.635 7.77878 284.632 7.79287C284.618 7.8812 284.614 7.92265 284.614 7.9655V14.4898H287.192C287.646 14.4898 288.108 14.6403 288.465 14.9813C288.814 15.3145 288.99 15.7631 288.99 16.2084C288.99 16.6538 288.814 17.1024 288.465 17.4356C288.108 17.7765 287.646 17.9271 287.192 17.9271H269.433C268.979 17.9271 268.517 17.7765 268.16 17.4356C267.811 17.1024 267.635 16.6538 267.635 16.2084C267.635 15.7631 267.811 15.3145 268.16 14.9813C268.517 14.6403 268.979 14.4898 269.433 14.4898H272.011V7.9655C272.011 7.92265 272.007 7.88121 271.992 7.79287C271.99 7.77878 271.987 7.76053 271.983 7.73889C271.967 7.64734 271.94 7.49529 271.923 7.34226L271.921 7.32485ZM275.798 14.4898V7.9655C275.798 7.92265 275.802 7.88121 275.817 7.79287C275.819 7.77878 275.822 7.76052 275.826 7.73888C275.842 7.64733 275.869 7.49528 275.886 7.34226L275.888 7.32485L275.889 7.3074C275.923 6.90443 275.834 6.54692 275.666 6.24689H280.958C280.79 6.54415 280.702 6.90038 280.736 7.3074L280.737 7.32485L280.739 7.34226C280.756 7.49528 280.783 7.64733 280.799 7.73888C280.803 7.76052 280.806 7.77878 280.808 7.79287C280.823 7.88121 280.827 7.92265 280.827 7.9655V14.4898H275.798ZM275.122 21.6947C276.982 20.45 279.665 19.773 283.118 19.773C286.572 19.773 289.254 20.45 291.114 21.6947C293.022 22.971 294.003 24.8132 294.003 26.8702C294.003 28.9389 293.025 30.7898 291.116 32.0723C289.255 33.3222 286.571 33.9992 283.118 33.9992C279.665 33.9992 276.981 33.3222 275.12 32.0723C273.211 30.7898 272.234 28.9389 272.234 26.8702C272.234 24.8132 273.215 22.971 275.122 21.6947ZM283.118 31.835C277.358 31.835 274.748 29.4799 274.748 26.8702C274.748 24.2923 277.358 21.9371 283.118 21.9371C288.879 21.9371 291.488 24.2923 291.488 26.8702C291.488 29.4799 288.879 31.835 283.118 31.835Z" fill="white"/>
<path fill-rule="evenodd" clip-rule="evenodd" d="M246.736 29.2257C246.736 31.8673 249.632 32.5038 255.138 32.5038C260.612 32.5038 263.54 31.8673 263.54 29.2257V24.5473C263.54 24.1637 263.266 23.8623 262.872 23.8203C262.841 23.817 262.809 23.8153 262.776 23.8153H246.736V29.2257ZM240.375 18.1275L240.377 18.1265C241.773 17.5262 243.528 16.569 245.134 15.3072C246.018 14.6129 246.836 13.8428 247.523 13.0076C245.606 13.2532 243.701 13.4148 241.798 13.5023L241.768 13.5036H241.739C240.756 13.5036 239.96 12.7898 239.926 11.8305C239.91 11.3853 240.071 10.9221 240.424 10.5732C240.775 10.2261 241.23 10.0742 241.673 10.0667C244.247 9.95269 246.848 9.68479 249.428 9.26302C249.523 8.82892 249.568 8.37652 249.568 7.90224V7.55216H241.994C241.547 7.55216 241.087 7.41175 240.724 7.08C240.365 6.75214 240.172 6.29801 240.172 5.83355C240.172 5.3691 240.365 4.91496 240.724 4.5871C241.087 4.25535 241.547 4.11494 241.994 4.11494H250.173C251.053 4.11494 251.912 4.34817 252.541 4.99258C253.163 5.63091 253.356 6.46512 253.356 7.2339V7.93407C253.356 11.4447 251.363 14.3675 249.034 16.5459C246.691 18.7368 243.847 20.3314 241.751 21.2034L241.738 21.2086L241.726 21.2135C241.029 21.4862 239.917 21.4602 239.398 20.4878C239.141 20.0051 239.16 19.4499 239.401 18.9924C239.629 18.5587 240.008 18.2869 240.372 18.1285L240.375 18.1275ZM247.103 21.6482C246.924 21.5759 246.528 21.4283 246.067 21.4283C244.836 21.4283 244.126 22.4373 244.126 23.4015C244.126 23.6692 244.171 23.8884 244.194 24.0006L244.199 24.0252C244.218 24.1223 244.222 24.1506 244.222 24.1972V29.0347C244.222 30.1074 244.476 31.0855 245.063 31.9148C245.644 32.7368 246.475 33.3026 247.437 33.6947C249.302 34.4545 251.94 34.6679 255.138 34.6679C258.321 34.6679 260.958 34.4543 262.826 33.6951C263.789 33.3036 264.622 32.7387 265.207 31.9178C265.797 31.0888 266.054 30.1099 266.054 29.0347V24.7701C266.054 24.0013 265.862 23.1671 265.239 22.5287C264.993 22.2765 264.712 22.0872 264.408 21.9503C265.31 21.8208 266.209 21.0408 266.113 19.8904L266.112 19.873L266.11 19.8556C266.093 19.7026 266.066 19.5506 266.05 19.459C266.046 19.4373 266.043 19.4191 266.041 19.4049C266.026 19.3166 266.022 19.2752 266.022 19.2323V4.65599C266.022 4.61314 266.026 4.5717 266.041 4.48336C266.043 4.46925 266.046 4.45096 266.05 4.42928C266.066 4.33772 266.093 4.18572 266.11 4.03274L266.112 4.01533L266.113 3.99788C266.219 2.73529 265.125 1.91895 264.145 1.91895C263.172 1.91895 262.036 2.70032 262.144 3.99788L262.145 4.01533L262.147 4.03274C262.164 4.18577 262.191 4.33782 262.207 4.42937C262.211 4.45101 262.214 4.46927 262.217 4.48336C262.231 4.5717 262.235 4.61314 262.235 4.65599V9.49355H259.052V4.81512C259.052 4.77227 259.056 4.73082 259.071 4.64249C259.073 4.62847 259.076 4.61032 259.08 4.58883C259.096 4.49732 259.123 4.34508 259.14 4.19187L259.142 4.17447L259.144 4.15702C259.249 2.89441 258.155 2.07808 257.175 2.07808C256.202 2.07808 255.066 2.85945 255.174 4.15702L255.176 4.17447L255.177 4.19187C255.195 4.34508 255.221 4.49732 255.237 4.58883C255.241 4.61032 255.244 4.62847 255.247 4.64249C255.261 4.73082 255.265 4.77227 255.265 4.81512V18.7868C255.265 18.8296 255.261 18.871 255.247 18.9594C255.244 18.9734 255.241 18.9915 255.237 19.013C255.221 19.1045 255.195 19.2568 255.177 19.41L255.176 19.4274L255.174 19.4449C255.066 20.7424 256.202 21.5238 257.175 21.5238C258.155 21.5238 259.249 20.7075 259.144 19.4449L259.142 19.4274L259.14 19.41C259.123 19.2568 259.096 19.1045 259.08 19.013C259.076 18.9915 259.073 18.9734 259.071 18.9594C259.056 18.871 259.052 18.8296 259.052 18.7868V12.9308H262.235V19.2323C262.235 19.2752 262.231 19.3166 262.217 19.4049C262.214 19.419 262.211 19.4373 262.207 19.4589C262.191 19.5505 262.164 19.7025 262.147 19.8556L262.145 19.873L262.144 19.8904C262.076 20.7021 262.496 21.3118 263.057 21.6546C262.996 21.6523 262.934 21.6511 262.872 21.6511H247.213C247.166 21.6511 247.13 21.6498 247.103 21.6482Z" fill="white"/>
<path fill-rule="evenodd" clip-rule="evenodd" d="M228.606 20.3824L228.608 20.3999C228.713 21.6625 227.619 22.4788 226.639 22.4788C225.666 22.4788 224.53 21.6974 224.638 20.3999L224.64 20.3824L224.642 20.365C224.659 20.2118 224.686 20.0595 224.702 19.968C224.705 19.9465 224.709 19.9284 224.711 19.9144C224.726 19.826 224.729 19.7846 224.729 19.7418V6.69307H209.548C209.102 6.69307 208.642 6.55267 208.278 6.22092C207.919 5.89306 207.726 5.43892 207.726 4.97447C207.726 4.51001 207.919 4.05588 208.278 3.72802C208.642 3.39626 209.102 3.25586 209.548 3.25586H225.334C226.214 3.25586 227.073 3.48908 227.702 4.13349C228.324 4.77182 228.517 5.60604 228.517 6.37481V19.7418C228.517 19.7846 228.52 19.826 228.535 19.9144C228.538 19.9284 228.541 19.9465 228.544 19.968C228.561 20.0595 228.587 20.2118 228.604 20.365L228.606 20.3824ZM203.947 25.9937C204.304 25.6528 204.766 25.5023 205.22 25.5023H230.935C231.39 25.5023 231.851 25.6528 232.208 25.9937C232.557 26.3269 232.734 26.7756 232.734 27.2209C232.734 27.6662 232.557 28.1148 232.208 28.4481C231.851 28.789 231.39 28.9395 230.935 28.9395H205.22C204.766 28.9395 204.304 28.789 203.947 28.4481C203.598 28.1148 203.422 27.6662 203.422 27.2209C203.422 26.7756 203.598 26.3269 203.947 25.9937Z" fill="white"/>
<path fill-rule="evenodd" clip-rule="evenodd" d="M191.71 22.7369L191.712 22.7195C191.729 22.5663 191.756 22.4141 191.772 22.3225C191.776 22.3011 191.779 22.2829 191.781 22.2689C191.796 22.1806 191.8 22.1391 191.8 22.0963V12.262H185.053C184.599 12.262 184.137 12.1115 183.78 11.7706C183.431 11.4374 183.255 10.9887 183.255 10.5434C183.255 10.0981 183.431 9.64947 183.78 9.31622C184.137 8.97531 184.599 8.8248 185.053 8.8248H191.8V3.38255C191.8 3.3397 191.796 3.29825 191.781 3.20992C191.779 3.1959 191.776 3.17776 191.772 3.15626C191.756 3.06475 191.729 2.91252 191.712 2.75931L191.71 2.7419L191.709 2.72444C191.601 1.42688 192.737 0.645508 193.709 0.645508C194.69 0.645508 195.783 1.46185 195.678 2.72444L195.677 2.7419L195.675 2.75931C195.658 2.91253 195.631 3.06477 195.615 3.15628C195.611 3.17777 195.608 3.1959 195.606 3.20992C195.591 3.29825 195.587 3.3397 195.587 3.38255V22.0963C195.587 22.1391 195.591 22.1806 195.606 22.2689C195.608 22.2829 195.611 22.301 195.615 22.3225C195.631 22.414 195.658 22.5663 195.675 22.7195L195.677 22.7369L195.678 22.7544C195.783 24.017 194.69 24.8333 193.709 24.8333C192.737 24.8333 191.601 24.0519 191.709 22.7544L191.71 22.7369ZM173.676 2.71131C173.703 2.71292 173.739 2.7142 173.786 2.7142H185.976C186.43 2.7142 186.891 2.86471 187.249 3.20562C187.598 3.53887 187.774 3.98749 187.774 4.43281C187.774 4.87812 187.598 5.32675 187.249 5.65999C186.891 6.00091 186.43 6.15141 185.976 6.15141H174.582V11.9119C174.582 13.2653 174.772 14.0252 175.043 14.5126C175.295 14.968 175.696 15.3265 176.456 15.7063L176.461 15.7088C177.624 16.2964 179.244 16.5258 181.102 16.3382C182.943 16.1522 184.921 15.5648 186.726 14.6328C187.381 14.2931 188.637 14.122 189.228 15.2327C189.822 16.3489 188.969 17.292 188.304 17.629C184.171 19.7609 178.944 20.6414 174.992 18.9012L174.991 18.9009C173.626 18.2982 172.514 17.5111 171.779 16.3001C171.055 15.1078 170.795 13.6641 170.795 11.9438V5.26028C170.795 5.21367 170.791 5.18536 170.772 5.08825L170.767 5.06367C170.744 4.95151 170.699 4.73232 170.699 4.46463C170.699 3.50045 171.409 2.49142 172.641 2.49142C173.101 2.49142 173.497 2.63897 173.676 2.71131ZM174.588 23.1742L174.586 23.1568C174.478 21.8592 175.614 21.0778 176.587 21.0778C177.567 21.0778 178.661 21.8942 178.556 23.1568L178.554 23.1742L178.552 23.1916C178.535 23.3448 178.509 23.4971 178.493 23.5886C178.489 23.6101 178.486 23.6282 178.483 23.6422C178.469 23.7306 178.465 23.772 178.465 23.8149V25.3744C178.465 27.32 179.291 28.2375 180.105 28.7572C181.437 29.6071 183.759 30.0078 186.423 29.802C189.048 29.5991 191.753 28.8247 193.74 27.6016C194.419 27.1814 195.525 27.0674 196.178 27.9521C196.486 28.3699 196.566 28.8974 196.421 29.3813C196.28 29.852 195.958 30.1954 195.613 30.42L195.602 30.4268L195.592 30.4334C193.116 31.9739 189.965 32.9053 186.916 33.1862C183.884 33.4657 180.782 33.1167 178.454 31.9163L178.453 31.9157L178.452 31.9152C176.261 30.7806 174.677 28.6341 174.677 25.4062V23.8149C174.677 23.772 174.674 23.7306 174.659 23.6422C174.657 23.6282 174.653 23.6101 174.65 23.5886C174.634 23.4971 174.607 23.3448 174.59 23.1916L174.588 23.1742Z" fill="white"/>
<path fill-rule="evenodd" clip-rule="evenodd" d="M146.964 2.39229L146.963 2.37483C146.855 1.07727 147.991 0.295898 148.964 0.295898C149.944 0.295898 151.038 1.11224 150.932 2.37483L150.931 2.39229L150.929 2.4097C150.912 2.56291 150.885 2.71515 150.869 2.80666C150.865 2.82815 150.862 2.84629 150.86 2.86031C150.845 2.94865 150.841 2.99009 150.841 3.03294V4.11502H155.711C156.165 4.11502 156.626 4.26553 156.984 4.60645C157.006 4.62741 157.027 4.64884 157.047 4.67069V3.54215C157.047 3.49931 157.044 3.45786 157.029 3.36953C157.027 3.35551 157.023 3.33736 157.02 3.31587C157.004 3.22436 156.977 3.07212 156.96 2.91891L156.958 2.9015L156.956 2.88405C156.848 1.58649 157.984 0.805115 158.957 0.805115C159.937 0.805115 161.031 1.62145 160.926 2.88405L160.924 2.90151L160.922 2.91892C160.905 3.07214 160.879 3.22438 160.862 3.31589C160.859 3.33737 160.856 3.35551 160.853 3.36953C160.838 3.45786 160.835 3.49931 160.835 3.54215V9.17537H163.699V3.38302C163.699 3.34018 163.695 3.29873 163.681 3.2104C163.678 3.19638 163.675 3.17824 163.671 3.15674C163.655 3.06523 163.628 2.913 163.611 2.75978L163.609 2.74237L163.608 2.72492C163.5 1.42736 164.636 0.645984 165.609 0.645984C166.589 0.645984 167.683 1.46232 167.577 2.72492L167.576 2.74237L167.574 2.75978C167.557 2.913 167.53 3.06523 167.514 3.15674C167.51 3.17824 167.507 3.19638 167.505 3.2104C167.49 3.29873 167.486 3.34018 167.486 3.38302V18.7232C167.486 18.766 167.49 18.8075 167.505 18.8958C167.507 18.9098 167.51 18.928 167.514 18.9495C167.53 19.041 167.557 19.1932 167.574 19.3464L167.576 19.3638L167.577 19.3813C167.683 20.6439 166.589 21.4602 165.609 21.4602C164.636 21.4602 163.5 20.6788 163.608 19.3813L163.609 19.3638L163.611 19.3464C163.628 19.1932 163.655 19.041 163.671 18.9495C163.675 18.928 163.678 18.9098 163.681 18.8958C163.695 18.8075 163.699 18.766 163.699 18.7232V12.6126H160.835V18.1503C160.835 18.1932 160.838 18.2346 160.853 18.3229C160.856 18.337 160.859 18.3551 160.862 18.3766C160.879 18.4681 160.905 18.6203 160.922 18.7735L160.924 18.791L160.926 18.8084C161.031 20.071 159.937 20.8874 158.957 20.8874C157.984 20.8874 156.848 20.106 156.956 18.8084L156.958 18.791L156.96 18.7736C156.977 18.6203 157.004 18.4681 157.02 18.3766C157.023 18.3551 157.027 18.337 157.029 18.3229C157.044 18.2346 157.047 18.1932 157.047 18.1503V6.99658C157.027 7.01843 157.006 7.03985 156.984 7.06082C156.626 7.40173 156.165 7.55224 155.711 7.55224H152.367C154.698 8.63858 156.188 10.8291 156.188 13.4082C156.188 17.1004 153.135 19.9962 148.932 19.9962C144.72 19.9962 141.707 17.0916 141.707 13.4082C141.707 10.8339 143.179 8.64003 145.503 7.55224H142.089C141.635 7.55224 141.173 7.40173 140.816 7.06082C140.467 6.72757 140.291 6.27894 140.291 5.83363C140.291 5.38832 140.467 4.93969 140.816 4.60645C141.173 4.26553 141.635 4.11502 142.089 4.11502H147.054V3.03294C147.054 2.99009 147.05 2.94864 147.036 2.86031C147.033 2.84629 147.03 2.82816 147.026 2.80667C147.01 2.71516 146.983 2.56292 146.966 2.4097L146.964 2.39229ZM142.593 30.2418L142.606 30.2159C142.72 29.9873 142.851 29.8258 142.929 29.7316C143.016 29.6274 143.02 29.6249 143.035 29.6017L143.036 29.6C144.531 27.3654 145.723 25.731 146.649 24.4985C147.01 24.0177 147.322 23.6099 147.592 23.2564C148.024 22.6918 148.35 22.2657 148.603 21.9017C148.606 21.8958 148.614 21.8822 148.626 21.8582C148.65 21.8121 148.673 21.7643 148.709 21.6885C148.741 21.6225 148.785 21.5329 148.833 21.4445C148.878 21.3638 148.949 21.2404 149.046 21.1177C149.395 20.6726 149.893 20.4493 150.343 20.3893C150.782 20.3307 151.352 20.4076 151.817 20.8017C152.605 21.4513 152.879 22.7432 152.079 23.6427L152.054 23.6706L152.028 23.6971C151.867 23.8577 151.777 23.9504 151.686 24.0779L151.663 24.1101L151.638 24.1407C151.57 24.2245 151.493 24.3204 151.407 24.4278C151.695 24.5931 151.964 24.8212 152.196 25.0277C152.989 25.7299 153.65 26.2534 154.286 26.757C154.499 26.9252 154.708 27.0912 154.919 27.2608C154.947 27.2766 154.98 27.2947 155.028 27.3213C155.083 27.3518 155.155 27.3923 155.222 27.4326C155.255 27.4527 155.298 27.4794 155.343 27.5099C155.365 27.5254 155.395 27.5461 155.427 27.5712C155.449 27.5883 155.483 27.6157 155.522 27.652C155.538 27.6664 155.554 27.6811 155.569 27.696C157.716 24.4792 159.043 22.6179 159.715 21.7027C159.719 21.6951 159.725 21.6836 159.733 21.6673C159.752 21.6302 159.771 21.5921 159.796 21.5392L159.817 21.4976C159.849 21.4316 159.892 21.3419 159.941 21.2536C159.985 21.1727 160.056 21.0491 160.154 20.9263C160.503 20.4815 161 20.2584 161.45 20.1984C161.889 20.1398 162.459 20.2165 162.924 20.6102C163.792 21.3238 163.888 22.6266 163.155 23.4517L163.13 23.4797L163.103 23.5061C162.943 23.6667 162.853 23.7595 162.762 23.8869L162.737 23.9219L162.71 23.9551C162.625 24.0586 162.517 24.1974 162.389 24.3689C162.732 24.5296 163.037 24.7893 163.268 24.9931L163.282 25.0049L163.295 25.017C165.156 26.754 166.4 27.9051 167.655 29.0097C167.687 29.0268 167.73 29.05 167.759 29.0652C167.815 29.0955 167.891 29.1381 167.969 29.187C168.021 29.2199 168.122 29.2852 168.227 29.3791C168.557 29.6557 168.827 30.0409 168.924 30.5175C169.028 31.0247 168.914 31.5277 168.641 31.937L168.633 31.949L168.625 31.9609C167.953 32.9203 166.749 32.9637 165.975 32.4641C165.805 32.3569 165.681 32.2341 165.608 32.1549C165.523 32.0637 165.455 31.9743 165.407 31.908C165.385 31.879 165.366 31.851 165.349 31.826C163.958 30.5865 162.616 29.2735 160.628 27.2546L160.61 27.2365L160.593 27.2178C160.554 27.1749 160.515 27.1297 160.478 27.0822C159.562 28.4138 158.434 30.0756 157.169 31.943C157.167 31.9489 157.164 31.956 157.161 31.9643C157.157 31.977 157.152 31.9902 157.146 32.0058L157.139 32.0242C157.135 32.0361 157.13 32.0499 157.125 32.0646C157.12 32.0772 157.115 32.0904 157.11 32.1035C157.092 32.1529 157.056 32.2457 157.009 32.3412C156.629 33.0995 155.625 33.7583 154.556 33.343C153.976 33.125 153.628 32.6705 153.47 32.2298C153.319 31.8074 153.314 31.3391 153.453 30.9237L153.481 30.8379L153.483 30.8341C153.359 30.7775 153.242 30.7078 153.133 30.6261C153.001 30.5272 152.902 30.4204 152.849 30.3613C152.791 30.2971 152.738 30.2318 152.706 30.1923L152.704 30.1899C152.687 30.1689 152.675 30.154 152.666 30.1431L152.661 30.1387C152.406 29.908 152.149 29.6845 151.883 29.4529C151.187 28.846 150.426 28.1836 149.457 27.1914C149.426 27.1597 149.394 27.1259 149.361 27.09C148.473 28.2797 147.41 29.7413 146.252 31.4044C146.25 31.4098 146.248 31.416 146.245 31.4232C146.238 31.4407 146.232 31.4591 146.223 31.4831L146.22 31.4901C146.213 31.511 146.203 31.5368 146.194 31.5624C146.178 31.6034 146.151 31.6743 146.116 31.7517C145.905 32.2387 145.514 32.5715 145.118 32.7498C144.713 32.9318 144.175 33.009 143.642 32.8026C142.532 32.3875 142.192 31.1441 142.581 30.2682L142.593 30.2418ZM151.251 25.384C151.246 25.3781 151.244 25.3752 151.244 25.3752C151.244 25.3752 151.246 25.3781 151.251 25.384ZM154.745 28.6621C154.75 28.6682 154.75 28.6679 154.745 28.6621ZM148.932 17.8321C146.163 17.8321 144.222 16.018 144.222 13.4082C144.222 10.7985 146.163 8.98441 148.932 8.98441C151.701 8.98441 153.674 10.7985 153.674 13.4082C153.674 16.018 151.701 17.8321 148.932 17.8321Z" fill="white"/>
<path fill-rule="evenodd" clip-rule="evenodd" d="M128.789 4.97041L128.788 4.95296C128.679 3.6554 129.816 2.87402 130.788 2.87402C131.768 2.87402 132.862 3.69036 132.757 4.95296L132.756 4.97041L132.754 4.98782C132.737 5.14103 132.71 5.29327 132.694 5.38478C132.69 5.40627 132.687 5.42442 132.684 5.43844C132.67 5.52677 132.666 5.56822 132.666 5.61106V22.5744C132.666 22.6172 132.67 22.6586 132.684 22.747C132.687 22.761 132.69 22.7791 132.694 22.8006C132.71 22.8921 132.737 23.0444 132.754 23.1976L132.756 23.215L132.757 23.2325C132.862 24.4951 131.768 25.3114 130.788 25.3114C129.816 25.3114 128.679 24.53 128.788 23.2325L128.789 23.215L128.791 23.1976C128.808 23.0445 128.835 22.8924 128.851 22.8008C128.855 22.7792 128.858 22.761 128.86 22.747C128.875 22.6586 128.879 22.6172 128.879 22.5744V5.61106C128.879 5.56822 128.875 5.52677 128.86 5.43844C128.858 5.42438 128.855 5.40617 128.851 5.3846C128.835 5.29306 128.808 5.14093 128.791 4.98782L128.789 4.97041ZM129.118 26.8688C129.56 26.4072 130.162 26.1707 130.788 26.1707C132.139 26.1707 133.08 27.2632 133.08 28.5577C133.08 29.8917 132.038 30.8491 130.788 30.8491C129.533 30.8491 128.465 29.917 128.465 28.5577C128.465 27.9354 128.677 27.3284 129.118 26.8688Z" fill="white"/>
<path fill-rule="evenodd" clip-rule="evenodd" d="M110.346 18.245V5.32493C110.346 5.28208 110.35 5.24064 110.365 5.15231C110.367 5.13825 110.371 5.12004 110.374 5.09846C110.39 5.00693 110.417 4.8548 110.434 4.70169L110.436 4.68428L110.438 4.66683C110.543 3.40423 109.449 2.58789 108.469 2.58789C107.496 2.58789 106.36 3.36927 106.468 4.66683L106.47 4.68428L106.471 4.70169C106.489 4.8548 106.515 5.00693 106.531 5.09846C106.535 5.12004 106.538 5.13825 106.541 5.15231C106.555 5.24064 106.559 5.28208 106.559 5.32493V27.7941C106.559 27.837 106.555 27.8784 106.541 27.9668C106.538 27.9808 106.535 27.999 106.531 28.0206C106.515 28.1121 106.489 28.2643 106.471 28.4174L106.47 28.4348L106.468 28.4522C106.36 29.7498 107.496 30.5312 108.469 30.5312C109.449 30.5312 110.543 29.7148 110.438 28.4522L110.436 28.4348L110.434 28.4174C110.417 28.2643 110.39 28.1121 110.374 28.0206C110.371 27.999 110.367 27.9808 110.365 27.9668C110.35 27.8784 110.346 27.837 110.346 27.7941V23.5578C111.115 22.7451 111.841 21.9851 112.525 21.2762C112.633 21.6359 112.832 21.9467 113.024 22.1977C115.522 25.518 116.473 26.702 118.822 29.3668C118.834 29.3912 118.849 29.4218 118.866 29.455C118.924 29.5656 119.007 29.6994 119.13 29.8382C119.251 29.9744 119.388 30.09 119.538 30.1901L119.563 30.2069L119.589 30.2224C119.911 30.4157 120.352 30.5745 120.846 30.54C121.357 30.5044 121.861 30.2602 122.204 29.7888C122.568 29.3479 122.626 28.804 122.595 28.4381C122.557 27.9877 122.364 27.4667 121.923 27.0707L121.795 26.9554L121.706 26.9109C119.469 24.424 118.43 23.2263 115.954 20.1546C115.766 19.919 115.464 19.5566 115.068 19.3224C114.941 19.2478 114.792 19.1775 114.621 19.1286C116.983 16.7367 118.664 15.1305 119.633 14.2045C119.883 13.9657 120.085 13.7722 120.24 13.6221L120.247 13.6155L120.253 13.6088C120.326 13.5363 120.396 13.4832 120.559 13.4017L120.71 13.3264L120.836 13.2145C121.704 12.4429 121.636 11.1712 120.995 10.4241C120.578 9.92052 119.98 9.73284 119.485 9.73284C119.03 9.73284 118.452 9.89446 118.041 10.3695C117.889 10.5134 117.775 10.652 117.699 10.7477C117.64 10.8209 117.627 10.8395 117.592 10.8821C117.57 10.9087 117.561 10.918 117.561 10.918L117.548 10.9309L117.535 10.9449C117.258 11.2395 116.835 11.6573 116.238 12.2475C115.771 12.7094 115.196 13.277 114.502 13.9737C113.398 15.0806 112.019 16.4845 110.346 18.245Z" fill="white"/>
<path fill-rule="evenodd" clip-rule="evenodd" d="M102.21 25.4881C101.225 26.5935 100.042 27.0297 98.4864 27.0297C97.1552 27.0297 96.0243 26.4722 95.1916 25.3763C94.3363 24.2508 93.7443 22.4797 93.7443 20.028C93.7443 17.6142 94.3733 15.8454 95.269 14.7097C96.1501 13.5926 97.3304 13.0263 98.6455 13.0263C99.9836 13.0263 101.039 13.4237 101.77 14.1316L101.828 14.1875L101.892 14.2356C102.48 14.6768 103.628 15.0726 104.455 14.1837C105.259 13.3195 104.833 12.2158 104.354 11.6567L104.304 11.5986L104.248 11.5468C102.842 10.258 100.933 9.52539 98.6455 9.52539C96.0897 9.52539 93.872 10.5832 92.3176 12.4826C90.7804 14.3608 89.957 16.9758 89.957 20.028C89.957 23.079 90.7319 25.6924 92.2269 27.5716C93.7445 29.4792 95.9297 30.5306 98.4864 30.5306C101.265 30.5306 103.322 29.4871 104.831 27.831C105.442 27.1779 105.754 25.9932 104.867 25.1826C103.953 24.3487 102.794 24.8215 102.21 25.4881Z" fill="white"/>
<path fill-rule="evenodd" clip-rule="evenodd" d="M84.1288 11.7804L84.1273 11.763C84.0192 10.4654 85.1554 9.68402 86.128 9.68402C87.1082 9.68402 88.202 10.5004 88.0968 11.763L88.0954 11.7804L88.0934 11.7978C88.0764 11.9509 88.0497 12.103 88.0336 12.1946C88.0298 12.2161 88.0266 12.2344 88.0242 12.2484C88.0095 12.3368 88.0057 12.3782 88.0057 12.4211V27.793C88.0057 27.8359 88.0095 27.8773 88.0242 27.9657C88.0266 27.9797 88.0298 27.998 88.0336 28.0195C88.0497 28.1111 88.0764 28.2632 88.0934 28.4163L88.0954 28.4337L88.0968 28.4512C88.202 29.7137 87.1082 30.5301 86.128 30.5301C85.1554 30.5301 84.0192 29.7487 84.1273 28.4512L84.1288 28.4337L84.1307 28.4163C84.1477 28.2632 84.1745 28.111 84.1906 28.0195C84.1944 27.9979 84.1976 27.9797 84.1999 27.9657C84.2147 27.8773 84.2184 27.8359 84.2184 27.793V12.4211C84.2184 12.3782 84.2147 12.3368 84.1999 12.2484C84.1976 12.2344 84.1944 12.2162 84.1906 12.1946C84.1745 12.1031 84.1477 11.9509 84.1307 11.7978L84.1288 11.7804ZM83.8047 5.80124C83.8047 4.44186 84.873 3.50977 86.128 3.50977C87.3774 3.50977 88.4195 4.46723 88.4195 5.80124C88.4195 7.09571 87.4785 8.18819 86.128 8.18819C85.5022 8.18819 84.9002 7.95171 84.4574 7.49006C84.0165 7.03045 83.8047 6.42347 83.8047 5.80124Z" fill="white"/>
<path fill-rule="evenodd" clip-rule="evenodd" d="M67.6023 19.1367V27.7933C67.6023 27.8362 67.6061 27.8776 67.6208 27.966C67.6232 27.98 67.6264 27.9983 67.6302 28.0198C67.6463 28.1114 67.673 28.2635 67.69 28.4166L67.692 28.434L67.6934 28.4514C67.7986 29.714 66.7049 30.5304 65.7246 30.5304C64.752 30.5304 63.6158 29.749 63.724 28.4514L63.7254 28.434L63.7274 28.4166C63.7444 28.2635 63.7711 28.1113 63.7872 28.0198C63.791 27.9982 63.7942 27.98 63.7966 27.966C63.8113 27.8776 63.815 27.8362 63.815 27.7933V5.9925C63.815 5.94588 63.8114 5.91758 63.792 5.82046C63.7905 5.81293 63.7888 5.80469 63.787 5.79578C63.7642 5.68358 63.7196 5.46445 63.7196 5.19685C63.7196 4.23266 64.4291 3.22363 65.661 3.22363C66.1212 3.22363 66.5177 3.37119 66.6963 3.44352C66.7232 3.44514 66.7597 3.44641 66.8067 3.44641H72.9173C75.6572 3.44641 77.9624 4.08265 79.606 5.42389C81.2863 6.79508 82.115 8.77288 82.115 11.0847C82.115 13.4416 81.3007 15.5078 79.6428 16.9688C78.0046 18.4126 75.6898 19.1367 72.9173 19.1367H67.6023ZM67.3154 16.9725H72.6945C72.7692 16.9725 72.8435 16.9718 72.9173 16.9705C76.8711 16.8995 79.6008 14.9275 79.6008 11.0847C79.6008 7.3668 76.8711 5.67314 72.9173 5.61229C72.8435 5.61115 72.7692 5.61058 72.6945 5.61058H67.3154V16.9725Z" fill="white"/>
<path fill-rule="evenodd" clip-rule="evenodd" d="M48.6513 31.4254L48.6532 31.408C48.6702 31.2549 48.697 31.1027 48.7131 31.0112C48.7169 30.9896 48.7201 30.9714 48.7224 30.9574C48.7371 30.8691 48.7409 30.8276 48.7409 30.7848V3.38255C48.7409 3.3397 48.7371 3.29826 48.7224 3.20992C48.7201 3.19588 48.7169 3.1777 48.7131 3.15616C48.697 3.06463 48.6702 2.91246 48.6532 2.75931L48.6513 2.7419L48.6498 2.72444C48.5417 1.42688 49.6779 0.645508 50.6505 0.645508C51.6307 0.645508 52.7245 1.46185 52.6193 2.72444L52.6178 2.7419L52.6159 2.75931C52.5989 2.9124 52.5721 3.06453 52.556 3.15606C52.5522 3.17765 52.549 3.19586 52.5467 3.20992C52.532 3.29826 52.5282 3.3397 52.5282 3.38255V12.7076H55.6153C56.0694 12.7076 56.531 12.8581 56.8882 13.199C57.2373 13.5322 57.4135 13.9809 57.4135 14.4262C57.4135 14.8715 57.2373 15.3201 56.8882 15.6534C56.531 15.9943 56.0694 16.1448 55.6153 16.1448H52.5282V30.7848C52.5282 30.8276 52.532 30.8691 52.5467 30.9574C52.549 30.9715 52.5522 30.9897 52.556 31.0113C52.5721 31.1028 52.5989 31.2549 52.6159 31.408L52.6178 31.4254L52.6193 31.4429C52.7245 32.7055 51.6307 33.5218 50.6505 33.5218C49.6779 33.5218 48.5417 32.7404 48.6498 31.4429L48.6513 31.4254ZM29.5352 23.1462L29.5412 23.1442C36.003 21.0618 42.2802 15.8925 42.2802 8.06098V6.88342H30.8865C30.4402 6.88342 29.9797 6.74301 29.6164 6.41125C29.2573 6.0834 29.0644 5.62926 29.0644 5.16481C29.0644 4.70035 29.2573 4.24622 29.6164 3.91836C29.9797 3.5866 30.4402 3.4462 30.8865 3.4462H42.8849C43.765 3.4462 44.6241 3.67942 45.2524 4.32384C45.8748 4.96217 46.0675 5.79638 46.0675 6.56515V8.22011C46.0675 17.9149 37.7075 24.189 30.5789 26.4581C30.16 26.5955 29.6731 26.6195 29.2107 26.4191C28.7408 26.2155 28.3984 25.8192 28.2621 25.3422C27.9676 24.3115 28.6625 23.4371 29.5291 23.1482L29.5352 23.1462Z" fill="white"/>
<path fill-rule="evenodd" clip-rule="evenodd" d="M3.48269 24.9079L3.4797 24.9059C1.56692 23.6308 0.748638 21.2931 0.748638 18.9455V5.86498C0.748638 5.82213 0.744877 5.78069 0.730155 5.69236C0.727814 5.67831 0.724614 5.66011 0.720823 5.63856C0.704724 5.54703 0.677961 5.39487 0.660947 5.24174L0.659012 5.22433L0.657558 5.20688C0.549428 3.90931 1.68563 3.12794 2.6582 3.12794C3.63846 3.12794 4.73224 3.94428 4.62702 5.20688L4.62556 5.22433L4.62363 5.24174C4.60662 5.39487 4.57985 5.54703 4.56375 5.63856C4.55996 5.66011 4.55676 5.67831 4.55442 5.69236C4.5397 5.78069 4.53594 5.82213 4.53594 5.86498V18.9137C4.53594 20.6232 4.99062 21.4841 5.50672 21.9112L5.51387 21.9171L5.52093 21.9231C6.16272 22.4702 7.21294 22.7862 8.50516 22.6593C9.78117 22.534 11.1946 21.9801 12.4349 20.9327L12.4409 20.9276L12.447 20.9226C12.7665 20.6595 13.194 20.4631 13.6864 20.4826C14.1851 20.5023 14.6251 20.7422 14.9123 21.1101C15.5085 21.874 15.3011 22.8703 14.6975 23.4738L14.6917 23.4796L14.6859 23.4853C13.1995 24.934 11.1786 25.7804 9.18985 26.0363C7.2103 26.291 5.10839 25.9785 3.48569 24.9099L3.48269 24.9079ZM15.2353 30.9799L15.2373 30.9625C15.2543 30.8093 15.2811 30.6571 15.2972 30.5656C15.301 30.5441 15.3041 30.5259 15.3065 30.5118C15.3212 30.4235 15.325 30.3821 15.325 30.3392V3.54168C15.325 3.49883 15.3212 3.45739 15.3065 3.36905C15.3041 3.35501 15.301 3.33683 15.2972 3.31529C15.2811 3.22377 15.2543 3.07159 15.2373 2.91844L15.2353 2.90103L15.2339 2.88357C15.1258 1.58601 16.262 0.804638 17.2345 0.804638C18.2148 0.804638 19.3086 1.62098 19.2034 2.88357L19.2019 2.90103L19.2 2.91844C19.1829 3.07159 19.1562 3.22377 19.1401 3.31529C19.1363 3.33683 19.1331 3.35501 19.1308 3.36905C19.116 3.45739 19.1123 3.49883 19.1123 3.54168V12.0392H22.2312V3.38255C22.2312 3.3397 22.2275 3.29826 22.2127 3.20992C22.2104 3.19588 22.2072 3.17771 22.2034 3.15617C22.1873 3.06464 22.1605 2.91247 22.1435 2.75931L22.1416 2.7419L22.1401 2.72444C22.032 1.42688 23.1682 0.645508 24.1408 0.645508C25.121 0.645508 26.2148 1.46185 26.1096 2.72444L26.1081 2.7419L26.1062 2.75931C26.0892 2.91243 26.0624 3.06458 26.0463 3.15611C26.0426 3.17767 26.0393 3.19587 26.037 3.20992C26.0223 3.29826 26.0185 3.3397 26.0185 3.38255V30.7848C26.0185 30.8276 26.0223 30.8691 26.037 30.9574C26.0393 30.9715 26.0426 30.9897 26.0463 31.0112C26.0624 31.1028 26.0892 31.2549 26.1062 31.408L26.1081 31.4254L26.1096 31.4429C26.2148 32.7055 25.121 33.5218 24.1408 33.5218C23.1682 33.5218 22.032 32.7404 22.1401 31.4429L22.1416 31.4254L22.1435 31.408C22.1605 31.2549 22.1873 31.1027 22.2034 31.0112C22.2072 30.9896 22.2104 30.9714 22.2127 30.9574C22.2275 30.8691 22.2312 30.8276 22.2312 30.7848V15.4764H19.1123V30.3392C19.1123 30.3821 19.116 30.4235 19.1308 30.5118C19.1331 30.5259 19.1363 30.5441 19.1401 30.5656C19.1562 30.6571 19.1829 30.8093 19.2 30.9625L19.2019 30.9799L19.2034 30.9973C19.3086 32.2599 18.2148 33.0763 17.2345 33.0763C16.262 33.0763 15.1258 32.2949 15.2339 30.9973L15.2353 30.9799Z" fill="white"/>
</svg>
