<svg width="327" height="195" viewBox="0 0 327 195" fill="none" xmlns="http://www.w3.org/2000/svg">
<path fill-rule="evenodd" clip-rule="evenodd" d="M326.824 184.193L326.83 184.262C327.31 190.018 322.283 193.888 317.637 193.888C312.954 193.888 307.761 190.155 308.252 184.262L308.258 184.194L308.265 184.125C308.357 183.302 308.495 182.513 308.593 181.953C308.62 181.804 308.643 181.672 308.662 181.559C308.761 180.963 308.809 180.551 308.809 180.084V137.619H210.076C207.941 137.619 205.846 136.952 204.228 135.474C202.627 134.012 201.774 131.996 201.774 129.94C201.774 127.883 202.627 125.867 204.228 124.405C205.846 122.928 207.941 122.26 210.076 122.26H309.79C314.641 122.26 319.011 123.541 322.126 126.736C325.218 129.907 326.273 134.146 326.273 138.361V180.084C326.273 180.551 326.321 180.963 326.42 181.559C326.439 181.672 326.463 181.804 326.489 181.953C326.587 182.514 326.725 183.302 326.817 184.125L326.824 184.193ZM289.311 83.9823C291.46 83.9823 293.547 84.6896 295.132 86.2028C296.686 87.686 297.469 89.6804 297.469 91.6618C297.469 93.6431 296.686 95.6375 295.132 97.1207C293.547 98.6339 291.46 99.3412 289.311 99.3412H182.515C180.367 99.3412 178.28 98.6339 176.695 97.1207C175.141 95.6375 174.357 93.6431 174.357 91.6618C174.357 89.6804 175.141 87.686 176.695 86.2028C178.28 84.6896 180.367 83.9823 182.515 83.9823H289.311ZM308.258 109.169L308.265 109.1C308.357 108.277 308.495 107.488 308.593 106.928C308.62 106.779 308.643 106.647 308.662 106.534C308.761 105.938 308.809 105.526 308.809 105.059V15.4885C308.809 15.0215 308.761 14.6097 308.662 14.0138C308.643 13.9009 308.62 13.7682 308.593 13.6195C308.495 13.0592 308.357 12.2706 308.265 11.4473L308.258 11.3789L308.252 11.3104C307.761 5.41739 312.954 1.68457 317.637 1.68457C322.283 1.68457 327.31 5.55472 326.83 11.3104L326.824 11.3789L326.817 11.4473C326.725 12.2706 326.587 13.0592 326.489 13.6195C326.463 13.7682 326.439 13.9009 326.42 14.0139C326.321 14.6097 326.273 15.0215 326.273 15.4885V106.207C326.273 106.391 326.281 106.481 326.284 106.508C326.287 106.521 326.293 106.546 326.306 106.592C326.309 106.604 326.315 106.625 326.323 106.652C326.366 106.8 326.466 107.151 326.546 107.493C326.654 107.958 326.747 108.476 326.817 109.1L326.824 109.169L326.83 109.237C327.31 114.993 322.283 118.863 317.637 118.863C312.954 118.863 307.761 115.13 308.252 109.237L308.258 109.169ZM179.757 16.9196C181.342 15.4064 183.429 14.6991 185.578 14.6991H286.249C288.397 14.6991 290.484 15.4064 292.07 16.9196C293.623 18.4028 294.407 20.3972 294.407 22.3786C294.407 24.3599 293.623 26.3543 292.07 27.8375C290.484 29.3507 288.397 30.058 286.249 30.058H185.578C183.429 30.058 181.342 29.3507 179.757 27.8375C178.203 26.3543 177.42 24.3599 177.42 22.3786C177.42 20.3972 178.203 18.4028 179.757 16.9196Z" fill="white"/>
<path fill-rule="evenodd" clip-rule="evenodd" d="M6.21607 97.6721L6.22761 97.6672C14.7053 94.0208 25.3583 88.2114 35.1187 80.5441C41.3433 75.6544 47.0642 70.1198 51.637 64.0361C39.1028 65.7408 26.6518 66.84 14.2088 67.4121L14.0624 67.4188H13.9158C8.64032 67.4188 4.46625 63.6181 4.28658 58.5874C4.20293 56.245 5.04751 53.812 6.90155 51.9798C8.74875 50.1544 11.1629 49.3387 13.554 49.3019C29.3753 48.602 45.3589 46.9392 61.2053 44.3135C61.9305 41.3465 62.2737 38.2534 62.2737 35.0101V31.6289H15.4469C13.0271 31.6289 10.5818 30.8694 8.66921 29.1232C6.77801 27.3964 5.76579 25.0089 5.76579 22.5697C5.76579 20.1305 6.77801 17.7431 8.66921 16.0163C10.5818 14.27 13.0271 13.5106 15.4469 13.5106H64.6342C69.7146 13.5106 74.4984 14.8548 77.9581 18.4032C81.388 21.9211 82.4972 26.5641 82.4972 30.9909V35.2015C82.4972 55.8087 70.7973 73.0715 56.9101 86.0579C42.9564 99.1065 25.9934 108.621 13.4953 113.82L13.4328 113.846L13.3697 113.871C9.51067 115.381 3.66075 115.147 0.966029 110.095C-0.371871 107.586 -0.277039 104.695 0.984398 102.296C2.18314 100.016 4.196 98.5504 6.20455 97.6771L6.21607 97.6721ZM45.8732 118.93C44.9133 118.537 42.6218 117.627 39.9449 117.627C33.357 117.627 29.546 123.002 29.546 128.217C29.546 129.693 29.7907 130.898 29.9272 131.57C29.9378 131.622 29.9478 131.671 29.957 131.717C30.0782 132.323 30.1202 132.593 30.1202 133.002V162.093C30.1202 168.338 31.5975 173.947 34.9434 178.676C38.2632 183.368 43.0322 186.641 48.6624 188.935C59.6239 193.4 75.2594 194.693 94.491 194.693C113.632 194.693 129.262 193.399 140.243 188.937C145.88 186.646 150.665 183.378 154.001 178.691C157.366 173.964 158.862 168.35 158.862 162.093V136.447C158.862 132.02 157.753 127.377 154.323 123.859C150.863 120.311 146.079 118.967 140.999 118.967H46.8349C46.521 118.967 46.2706 118.958 46.078 118.946C45.9975 118.941 45.9295 118.935 45.8732 118.93ZM95.9877 104.442L95.9974 104.354C96.0944 103.481 96.2443 102.627 96.3421 102.071C96.3665 101.932 96.3877 101.811 96.404 101.713C96.4977 101.151 96.5325 100.824 96.5325 100.465V16.4452C96.5325 16.087 96.4977 15.7596 96.404 15.1974C96.3877 15.0996 96.3665 14.9791 96.3421 14.84C96.2443 14.2833 96.0944 13.4299 95.9974 12.5564L95.9877 12.4692L95.9804 12.3817C95.4066 5.49636 101.451 1.26164 106.74 1.26164C112.035 1.26164 117.867 5.67158 117.308 12.3817L117.301 12.4692L117.291 12.5564C117.194 13.43 117.044 14.2835 116.946 14.8403C116.922 14.9792 116.901 15.0997 116.885 15.1974C116.791 15.7597 116.756 16.087 116.756 16.4452V45.8555H138.447V15.4883C138.447 15.13 138.412 14.8027 138.318 14.2404C138.302 14.1427 138.281 14.0223 138.257 13.8833C138.159 13.3266 138.009 12.4731 137.912 11.5994L137.902 11.5122L137.895 11.4247C137.321 4.53943 143.366 0.304688 148.654 0.304688C153.95 0.304688 159.782 4.71464 159.223 11.4247L159.215 11.5122L159.206 11.5994C159.109 12.4729 158.959 13.3263 158.861 13.8831C158.836 14.0221 158.815 14.1427 158.799 14.2404C158.705 14.8027 158.67 15.13 158.67 15.4883V103.145C158.67 103.503 158.705 103.831 158.799 104.393C158.815 104.491 158.836 104.611 158.861 104.75C158.959 105.307 159.109 106.16 159.206 107.034L159.215 107.121L159.223 107.208C159.782 113.919 153.95 118.329 148.654 118.329C143.366 118.329 137.321 114.094 137.895 107.208L137.902 107.121L137.912 107.034C138.009 106.16 138.159 105.307 138.257 104.75C138.281 104.611 138.302 104.491 138.318 104.393C138.412 103.831 138.447 103.503 138.447 103.145V63.9738H116.756V100.465C116.756 100.824 116.791 101.151 116.885 101.713C116.901 101.811 116.922 101.931 116.946 102.07C117.044 102.627 117.194 103.481 117.291 104.354L117.301 104.442L117.308 104.529C117.867 111.239 112.035 115.649 106.74 115.649C101.451 115.649 95.4066 111.414 95.9804 104.529L95.9877 104.442Z" fill="white"/>
<path fill-rule="evenodd" clip-rule="evenodd" d="M130.389 157.995C130.406 157.49 130.414 156.981 130.414 156.469C130.414 141.217 122.828 128.854 113.47 128.854C104.112 128.854 96.5254 141.217 96.5254 156.469C96.5254 171.72 104.112 184.084 113.47 184.084C120.379 184.084 126.322 177.346 128.959 167.682L106.883 163.259L130.389 157.995Z" fill="#7CB45B"/>
<path fill-rule="evenodd" clip-rule="evenodd" d="M91.1469 157.995C91.1637 157.49 91.1723 156.981 91.1723 156.469C91.1723 141.217 83.586 128.854 74.2277 128.854C64.8695 128.854 57.2832 141.217 57.2832 156.469C57.2832 171.72 64.8695 184.084 74.2277 184.084C81.1364 184.084 87.0793 177.346 89.7172 167.682L67.6409 163.259L91.1469 157.995Z" fill="#7CB45B"/>
<path fill-rule="evenodd" clip-rule="evenodd" d="M258.398 75.4413C257.832 75.6823 257.248 75.8086 256.65 75.8086C251.68 75.8086 247.65 67.0781 247.65 56.3086C247.65 45.539 251.68 36.8086 256.65 36.8086C256.908 36.8086 257.164 36.8321 257.416 36.8782C254.662 33.521 251.398 31.8086 248.15 31.8086C244.37 31.8086 240.568 34.129 237.572 38.6634C234.592 43.1742 232.65 49.5809 232.65 56.8086C232.65 64.0363 234.592 70.443 237.572 74.9538C240.568 79.4882 244.37 81.8086 248.15 81.8086C251.793 81.8086 255.456 79.6544 258.398 75.4413ZM266.65 56.8086C266.65 72.2726 258.368 84.8086 248.15 84.8086C237.933 84.8086 229.65 72.2726 229.65 56.8086C229.65 41.3446 237.933 28.8086 248.15 28.8086C258.368 28.8086 266.65 41.3446 266.65 56.8086Z" fill="white"/>
<path fill-rule="evenodd" clip-rule="evenodd" d="M234.398 75.4413C233.832 75.6823 233.248 75.8086 232.65 75.8086C227.68 75.8086 223.65 67.0781 223.65 56.3086C223.65 45.539 227.68 36.8086 232.65 36.8086C232.908 36.8086 233.164 36.8321 233.416 36.8782C230.662 33.521 227.398 31.8086 224.15 31.8086C220.37 31.8086 216.568 34.129 213.572 38.6634C210.592 43.1742 208.65 49.5809 208.65 56.8086C208.65 64.0363 210.592 70.443 213.572 74.9538C216.568 79.4882 220.37 81.8086 224.15 81.8086C227.793 81.8086 231.456 79.6544 234.398 75.4413ZM242.65 56.8086C242.65 72.2726 234.368 84.8086 224.15 84.8086C213.933 84.8086 205.65 72.2726 205.65 56.8086C205.65 41.3446 213.933 28.8086 224.15 28.8086C234.368 28.8086 242.65 41.3446 242.65 56.8086Z" fill="white"/>
</svg>
