<svg width="70" height="44" viewBox="0 0 70 44" fill="none" xmlns="http://www.w3.org/2000/svg">
<path fill-rule="evenodd" clip-rule="evenodd" d="M49.7272 0.394531H16.4828L0.984018 39.3617C0.61481 40.29 1.06802 41.3418 1.99629 41.711C2.92456 42.0802 3.97637 41.627 4.34558 40.6987L16.3544 10.5059V41.3048C16.3544 42.0541 16.9618 42.6614 17.7111 42.6614C18.4603 42.6614 19.0677 42.0541 19.0677 41.3048V10.7356L31.4789 41.1399C31.8564 42.0648 32.9123 42.5086 33.8372 42.131C34.7621 41.7535 35.2058 40.6976 34.8283 39.7727L20.2307 4.01223H47.4572L65.8534 42.0921C66.288 42.9917 67.3695 43.3686 68.269 42.934C69.1686 42.4995 69.5455 41.418 69.1109 40.5185L49.7272 0.394531ZM49.3783 18.3728C50.3004 17.9886 51.3595 18.4247 51.7437 19.3468L54.6135 26.2343C55.3582 28.0215 54.0451 29.9912 52.109 29.9912H39.1016C38.0739 29.9912 37.1344 29.4105 36.6747 28.4913L32.8548 20.8515C32.4081 19.9579 32.7702 18.8714 33.6638 18.4246C34.5573 17.9779 35.6438 18.34 36.0906 19.2336L39.6605 26.3735H50.7523L48.4043 20.7382C48.0201 19.8161 48.4561 18.757 49.3783 18.3728Z" fill="#E3F1DB"/>
</svg>
