<svg width="543" height="494" viewBox="0 0 543 494" fill="none" xmlns="http://www.w3.org/2000/svg">
<path fill-rule="evenodd" clip-rule="evenodd" d="M91.4363 412.918C94.9786 411.45 100.45 409.506 104.958 408.911C106.042 408.768 106.997 408.334 107.696 407.595C108.398 406.854 108.779 405.873 108.834 404.756C108.943 402.562 107.81 399.798 105.325 396.766C100.329 390.669 89.4974 383.022 69.8539 375.866C45.8697 367.13 32.8144 358.733 26.9689 353.575C33.2441 356.723 41.4952 360.719 49.3807 364.238C57.9133 368.047 66.1128 371.343 70.9027 372.363C83.405 375.028 103.645 385.133 116.158 399.644C119.471 403.486 125.905 407.161 133.614 410.553C141.364 413.964 150.553 417.151 159.515 419.96C168.481 422.771 177.241 425.211 184.137 427.125L184.701 427.282C187.913 428.173 190.693 428.945 192.875 429.583C195.213 430.266 196.787 430.774 197.484 431.097C198.932 431.769 199.707 432.527 200.001 433.121C200.142 433.406 200.164 433.632 200.134 433.804C200.104 433.973 200.012 434.166 199.791 434.367C199.323 434.793 198.317 435.21 196.584 435.268C194.878 435.326 192.583 435.031 189.684 434.175L167.588 427.65C160.26 425.486 153.466 427.101 149.614 428.757C149.611 428.758 149.605 428.761 149.589 428.758C149.569 428.754 149.542 428.743 149.516 428.722C149.504 428.711 149.496 428.702 149.491 428.695C150.439 425.448 148.584 422.028 145.307 421.114C138.894 419.324 130.596 417.177 122.994 415.575C119.194 414.775 115.556 414.108 112.409 413.691C109.281 413.276 106.57 413.098 104.655 413.308C98.8393 413.946 94.2315 413.483 91.4363 412.918ZM147.716 428.192C147.478 428.999 147.838 429.729 148.344 430.146C148.845 430.558 149.607 430.767 150.343 430.451C153.927 428.91 160.267 427.411 167.065 429.419L189.162 435.944C192.191 436.839 194.689 437.178 196.646 437.112C198.574 437.047 200.099 436.583 201.034 435.73C201.515 435.292 201.842 434.745 201.951 434.121C202.059 433.499 201.938 432.877 201.655 432.304C201.1 431.182 199.903 430.186 198.26 429.424C197.41 429.03 195.688 428.483 193.393 427.812C191.198 427.171 188.406 426.396 185.201 425.506L184.631 425.348C177.734 423.434 169 421.001 160.067 418.2C151.131 415.399 142.016 412.236 134.357 408.865C126.654 405.476 120.571 401.938 117.555 398.44C104.753 383.593 84.142 373.299 71.2871 370.559C66.7182 369.586 58.6936 366.375 50.1325 362.554C41.6032 358.747 32.6356 354.377 26.2261 351.136C25.5103 350.774 24.6334 350.849 24.1162 351.489C23.5688 352.167 23.7474 353.063 24.3393 353.647C29.6471 358.885 43.079 368.076 69.2226 377.599C88.7272 384.704 99.2034 392.206 103.898 397.935C106.259 400.815 107.068 403.134 106.992 404.664C106.955 405.41 106.712 405.951 106.357 406.327C105.998 406.706 105.46 406.984 104.716 407.083C98.7207 407.874 91.2574 410.889 88.2821 412.289L86.3286 413.208L88.3431 413.984C90.4346 414.79 96.5037 416.057 104.856 415.142C106.538 414.958 109.064 415.108 112.167 415.519C115.25 415.928 118.838 416.585 122.614 417.38C130.164 418.971 138.421 421.107 144.811 422.89C147.086 423.525 148.39 425.909 147.716 428.192Z" fill="white"/>
<path d="M35.2977 371.488C38.4258 372.633 42.5964 374.158 46.3154 375.256C54.2843 377.611 58.6277 383.019 63.8773 378.378C74.8136 368.71 69.8717 360.035 66.462 355.933C63.0522 351.832 55.6957 353.27 43.6161 349.187C31.5366 345.104 27.9997 368.817 35.2977 371.488Z" fill="white"/>
<path fill-rule="evenodd" clip-rule="evenodd" d="M46.3868 368.934C45.3395 368.527 44.2914 368.121 43.2844 367.762C40.5555 366.788 39.2167 365.336 38.5635 364.055C37.8824 362.72 37.8778 361.439 38.0225 360.779C38.2407 359.784 37.6109 358.8 36.6158 358.582C35.6207 358.364 34.6372 358.994 34.419 359.989C34.1016 361.436 34.187 363.595 35.2773 365.732C36.3956 367.924 38.5097 369.975 42.0449 371.236C42.9954 371.575 43.9969 371.963 45.0486 372.372C45.128 372.403 45.2077 372.434 45.2876 372.465C46.2586 372.844 47.2686 373.237 48.2829 373.609C50.4656 374.411 52.7748 375.159 54.9745 375.498C57.1601 375.834 59.4508 375.802 61.4614 374.819C63.549 373.797 65.0352 371.9 65.8517 369.135C66.1402 368.158 65.582 367.132 64.605 366.844C63.628 366.555 62.6021 367.113 62.3136 368.09C61.7239 370.087 60.8085 371.031 59.84 371.505C58.7945 372.016 57.3747 372.135 55.536 371.852C53.7116 371.571 51.6829 370.928 49.5552 370.147C48.5757 369.787 47.5978 369.406 46.6204 369.025C46.5425 368.995 46.4646 368.965 46.3868 368.934Z" fill="#7CB45B"/>
<circle cx="25" cy="223.294" r="7" fill="white"/>
<circle cx="173" cy="390.296" r="15" fill="white"/>
<path fill-rule="evenodd" clip-rule="evenodd" d="M482.062 344.977L483.851 345.636C487.067 346.821 489.106 349.24 490.26 352.294C491.403 355.32 491.691 358.991 491.446 362.814C490.955 370.465 488.312 379.017 485.605 384.965C484.287 387.862 483.794 389.833 483.771 391.025C483.759 391.622 483.868 391.919 483.945 392.04C483.992 392.113 484.023 392.132 484.115 392.136C484.26 392.142 484.538 392.089 484.951 391.853C485.353 391.624 485.821 391.257 486.319 390.743C487.316 389.715 488.372 388.165 489.228 386.172C490.787 382.543 493.273 381.043 495.809 380.78C498.253 380.527 500.603 381.436 502.028 382.33L503.162 383.042L502.119 383.88C499.517 385.973 497.99 388.041 497.069 390.24C496.141 392.454 495.8 394.863 495.665 397.691C495.599 399.077 495.583 400.562 495.566 402.16C495.515 407.036 495.453 412.96 493.902 420.313C492.18 428.478 485.854 433.442 478.88 436.331C471.904 439.221 464.104 440.116 459.035 440.059L458.87 440.057L452 438.297L449.956 436.72C436.486 426.038 433.883 413.197 435.568 402.081C437.242 391.039 443.135 381.705 446.673 377.78C452.121 371.738 454.188 367.255 454.535 365.917L454.934 364.379L456.103 365.455C458.634 367.783 461.501 374.481 455.573 383.691C451.183 390.513 452.544 396.822 454.43 400.418C455.626 393.609 459.999 381.431 470.913 371.39C483.028 360.244 483.611 350.162 482.608 346.803L482.062 344.977ZM484.791 348.206C485.255 353.293 483.085 362.783 472.204 372.793C460.107 383.922 456.366 397.747 456.002 403.154L455.843 405.516L454.321 403.703C451.657 400.53 447.979 391.969 453.97 382.659C458.52 375.59 457.32 370.5 455.769 368.039C454.717 370.383 452.378 374.3 448.089 379.057C444.753 382.758 439.061 391.759 437.453 402.367C435.862 412.868 438.261 424.949 451.022 435.132L459.22 438.154C464.104 438.188 471.542 437.307 478.151 434.57C484.836 431.8 490.498 427.214 492.037 419.919C493.545 412.77 493.605 407.114 493.656 402.264C493.673 400.626 493.69 399.08 493.761 397.6C493.9 394.687 494.256 392.019 495.31 389.503C496.226 387.319 497.646 385.296 499.825 383.329C498.722 382.861 497.356 382.537 496.005 382.676C494.202 382.863 492.285 383.888 490.98 386.925C490.046 389.098 488.869 390.852 487.688 392.07C487.098 392.678 486.492 393.169 485.896 393.509C485.312 393.842 484.67 394.068 484.033 394.041C483.343 394.011 482.733 393.682 482.34 393.069C481.978 392.504 481.849 391.777 481.865 390.987C481.895 389.405 482.516 387.151 483.87 384.175C486.509 378.378 489.071 370.054 489.543 362.692C489.779 359.01 489.487 355.641 488.477 352.968C487.699 350.911 486.506 349.28 484.791 348.206Z" fill="white"/>
<path fill-rule="evenodd" clip-rule="evenodd" d="M472.436 405.046L472.024 405.852C471.127 407.607 470.011 410.366 469.572 412.935C469.353 414.221 469.308 415.426 469.523 416.422C469.735 417.409 470.194 418.161 470.968 418.618L471.006 418.641L471.04 418.67C471.902 419.427 473.102 420.735 473.909 422.221C474.709 423.691 475.189 425.461 474.372 427.04C474.251 427.274 473.964 427.365 473.73 427.244C473.496 427.123 473.405 426.836 473.526 426.602C474.121 425.45 473.822 424.054 473.072 422.676C472.341 421.331 471.242 420.123 470.443 419.415C469.407 418.787 468.84 417.78 468.591 416.623C468.341 415.461 468.403 414.122 468.633 412.775C469.028 410.463 469.935 408.035 470.769 406.25C466.883 406.986 464.002 409.087 461.955 411.488C459.749 414.076 458.525 416.998 458.078 418.878L457.981 419.286L457.563 419.241C455.77 419.046 454.82 417.897 454.382 416.613C454.111 415.818 454.027 414.957 454.044 414.198C449.463 418.309 449.845 423.086 450.616 424.989C450.715 425.233 450.597 425.511 450.353 425.61C450.109 425.709 449.831 425.591 449.732 425.347C448.777 422.986 448.456 417.269 454.334 412.717L455.307 411.962L455.095 413.176C454.951 414 454.923 415.247 455.284 416.305C455.598 417.226 456.188 417.973 457.262 418.225C457.813 416.223 459.077 413.395 461.23 410.87C463.549 408.149 466.915 405.764 471.538 405.162L472.436 405.046Z" fill="white"/>
<path fill-rule="evenodd" clip-rule="evenodd" d="M502.255 426.397C500.74 424.169 497.595 423.42 492.521 423.912C491.997 423.962 491.531 423.579 491.48 423.055C491.429 422.531 491.813 422.065 492.337 422.014C497.448 421.519 501.657 422.128 503.832 425.325C504.54 426.365 505.015 428.026 505.046 429.803C505.077 431.601 504.655 433.634 503.431 435.401C500.921 439.025 495.428 441.062 485.257 438.6C481.998 437.812 480.026 437.46 478.875 437.347C478.88 437.377 478.885 437.411 478.889 437.448L490.231 445.072L490.311 445.162C491.286 446.256 492.498 448.13 492.966 450.248C493.444 452.412 493.144 454.887 490.98 456.919C488.623 459.132 486.775 460.295 484.669 460.298C483.637 460.299 482.622 460.021 481.549 459.575C480.481 459.131 479.297 458.495 477.93 457.738C475.669 456.486 470.711 452.984 465.484 449.068C460.239 445.138 454.648 440.732 451.099 437.632C450.703 437.286 450.662 436.684 451.008 436.287C451.355 435.891 451.957 435.85 452.354 436.196C455.85 439.25 461.398 443.623 466.628 447.542C471.876 451.475 476.728 454.893 478.854 456.07C480.229 456.832 481.325 457.417 482.28 457.815C483.23 458.209 483.982 458.392 484.666 458.391C485.992 458.389 487.369 457.694 489.674 455.529C491.239 454.06 491.473 452.328 491.105 450.659C490.737 448.996 489.772 447.452 488.965 446.518L474.819 437.01L475.777 435.366C476.101 435.528 476.388 435.673 476.641 435.801C476.884 435.589 477.173 435.502 477.392 435.459C477.637 435.41 477.919 435.394 478.23 435.399C479.447 435.417 481.698 435.778 485.705 436.747C495.589 439.139 500.03 436.964 501.864 434.316C502.812 432.947 503.165 431.329 503.139 429.836C503.113 428.321 502.701 427.051 502.255 426.397ZM478.066 436.379C478.062 436.373 478.063 436.374 478.068 436.382C478.067 436.381 478.067 436.38 478.066 436.379Z" fill="white"/>
<path fill-rule="evenodd" clip-rule="evenodd" d="M433.269 396.588C434.806 398.384 436.006 400.963 436.647 402.768C436.824 403.264 436.565 403.809 436.068 403.986C435.572 404.162 435.676 405.293 435.5 404.797C434.895 403.094 433.142 399.371 431.821 397.827C431.156 397.051 430.515 396.567 429.942 396.389C429.441 396.234 428.909 396.28 428.274 396.791C426.205 398.454 424.273 400.84 423.504 403.4C422.755 405.89 423.082 408.587 425.597 411.124C429.836 415.4 434.64 419.434 436.735 421.096C437.798 421.149 438.731 421.204 439.434 421.251C439.96 421.286 440.035 421.772 440 422.297C439.965 422.822 439.832 423.189 439.307 423.153C438.55 423.102 437.517 423.042 436.338 422.986C433.162 422.835 428.992 422.718 426.322 422.892C423.9 423.05 422.381 423.151 421.117 424.004C419.878 424.84 418.728 426.528 417.566 430.36C417.157 431.708 417.287 432.762 417.698 433.612C418.121 434.485 418.886 435.233 419.897 435.859C421.926 437.115 424.709 437.728 426.682 437.89L457.396 438.554C457.922 438.566 458.34 439.002 458.328 439.528C461 439.797 457.881 440.472 457.354 440.46L426.584 439.795L426.557 439.792C424.42 439.621 421.287 438.961 418.893 437.48C417.688 436.734 416.612 435.743 415.982 434.442C415.341 433.119 415.208 431.566 415.742 429.807C416.935 425.872 418.246 423.641 420.05 422.424C421.753 421.275 423.755 421.146 425.907 421.008C426.004 421.002 426.101 420.996 426.198 420.99C428.206 420.859 430.981 420.886 433.563 420.968C431.088 418.9 427.505 415.757 424.242 412.466C421.203 409.399 420.742 405.963 421.678 402.852C422.592 399.81 424.816 397.124 427.079 395.305C428.178 394.422 429.364 394.213 430.507 394.569C431.578 394.901 432.505 395.694 433.269 396.588Z" fill="white"/>
<path fill-rule="evenodd" clip-rule="evenodd" d="M426.763 429.315C425.983 429.013 425.158 428.878 424.551 428.87C424.025 428.863 423.604 428.43 423.611 427.903C423.618 427.377 424.051 426.956 424.578 426.964C425.403 426.975 426.453 427.151 427.451 427.537C428.442 427.92 429.476 428.547 430.147 429.528C430.846 430.551 431.075 431.851 430.615 433.373C430.169 434.852 429.08 436.529 427.196 438.448C426.828 438.824 426.224 438.829 425.848 438.46C425.473 438.092 425.467 437.488 425.836 437.112C427.613 435.301 428.469 433.885 428.79 432.822C429.098 431.802 428.918 431.109 428.573 430.604C428.198 430.056 427.551 429.619 426.763 429.315Z" fill="white"/>
<path fill-rule="evenodd" clip-rule="evenodd" d="M479.897 450.246C478.71 451.232 477.933 453.098 477.587 454.916C477.488 455.434 476.989 455.773 476.472 455.675C475.955 455.576 475.616 455.077 475.714 454.56C476.091 452.581 476.986 450.186 478.679 448.779C479.553 448.053 480.64 447.593 481.931 447.611C483.204 447.628 484.585 448.109 486.076 449.095C486.515 449.385 486.636 449.977 486.345 450.416C486.055 450.855 485.463 450.976 485.024 450.685C483.738 449.834 482.708 449.528 481.905 449.517C481.119 449.506 480.464 449.776 479.897 450.246Z" fill="white"/>
<circle cx="476.955" cy="75.3107" r="6.96837" transform="rotate(29.7305 476.955 75.3107)" stroke="white" stroke-width="6"/>
<circle cx="476.954" cy="75.3084" r="13.8585" transform="rotate(29.7305 476.954 75.3084)" stroke="white" stroke-width="2"/>
<path fill-rule="evenodd" clip-rule="evenodd" d="M461.036 31.4659L454.484 27.724L451.811 32.4041L458.363 36.1459L461.036 31.4659ZM453.681 24.7829L449.407 32.2674L449.269 32.1888L447.533 31.197L446.541 32.9337L438.177 47.5783L434.168 45.9088L428.555 55.7368L431.897 58.5759L425.004 70.6445L424.013 72.3812L425.749 73.373L476.429 102.316L497.158 114.154L498.895 115.146L499.887 113.409L516.215 84.8187L519.342 85.8605L522.015 81.1805L524.688 76.5004L522.201 74.3358L524.63 70.0826L525.622 68.3458L523.885 67.354L481.162 42.9548L477.505 48.3143L473.74 46.1641L476.413 41.4837L466.117 35.6037L463.444 40.2841L459.703 38.1475L463.977 30.663L453.681 24.7829ZM478.117 50.9667L476.514 50.051L448.277 33.9256L439.914 48.5701L439.038 50.1033L437.409 49.4246L435.029 48.4338L431.115 55.2873L433.192 57.0517L434.457 58.1264L433.633 59.5677L426.741 71.6363L477.421 100.579L498.15 112.417L514.478 83.8269L515.291 82.4031L516.847 82.9212L518.419 83.4449L520.278 80.1886L522.138 76.9324L520.888 75.8443L519.651 74.7677L520.465 73.344L522.894 69.0907L481.773 45.6072L479.157 49.4415L478.117 50.9667ZM466.92 38.5448L473.472 42.2866L472.403 44.1586L465.851 40.4168L466.92 38.5448Z" fill="white"/>
<circle cx="476.955" cy="75.3078" r="18.402" transform="rotate(29.7305 476.955 75.3078)" stroke="white" stroke-width="2"/>
<rect x="450.154" y="36.917" width="10.6932" height="37.5307" rx="2" transform="rotate(29.8781 450.154 36.917)" fill="white"/>
<circle cx="507" cy="262.294" r="7" fill="white"/>
<circle cx="388.5" cy="419.794" r="4.5" fill="white"/>
<circle cx="525" cy="382.294" r="8" fill="white"/>
<path fill-rule="evenodd" clip-rule="evenodd" d="M435.824 340.193L435.83 340.262C436.31 346.018 431.283 349.888 426.637 349.888C421.954 349.888 416.761 346.155 417.252 340.262L417.258 340.194L417.265 340.125C417.357 339.302 417.495 338.513 417.593 337.953C417.62 337.804 417.643 337.672 417.662 337.559C417.761 336.963 417.809 336.551 417.809 336.084V293.619H319.076C316.941 293.619 314.846 292.952 313.228 291.474C311.627 290.012 310.774 287.996 310.774 285.94C310.774 283.883 311.627 281.867 313.228 280.405C314.846 278.928 316.941 278.26 319.076 278.26H418.79C423.641 278.26 428.011 279.541 431.126 282.736C434.218 285.907 435.273 290.146 435.273 294.361V336.084C435.273 336.551 435.321 336.963 435.42 337.559C435.439 337.672 435.463 337.804 435.489 337.953C435.587 338.514 435.725 339.302 435.817 340.125L435.824 340.193ZM398.311 239.982C400.46 239.982 402.547 240.69 404.132 242.203C405.686 243.686 406.469 245.68 406.469 247.662C406.469 249.643 405.686 251.638 404.132 253.121C402.547 254.634 400.46 255.341 398.311 255.341H291.515C289.367 255.341 287.28 254.634 285.695 253.121C284.141 251.638 283.357 249.643 283.357 247.662C283.357 245.68 284.141 243.686 285.695 242.203C287.28 240.69 289.367 239.982 291.515 239.982H398.311ZM417.258 265.169L417.265 265.1C417.357 264.277 417.495 263.488 417.593 262.928C417.62 262.779 417.643 262.647 417.662 262.534C417.761 261.938 417.809 261.526 417.809 261.059V171.489C417.809 171.021 417.761 170.61 417.662 170.014C417.643 169.901 417.62 169.768 417.593 169.62C417.495 169.059 417.357 168.271 417.265 167.447L417.258 167.379L417.252 167.31C416.761 161.417 421.954 157.685 426.637 157.685C431.283 157.685 436.31 161.555 435.83 167.31L435.824 167.379L435.817 167.447C435.725 168.271 435.587 169.059 435.489 169.619C435.463 169.768 435.439 169.901 435.42 170.014C435.321 170.61 435.273 171.021 435.273 171.489V262.207C435.273 262.391 435.281 262.481 435.284 262.508C435.287 262.521 435.293 262.546 435.306 262.592C435.309 262.604 435.315 262.625 435.323 262.652C435.366 262.8 435.466 263.151 435.546 263.493C435.654 263.958 435.747 264.476 435.817 265.1L435.824 265.169L435.83 265.237C436.31 270.993 431.283 274.863 426.637 274.863C421.954 274.863 416.761 271.13 417.252 265.237L417.258 265.169ZM288.757 172.92C290.342 171.406 292.429 170.699 294.578 170.699H395.249C397.397 170.699 399.484 171.406 401.07 172.92C402.623 174.403 403.407 176.397 403.407 178.379C403.407 180.36 402.623 182.354 401.07 183.837C399.484 185.351 397.397 186.058 395.249 186.058H294.578C292.429 186.058 290.342 185.351 288.757 183.837C287.203 182.354 286.42 180.36 286.42 178.379C286.42 176.397 287.203 174.403 288.757 172.92Z" fill="white"/>
<path fill-rule="evenodd" clip-rule="evenodd" d="M115.216 253.672L115.228 253.667C123.705 250.021 134.358 244.211 144.119 236.544C150.343 231.654 156.064 226.12 160.637 220.036C148.103 221.741 135.652 222.84 123.209 223.412L123.062 223.419H122.916C117.64 223.419 113.466 219.618 113.287 214.587C113.203 212.245 114.048 209.812 115.902 207.98C117.749 206.154 120.163 205.339 122.554 205.302C138.375 204.602 154.359 202.939 170.205 200.313C170.931 197.346 171.274 194.253 171.274 191.01V187.629H124.447C122.027 187.629 119.582 186.869 117.669 185.123C115.778 183.396 114.766 181.009 114.766 178.57C114.766 176.131 115.778 173.743 117.669 172.016C119.582 170.27 122.027 169.511 124.447 169.511H173.634C178.715 169.511 183.498 170.855 186.958 174.403C190.388 177.921 191.497 182.564 191.497 186.991V191.201C191.497 211.809 179.797 229.072 165.91 242.058C151.956 255.107 134.993 264.621 122.495 269.82L122.433 269.846L122.37 269.871C118.511 271.381 112.661 271.147 109.966 266.095C108.628 263.586 108.723 260.695 109.984 258.296C111.183 256.016 113.196 254.55 115.205 253.677L115.216 253.672ZM154.873 274.93C153.913 274.537 151.622 273.627 148.945 273.627C142.357 273.627 138.546 279.002 138.546 284.217C138.546 285.693 138.791 286.898 138.927 287.57C138.938 287.622 138.948 287.671 138.957 287.717C139.078 288.323 139.12 288.593 139.12 289.002V318.093C139.12 324.338 140.597 329.947 143.943 334.676C147.263 339.368 152.032 342.641 157.662 344.935C168.624 349.4 184.259 350.693 203.491 350.693C222.632 350.693 238.262 349.399 249.243 344.937C254.88 342.646 259.665 339.378 263.001 334.691C266.366 329.964 267.862 324.35 267.862 318.093V292.447C267.862 288.02 266.753 283.377 263.323 279.859C259.863 276.311 255.079 274.967 249.999 274.967H155.835C155.521 274.967 155.271 274.958 155.078 274.946C154.998 274.941 154.929 274.935 154.873 274.93ZM204.988 260.442L204.997 260.354C205.094 259.481 205.244 258.627 205.342 258.071C205.367 257.932 205.388 257.811 205.404 257.713C205.498 257.151 205.533 256.824 205.533 256.465V172.445C205.533 172.087 205.498 171.76 205.404 171.197C205.388 171.1 205.367 170.979 205.342 170.84C205.244 170.283 205.094 169.43 204.997 168.556L204.988 168.469L204.98 168.382C204.407 161.496 210.451 157.262 215.74 157.262C221.035 157.262 226.867 161.672 226.308 168.382L226.301 168.469L226.291 168.556C226.194 169.43 226.044 170.284 225.946 170.84C225.922 170.979 225.901 171.1 225.885 171.197C225.791 171.76 225.756 172.087 225.756 172.445V201.856H247.447V171.488C247.447 171.13 247.412 170.803 247.318 170.24C247.302 170.143 247.281 170.022 247.257 169.883C247.159 169.327 247.009 168.473 246.912 167.599L246.902 167.512L246.895 167.425C246.321 160.539 252.366 156.305 257.654 156.305C262.95 156.305 268.782 160.715 268.223 167.425L268.215 167.512L268.206 167.599C268.109 168.473 267.959 169.326 267.861 169.883C267.836 170.022 267.815 170.143 267.799 170.24C267.705 170.803 267.67 171.13 267.67 171.488V259.145C267.67 259.503 267.705 259.831 267.799 260.393C267.815 260.491 267.836 260.611 267.861 260.75C267.959 261.307 268.109 262.16 268.206 263.034L268.215 263.121L268.223 263.208C268.782 269.919 262.95 274.329 257.654 274.329C252.366 274.329 246.321 270.094 246.895 263.208L246.902 263.121L246.912 263.034C247.009 262.16 247.159 261.307 247.257 260.75C247.281 260.611 247.302 260.491 247.318 260.393C247.412 259.831 247.447 259.503 247.447 259.145V219.974H225.756V256.465C225.756 256.824 225.791 257.151 225.885 257.713C225.901 257.811 225.922 257.931 225.946 258.07C226.044 258.627 226.194 259.481 226.291 260.354L226.301 260.442L226.308 260.529C226.867 267.239 221.035 271.649 215.74 271.649C210.451 271.649 204.407 267.414 204.98 260.529L204.988 260.442Z" fill="white"/>
<path fill-rule="evenodd" clip-rule="evenodd" d="M239.389 313.995C239.406 313.49 239.414 312.981 239.414 312.469C239.414 297.217 231.828 284.854 222.47 284.854C213.112 284.854 205.525 297.217 205.525 312.469C205.525 327.72 213.112 340.084 222.47 340.084C229.379 340.084 235.322 333.346 237.959 323.682L215.883 319.259L239.389 313.995Z" fill="#7CB45B"/>
<path fill-rule="evenodd" clip-rule="evenodd" d="M200.147 313.995C200.164 313.49 200.172 312.981 200.172 312.469C200.172 297.217 192.586 284.854 183.228 284.854C173.87 284.854 166.283 297.217 166.283 312.469C166.283 327.72 173.87 340.084 183.228 340.084C190.136 340.084 196.079 333.346 198.717 323.682L176.641 319.259L200.147 313.995Z" fill="#7CB45B"/>
<path fill-rule="evenodd" clip-rule="evenodd" d="M367.398 231.441C366.832 231.682 366.248 231.809 365.65 231.809C360.68 231.809 356.65 223.078 356.65 212.309C356.65 201.539 360.68 192.809 365.65 192.809C365.908 192.809 366.164 192.832 366.416 192.878C363.662 189.521 360.398 187.809 357.15 187.809C353.37 187.809 349.568 190.129 346.572 194.663C343.592 199.174 341.65 205.581 341.65 212.809C341.65 220.036 343.592 226.443 346.572 230.954C349.568 235.488 353.37 237.809 357.15 237.809C360.793 237.809 364.456 235.654 367.398 231.441ZM375.65 212.809C375.65 228.273 367.368 240.809 357.15 240.809C346.933 240.809 338.65 228.273 338.65 212.809C338.65 197.345 346.933 184.809 357.15 184.809C367.368 184.809 375.65 197.345 375.65 212.809Z" fill="white"/>
<path fill-rule="evenodd" clip-rule="evenodd" d="M343.398 231.441C342.832 231.682 342.248 231.809 341.65 231.809C336.68 231.809 332.65 223.078 332.65 212.309C332.65 201.539 336.68 192.809 341.65 192.809C341.908 192.809 342.164 192.832 342.416 192.878C339.662 189.521 336.398 187.809 333.15 187.809C329.37 187.809 325.568 190.129 322.572 194.663C319.592 199.174 317.65 205.581 317.65 212.809C317.65 220.036 319.592 226.443 322.572 230.954C325.568 235.488 329.37 237.809 333.15 237.809C336.793 237.809 340.456 235.654 343.398 231.441ZM351.65 212.809C351.65 228.273 343.368 240.809 333.15 240.809C322.933 240.809 314.65 228.273 314.65 212.809C314.65 197.345 322.933 184.809 333.15 184.809C343.368 184.809 351.65 197.345 351.65 212.809Z" fill="white"/>
<path fill-rule="evenodd" clip-rule="evenodd" d="M426.889 139.981L426.89 139.964C426.907 139.811 426.934 139.659 426.95 139.567C426.954 139.546 426.957 139.528 426.96 139.513C426.974 139.425 426.978 139.384 426.978 139.341V124.383C426.978 124.34 426.974 124.298 426.96 124.21C426.957 124.196 426.954 124.178 426.95 124.156C426.934 124.064 426.907 123.912 426.89 123.759L426.889 123.742L426.887 123.724C426.779 122.427 427.915 121.646 428.888 121.646C429.868 121.646 430.962 122.462 430.857 123.724L430.855 123.742L430.853 123.759C430.836 123.912 430.809 124.064 430.793 124.156C430.79 124.178 430.786 124.196 430.784 124.21C430.769 124.298 430.765 124.34 430.765 124.383V129.22H433.853C434.307 129.22 434.768 129.371 435.125 129.712C435.475 130.045 435.651 130.493 435.651 130.939C435.651 131.384 435.475 131.833 435.125 132.166C434.768 132.507 434.307 132.657 433.853 132.657H430.765V139.341C430.765 139.384 430.769 139.425 430.784 139.513C430.786 139.528 430.79 139.546 430.793 139.567C430.809 139.659 430.836 139.811 430.853 139.964L430.855 139.981L430.857 139.999C430.962 141.261 429.868 142.078 428.888 142.078C427.915 142.078 426.779 141.296 426.887 139.999L426.889 139.981ZM418.576 127.279H424.082C424.536 127.279 424.998 127.128 425.355 126.787C425.704 126.454 425.88 126.005 425.88 125.56C425.88 125.115 425.704 124.666 425.355 124.333C424.998 123.992 424.536 123.842 424.082 123.842H416.619H409.156C408.701 123.842 408.24 123.992 407.883 124.333C407.534 124.666 407.357 125.115 407.357 125.56C407.357 126.005 407.534 126.454 407.883 126.787C408.24 127.128 408.701 127.279 409.156 127.279H414.788C414.742 131.176 411.845 133.864 407.299 137.129C406.926 137.397 406.619 137.789 406.512 138.287C406.404 138.787 406.522 139.299 406.829 139.695C407.505 140.568 408.644 140.502 409.405 139.972L409.406 139.971L409.408 139.97C412.137 138.062 414.716 136.082 416.44 133.664C416.58 133.946 416.785 134.202 417.042 134.41C419.222 136.179 421.1 137.583 423.218 139.01C423.232 139.027 423.247 139.045 423.265 139.064C423.401 139.216 423.647 139.456 424.036 139.605C424.941 139.959 426.114 139.6 426.562 138.526L426.573 138.499L426.583 138.471C426.969 137.409 426.365 136.462 425.662 136.068C425.519 135.987 425.384 135.933 425.273 135.895C425.197 135.87 425.127 135.85 425.071 135.836C424.728 135.6 424.384 135.365 424.037 135.128C422.541 134.105 421.005 133.055 419.424 131.845C419.14 131.619 418.762 131.364 418.325 131.25C418.166 131.209 417.991 131.186 417.811 131.19C418.29 130.001 418.564 128.707 418.576 127.279ZM412.622 142.699C414.462 141.452 417.106 140.773 420.486 140.773C423.865 140.773 426.509 141.452 428.349 142.699C430.232 143.975 431.211 145.815 431.211 147.87C431.211 149.937 430.236 151.785 428.351 153.068C426.51 154.32 423.865 154.999 420.486 154.999C417.107 154.999 414.461 154.32 412.621 153.068C410.735 151.785 409.76 149.937 409.76 147.87C409.76 145.815 410.739 143.975 412.622 142.699ZM420.486 152.835C414.884 152.835 412.275 150.48 412.275 147.87C412.275 145.292 414.884 142.937 420.486 142.937C426.087 142.937 428.697 145.292 428.697 147.87C428.697 150.48 426.087 152.835 420.486 152.835Z" fill="white"/>
<path fill-rule="evenodd" clip-rule="evenodd" d="M399.903 139.854L399.905 139.837C399.922 139.684 399.949 139.532 399.965 139.44C399.969 139.418 399.972 139.4 399.974 139.386C399.989 139.298 399.993 139.256 399.993 139.213V124.383C399.993 124.34 399.989 124.298 399.974 124.21C399.972 124.196 399.969 124.178 399.965 124.156C399.949 124.064 399.922 123.912 399.905 123.759L399.903 123.742L399.902 123.724C399.793 122.427 400.93 121.646 401.902 121.646C402.882 121.646 403.976 122.462 403.871 123.724L403.87 123.742L403.868 123.759C403.851 123.912 403.824 124.064 403.808 124.156C403.804 124.178 403.801 124.196 403.798 124.21C403.784 124.298 403.78 124.34 403.78 124.383V139.213C403.78 139.256 403.784 139.298 403.798 139.386C403.801 139.4 403.804 139.419 403.808 139.44C403.824 139.532 403.851 139.684 403.868 139.837L403.87 139.854L403.871 139.872C403.976 141.134 402.882 141.951 401.902 141.951C400.93 141.951 399.793 141.169 399.902 139.872L399.903 139.854ZM381.921 128.325L381.92 128.307C381.886 127.9 381.974 127.544 382.142 127.247H379.942C379.488 127.247 379.026 127.096 378.669 126.755C378.32 126.422 378.144 125.974 378.144 125.528C378.144 125.083 378.32 124.634 378.669 124.301C379.026 123.96 379.488 123.81 379.942 123.81H396.683C397.137 123.81 397.598 123.96 397.956 124.301C398.305 124.634 398.481 125.083 398.481 125.528C398.481 125.974 398.305 126.422 397.956 126.755C397.598 127.096 397.137 127.247 396.683 127.247H394.482C394.65 127.547 394.739 127.904 394.705 128.307L394.704 128.325L394.702 128.342C394.685 128.495 394.658 128.647 394.642 128.739C394.638 128.761 394.635 128.779 394.632 128.793C394.618 128.881 394.614 128.923 394.614 128.965V135.49H397.192C397.646 135.49 398.108 135.64 398.465 135.981C398.814 136.315 398.99 136.763 398.99 137.208C398.99 137.654 398.814 138.102 398.465 138.436C398.108 138.777 397.646 138.927 397.192 138.927H379.433C378.979 138.927 378.517 138.777 378.16 138.436C377.811 138.102 377.635 137.654 377.635 137.208C377.635 136.763 377.811 136.315 378.16 135.981C378.517 135.64 378.979 135.49 379.433 135.49H382.011V128.965C382.011 128.923 382.007 128.881 381.992 128.793C381.99 128.779 381.987 128.761 381.983 128.739C381.967 128.647 381.94 128.495 381.923 128.342L381.921 128.325ZM385.798 135.49V128.965C385.798 128.923 385.802 128.881 385.817 128.793C385.819 128.779 385.822 128.761 385.826 128.739C385.842 128.647 385.869 128.495 385.886 128.342L385.888 128.325L385.889 128.307C385.923 127.904 385.834 127.547 385.666 127.247H390.958C390.79 127.544 390.702 127.9 390.736 128.307L390.737 128.325L390.739 128.342C390.756 128.495 390.783 128.647 390.799 128.739C390.803 128.761 390.806 128.779 390.808 128.793C390.823 128.881 390.827 128.923 390.827 128.965V135.49H385.798ZM385.122 142.695C386.982 141.45 389.665 140.773 393.118 140.773C396.572 140.773 399.254 141.45 401.114 142.695C403.022 143.971 404.003 145.813 404.003 147.87C404.003 149.939 403.025 151.79 401.116 153.072C399.255 154.322 396.571 154.999 393.118 154.999C389.665 154.999 386.981 154.322 385.12 153.072C383.211 151.79 382.234 149.939 382.234 147.87C382.234 145.813 383.215 143.971 385.122 142.695ZM393.118 152.835C387.358 152.835 384.748 150.48 384.748 147.87C384.748 145.292 387.358 142.937 393.118 142.937C398.879 142.937 401.488 145.292 401.488 147.87C401.488 150.48 398.879 152.835 393.118 152.835Z" fill="white"/>
<path fill-rule="evenodd" clip-rule="evenodd" d="M356.736 150.226C356.736 152.867 359.632 153.504 365.138 153.504C370.612 153.504 373.54 152.867 373.54 150.226V145.547C373.54 145.164 373.266 144.862 372.872 144.82C372.841 144.817 372.809 144.815 372.776 144.815H356.736V150.226ZM350.375 139.128L350.377 139.127C351.773 138.526 353.528 137.569 355.134 136.307C356.018 135.613 356.836 134.843 357.523 134.008C355.606 134.253 353.701 134.415 351.798 134.502L351.768 134.504H351.739C350.756 134.504 349.96 133.79 349.926 132.83C349.91 132.385 350.071 131.922 350.424 131.573C350.775 131.226 351.23 131.074 351.673 131.067C354.247 130.953 356.848 130.685 359.428 130.263C359.523 129.829 359.568 129.377 359.568 128.902V128.552H351.994C351.547 128.552 351.087 128.412 350.724 128.08C350.365 127.752 350.172 127.298 350.172 126.834C350.172 126.369 350.365 125.915 350.724 125.587C351.087 125.255 351.547 125.115 351.994 125.115H360.173C361.053 125.115 361.912 125.348 362.541 125.993C363.163 126.631 363.356 127.465 363.356 128.234V128.934C363.356 132.445 361.363 135.367 359.034 137.546C356.691 139.737 353.847 141.331 351.751 142.203L351.738 142.209L351.726 142.213C351.029 142.486 349.917 142.46 349.398 141.488C349.141 141.005 349.16 140.45 349.401 139.992C349.629 139.559 350.008 139.287 350.372 139.129L350.375 139.128ZM357.103 142.648C356.924 142.576 356.528 142.428 356.067 142.428C354.836 142.428 354.126 143.437 354.126 144.402C354.126 144.669 354.171 144.888 354.194 145.001L354.199 145.025C354.218 145.122 354.222 145.151 354.222 145.197V150.035C354.222 151.107 354.476 152.086 355.063 152.915C355.644 153.737 356.475 154.303 357.437 154.695C359.302 155.455 361.94 155.668 365.138 155.668C368.321 155.668 370.958 155.454 372.826 154.695C373.789 154.304 374.622 153.739 375.207 152.918C375.797 152.089 376.054 151.11 376.054 150.035V145.77C376.054 145.001 375.862 144.167 375.239 143.529C374.993 143.276 374.712 143.087 374.408 142.95C375.31 142.821 376.209 142.041 376.113 140.89L376.112 140.873L376.11 140.856C376.093 140.703 376.066 140.551 376.05 140.459C376.046 140.437 376.043 140.419 376.041 140.405C376.026 140.317 376.022 140.275 376.022 140.232V125.656C376.022 125.613 376.026 125.572 376.041 125.483C376.043 125.469 376.046 125.451 376.05 125.429C376.066 125.338 376.093 125.186 376.11 125.033L376.112 125.015L376.113 124.998C376.219 123.735 375.125 122.919 374.145 122.919C373.172 122.919 372.036 123.7 372.144 124.998L372.145 125.015L372.147 125.033C372.164 125.186 372.191 125.338 372.207 125.429C372.211 125.451 372.214 125.469 372.217 125.483C372.231 125.572 372.235 125.613 372.235 125.656V130.494H369.052V125.815C369.052 125.772 369.056 125.731 369.071 125.642C369.073 125.628 369.076 125.61 369.08 125.589C369.096 125.497 369.123 125.345 369.14 125.192L369.142 125.174L369.144 125.157C369.249 123.894 368.155 123.078 367.175 123.078C366.202 123.078 365.066 123.859 365.174 125.157L365.176 125.174L365.177 125.192C365.195 125.345 365.221 125.497 365.237 125.589C365.241 125.61 365.244 125.628 365.247 125.642C365.261 125.731 365.265 125.772 365.265 125.815V139.787C365.265 139.83 365.261 139.871 365.247 139.959C365.244 139.973 365.241 139.992 365.237 140.013C365.221 140.105 365.195 140.257 365.177 140.41L365.176 140.427L365.174 140.445C365.066 141.742 366.202 142.524 367.175 142.524C368.155 142.524 369.249 141.707 369.144 140.445L369.142 140.427L369.14 140.41C369.123 140.257 369.096 140.105 369.08 140.013C369.076 139.992 369.073 139.973 369.071 139.959C369.056 139.871 369.052 139.83 369.052 139.787V133.931H372.235V140.232C372.235 140.275 372.231 140.317 372.217 140.405C372.214 140.419 372.211 140.437 372.207 140.459C372.191 140.55 372.164 140.703 372.147 140.856L372.145 140.873L372.144 140.89C372.076 141.702 372.496 142.312 373.057 142.655C372.996 142.652 372.934 142.651 372.872 142.651H357.213C357.166 142.651 357.13 142.65 357.103 142.648Z" fill="white"/>
<path fill-rule="evenodd" clip-rule="evenodd" d="M338.606 141.382L338.608 141.4C338.713 142.662 337.619 143.479 336.639 143.479C335.666 143.479 334.53 142.697 334.638 141.4L334.64 141.382L334.642 141.365C334.659 141.212 334.686 141.06 334.702 140.968C334.705 140.947 334.709 140.928 334.711 140.914C334.726 140.826 334.729 140.785 334.729 140.742V127.693H319.548C319.102 127.693 318.642 127.553 318.278 127.221C317.919 126.893 317.726 126.439 317.726 125.974C317.726 125.51 317.919 125.056 318.278 124.728C318.642 124.396 319.102 124.256 319.548 124.256H335.334C336.214 124.256 337.073 124.489 337.702 125.133C338.324 125.772 338.517 126.606 338.517 127.375V140.742C338.517 140.785 338.52 140.826 338.535 140.914C338.538 140.928 338.541 140.947 338.544 140.968C338.561 141.06 338.587 141.212 338.604 141.365L338.606 141.382ZM313.947 146.994C314.304 146.653 314.766 146.502 315.22 146.502H340.935C341.39 146.502 341.851 146.653 342.208 146.994C342.557 147.327 342.734 147.776 342.734 148.221C342.734 148.666 342.557 149.115 342.208 149.448C341.851 149.789 341.39 149.939 340.935 149.939H315.22C314.766 149.939 314.304 149.789 313.947 149.448C313.598 149.115 313.422 148.666 313.422 148.221C313.422 147.776 313.598 147.327 313.947 146.994Z" fill="white"/>
<path fill-rule="evenodd" clip-rule="evenodd" d="M301.71 143.737L301.712 143.72C301.729 143.566 301.756 143.414 301.772 143.323C301.776 143.301 301.779 143.283 301.781 143.269C301.796 143.181 301.8 143.139 301.8 143.096V133.262H295.053C294.599 133.262 294.137 133.112 293.78 132.771C293.431 132.437 293.255 131.989 293.255 131.543C293.255 131.098 293.431 130.649 293.78 130.316C294.137 129.975 294.599 129.825 295.053 129.825H301.8V124.383C301.8 124.34 301.796 124.298 301.781 124.21C301.779 124.196 301.776 124.178 301.772 124.156C301.756 124.065 301.729 123.913 301.712 123.759L301.71 123.742L301.709 123.724C301.601 122.427 302.737 121.646 303.709 121.646C304.69 121.646 305.783 122.462 305.678 123.724L305.677 123.742L305.675 123.759C305.658 123.913 305.631 124.065 305.615 124.156C305.611 124.178 305.608 124.196 305.606 124.21C305.591 124.298 305.587 124.34 305.587 124.383V143.096C305.587 143.139 305.591 143.181 305.606 143.269C305.608 143.283 305.611 143.301 305.615 143.323C305.631 143.414 305.658 143.566 305.675 143.719L305.677 143.737L305.678 143.754C305.783 145.017 304.69 145.833 303.709 145.833C302.737 145.833 301.601 145.052 301.709 143.754L301.71 143.737ZM283.676 123.711C283.703 123.713 283.739 123.714 283.786 123.714H295.976C296.43 123.714 296.891 123.865 297.249 124.206C297.598 124.539 297.774 124.987 297.774 125.433C297.774 125.878 297.598 126.327 297.249 126.66C296.891 127.001 296.43 127.151 295.976 127.151H284.582V132.912C284.582 134.265 284.772 135.025 285.043 135.513C285.295 135.968 285.696 136.326 286.456 136.706L286.461 136.709C287.624 137.296 289.244 137.526 291.102 137.338C292.943 137.152 294.921 136.565 296.726 135.633C297.381 135.293 298.637 135.122 299.228 136.233C299.822 137.349 298.969 138.292 298.304 138.629C294.171 140.761 288.944 141.641 284.992 139.901L284.991 139.901C283.626 139.298 282.514 138.511 281.779 137.3C281.055 136.108 280.795 134.664 280.795 132.944V126.26C280.795 126.214 280.791 126.185 280.772 126.088L280.767 126.064C280.744 125.952 280.699 125.732 280.699 125.465C280.699 124.5 281.409 123.491 282.641 123.491C283.101 123.491 283.497 123.639 283.676 123.711ZM284.588 144.174L284.586 144.157C284.478 142.859 285.614 142.078 286.587 142.078C287.567 142.078 288.661 142.894 288.556 144.157L288.554 144.174L288.552 144.192C288.535 144.345 288.509 144.497 288.493 144.589C288.489 144.61 288.486 144.628 288.483 144.642C288.469 144.731 288.465 144.772 288.465 144.815V146.374C288.465 148.32 289.291 149.237 290.105 149.757C291.437 150.607 293.759 151.008 296.423 150.802C299.048 150.599 301.753 149.825 303.74 148.602C304.419 148.181 305.525 148.067 306.178 148.952C306.486 149.37 306.566 149.897 306.421 150.381C306.28 150.852 305.958 151.195 305.613 151.42L305.602 151.427L305.592 151.433C303.116 152.974 299.965 153.905 296.916 154.186C293.884 154.466 290.782 154.117 288.454 152.916L288.453 152.916L288.452 152.915C286.261 151.781 284.677 149.634 284.677 146.406V144.815C284.677 144.772 284.674 144.731 284.659 144.642C284.657 144.628 284.653 144.61 284.65 144.589C284.634 144.497 284.607 144.345 284.59 144.192L284.588 144.174Z" fill="white"/>
<path fill-rule="evenodd" clip-rule="evenodd" d="M256.964 123.392L256.963 123.375C256.855 122.077 257.991 121.296 258.964 121.296C259.944 121.296 261.038 122.112 260.932 123.375L260.931 123.392L260.929 123.41C260.912 123.563 260.885 123.715 260.869 123.807C260.865 123.828 260.862 123.846 260.86 123.86C260.845 123.949 260.841 123.99 260.841 124.033V125.115H265.711C266.165 125.115 266.626 125.266 266.984 125.606C267.006 125.627 267.027 125.649 267.047 125.671V124.542C267.047 124.499 267.044 124.458 267.029 124.37C267.027 124.356 267.023 124.337 267.02 124.316C267.004 124.224 266.977 124.072 266.96 123.919L266.958 123.902L266.956 123.884C266.848 122.586 267.984 121.805 268.957 121.805C269.937 121.805 271.031 122.621 270.926 123.884L270.924 123.902L270.922 123.919C270.905 124.072 270.879 124.224 270.862 124.316C270.859 124.337 270.856 124.356 270.853 124.37C270.838 124.458 270.835 124.499 270.835 124.542V130.175H273.699V124.383C273.699 124.34 273.695 124.299 273.681 124.21C273.678 124.196 273.675 124.178 273.671 124.157C273.655 124.065 273.628 123.913 273.611 123.76L273.609 123.742L273.608 123.725C273.5 122.427 274.636 121.646 275.609 121.646C276.589 121.646 277.683 122.462 277.577 123.725L277.576 123.742L277.574 123.76C277.557 123.913 277.53 124.065 277.514 124.157C277.51 124.178 277.507 124.196 277.505 124.21C277.49 124.299 277.486 124.34 277.486 124.383V139.723C277.486 139.766 277.49 139.807 277.505 139.896C277.507 139.91 277.51 139.928 277.514 139.949C277.53 140.041 277.557 140.193 277.574 140.346L277.576 140.364L277.577 140.381C277.683 141.644 276.589 142.46 275.609 142.46C274.636 142.46 273.5 141.679 273.608 140.381L273.609 140.364L273.611 140.346C273.628 140.193 273.655 140.041 273.671 139.949C273.675 139.928 273.678 139.91 273.681 139.896C273.695 139.807 273.699 139.766 273.699 139.723V133.613H270.835V139.15C270.835 139.193 270.838 139.235 270.853 139.323C270.856 139.337 270.859 139.355 270.862 139.377C270.879 139.468 270.905 139.62 270.922 139.774L270.924 139.791L270.926 139.808C271.031 141.071 269.937 141.887 268.957 141.887C267.984 141.887 266.848 141.106 266.956 139.808L266.958 139.791L266.96 139.774C266.977 139.62 267.004 139.468 267.02 139.377C267.023 139.355 267.027 139.337 267.029 139.323C267.044 139.235 267.047 139.193 267.047 139.15V127.997C267.027 128.018 267.006 128.04 266.984 128.061C266.626 128.402 266.165 128.552 265.711 128.552H262.367C264.698 129.639 266.188 131.829 266.188 134.408C266.188 138.1 263.135 140.996 258.932 140.996C254.72 140.996 251.707 138.092 251.707 134.408C251.707 131.834 253.179 129.64 255.503 128.552H252.089C251.635 128.552 251.173 128.402 250.816 128.061C250.467 127.728 250.291 127.279 250.291 126.834C250.291 126.388 250.467 125.94 250.816 125.606C251.173 125.266 251.635 125.115 252.089 125.115H257.054V124.033C257.054 123.99 257.05 123.949 257.036 123.86C257.033 123.846 257.03 123.828 257.026 123.807C257.01 123.715 256.983 123.563 256.966 123.41L256.964 123.392ZM252.593 151.242L252.606 151.216C252.72 150.987 252.851 150.826 252.929 150.732C253.016 150.627 253.02 150.625 253.035 150.602L253.036 150.6C254.531 148.365 255.723 146.731 256.649 145.499C257.01 145.018 257.322 144.61 257.592 144.256C258.024 143.692 258.35 143.266 258.603 142.902C258.606 142.896 258.614 142.882 258.626 142.858C258.65 142.812 258.673 142.764 258.709 142.689C258.741 142.623 258.785 142.533 258.833 142.445C258.878 142.364 258.949 142.24 259.046 142.118C259.395 141.673 259.893 141.449 260.343 141.389C260.782 141.331 261.352 141.408 261.817 141.802C262.605 142.451 262.879 143.743 262.079 144.643L262.054 144.671L262.028 144.697C261.867 144.858 261.777 144.95 261.686 145.078L261.663 145.11L261.638 145.141C261.57 145.225 261.493 145.32 261.407 145.428C261.695 145.593 261.964 145.821 262.196 146.028C262.989 146.73 263.65 147.253 264.286 147.757C264.499 147.925 264.708 148.091 264.919 148.261C264.947 148.277 264.98 148.295 265.028 148.321C265.083 148.352 265.155 148.392 265.222 148.433C265.255 148.453 265.298 148.479 265.343 148.51C265.365 148.525 265.395 148.546 265.427 148.571C265.449 148.588 265.483 148.616 265.522 148.652C265.538 148.666 265.554 148.681 265.569 148.696C267.716 145.479 269.043 143.618 269.715 142.703C269.719 142.695 269.725 142.684 269.733 142.667C269.752 142.63 269.771 142.592 269.796 142.539L269.817 142.498C269.849 142.432 269.892 142.342 269.941 142.254C269.985 142.173 270.056 142.049 270.154 141.926C270.503 141.481 271 141.258 271.45 141.198C271.889 141.14 272.459 141.217 272.924 141.61C273.792 142.324 273.888 143.627 273.155 144.452L273.13 144.48L273.103 144.506C272.943 144.667 272.853 144.759 272.762 144.887L272.737 144.922L272.71 144.955C272.625 145.059 272.517 145.197 272.389 145.369C272.732 145.53 273.037 145.789 273.268 145.993L273.282 146.005L273.295 146.017C275.156 147.754 276.4 148.905 277.655 150.01C277.687 150.027 277.73 150.05 277.759 150.065C277.815 150.096 277.891 150.138 277.969 150.187C278.021 150.22 278.122 150.285 278.227 150.379C278.557 150.656 278.827 151.041 278.924 151.518C279.028 152.025 278.914 152.528 278.641 152.937L278.633 152.949L278.625 152.961C277.953 153.92 276.749 153.964 275.975 153.464C275.805 153.357 275.681 153.234 275.608 153.155C275.523 153.064 275.455 152.974 275.407 152.908C275.385 152.879 275.366 152.851 275.349 152.826C273.958 151.586 272.616 150.274 270.628 148.255L270.61 148.237L270.593 148.218C270.554 148.175 270.515 148.13 270.478 148.082C269.562 149.414 268.434 151.076 267.169 152.943C267.167 152.949 267.164 152.956 267.161 152.964C267.157 152.977 267.152 152.99 267.146 153.006L267.139 153.024C267.135 153.036 267.13 153.05 267.125 153.065C267.12 153.077 267.115 153.09 267.11 153.103C267.092 153.153 267.056 153.246 267.009 153.341C266.629 154.1 265.625 154.758 264.556 154.343C263.976 154.125 263.628 153.67 263.47 153.23C263.319 152.807 263.314 152.339 263.453 151.924L263.481 151.838L263.483 151.834C263.359 151.777 263.242 151.708 263.133 151.626C263.001 151.527 262.902 151.42 262.849 151.361C262.791 151.297 262.738 151.232 262.706 151.192L262.704 151.19C262.687 151.169 262.675 151.154 262.666 151.143L262.661 151.139C262.406 150.908 262.149 150.684 261.883 150.453C261.187 149.846 260.426 149.184 259.457 148.191C259.426 148.16 259.394 148.126 259.361 148.09C258.473 149.28 257.41 150.741 256.252 152.404C256.25 152.41 256.248 152.416 256.245 152.423C256.238 152.441 256.232 152.459 256.223 152.483L256.22 152.49C256.213 152.511 256.203 152.537 256.194 152.562C256.178 152.603 256.151 152.674 256.116 152.752C255.905 153.239 255.514 153.571 255.118 153.75C254.713 153.932 254.175 154.009 253.642 153.803C252.532 153.388 252.192 152.144 252.581 151.268L252.593 151.242ZM261.251 146.384C261.246 146.378 261.244 146.375 261.244 146.375C261.244 146.375 261.246 146.378 261.251 146.384ZM264.745 149.662C264.75 149.668 264.75 149.668 264.745 149.662ZM258.932 138.832C256.163 138.832 254.222 137.018 254.222 134.408C254.222 131.798 256.163 129.984 258.932 129.984C261.701 129.984 263.674 131.798 263.674 134.408C263.674 137.018 261.701 138.832 258.932 138.832Z" fill="white"/>
<path fill-rule="evenodd" clip-rule="evenodd" d="M238.789 125.97L238.788 125.953C238.679 124.655 239.816 123.874 240.788 123.874C241.768 123.874 242.862 124.69 242.757 125.953L242.756 125.97L242.754 125.988C242.737 126.141 242.71 126.293 242.694 126.385C242.69 126.406 242.687 126.424 242.684 126.438C242.67 126.527 242.666 126.568 242.666 126.611V143.574C242.666 143.617 242.67 143.659 242.684 143.747C242.687 143.761 242.69 143.779 242.694 143.801C242.71 143.892 242.737 144.044 242.754 144.198L242.756 144.215L242.757 144.232C242.862 145.495 241.768 146.311 240.788 146.311C239.816 146.311 238.679 145.53 238.788 144.232L238.789 144.215L238.791 144.198C238.808 144.044 238.835 143.892 238.851 143.801C238.855 143.779 238.858 143.761 238.86 143.747C238.875 143.659 238.879 143.617 238.879 143.574V126.611C238.879 126.568 238.875 126.527 238.86 126.438C238.858 126.424 238.855 126.406 238.851 126.385C238.835 126.293 238.808 126.141 238.791 125.988L238.789 125.97ZM239.118 147.869C239.56 147.407 240.162 147.171 240.788 147.171C242.139 147.171 243.08 148.263 243.08 149.558C243.08 150.892 242.038 151.849 240.788 151.849C239.533 151.849 238.465 150.917 238.465 149.558C238.465 148.935 238.677 148.328 239.118 147.869Z" fill="white"/>
<path fill-rule="evenodd" clip-rule="evenodd" d="M220.346 139.245V126.325C220.346 126.282 220.35 126.241 220.365 126.152C220.367 126.138 220.371 126.12 220.374 126.098C220.39 126.007 220.417 125.855 220.434 125.702L220.436 125.684L220.438 125.667C220.543 124.404 219.449 123.588 218.469 123.588C217.496 123.588 216.36 124.369 216.468 125.667L216.47 125.684L216.471 125.702C216.489 125.855 216.515 126.007 216.531 126.098C216.535 126.12 216.538 126.138 216.541 126.152C216.555 126.241 216.559 126.282 216.559 126.325V148.794C216.559 148.837 216.555 148.878 216.541 148.967C216.538 148.981 216.535 148.999 216.531 149.021C216.515 149.112 216.489 149.264 216.471 149.417L216.47 149.435L216.468 149.452C216.36 150.75 217.496 151.531 218.469 151.531C219.449 151.531 220.543 150.715 220.438 149.452L220.436 149.435L220.434 149.417C220.417 149.264 220.39 149.112 220.374 149.021C220.371 148.999 220.367 148.981 220.365 148.967C220.35 148.878 220.346 148.837 220.346 148.794V144.558C221.115 143.745 221.841 142.985 222.525 142.276C222.633 142.636 222.832 142.947 223.024 143.198C225.522 146.518 226.473 147.702 228.822 150.367C228.834 150.391 228.849 150.422 228.866 150.455C228.924 150.566 229.007 150.699 229.13 150.838C229.251 150.974 229.388 151.09 229.538 151.19L229.563 151.207L229.589 151.222C229.911 151.416 230.352 151.574 230.846 151.54C231.357 151.504 231.861 151.26 232.204 150.789C232.568 150.348 232.626 149.804 232.595 149.438C232.557 148.988 232.364 148.467 231.923 148.071L231.795 147.955L231.706 147.911C229.469 145.424 228.43 144.226 225.954 141.155C225.766 140.919 225.464 140.557 225.068 140.322C224.941 140.248 224.792 140.178 224.621 140.129C226.983 137.737 228.664 136.13 229.633 135.204C229.883 134.966 230.085 134.772 230.24 134.622L230.247 134.615L230.253 134.609C230.326 134.536 230.396 134.483 230.559 134.402L230.71 134.326L230.836 134.214C231.704 133.443 231.636 132.171 230.995 131.424C230.578 130.921 229.98 130.733 229.485 130.733C229.03 130.733 228.452 130.894 228.041 131.369C227.889 131.513 227.775 131.652 227.699 131.748C227.64 131.821 227.627 131.839 227.592 131.882C227.57 131.909 227.561 131.918 227.561 131.918L227.548 131.931L227.535 131.945C227.258 132.239 226.835 132.657 226.238 133.247C225.771 133.709 225.196 134.277 224.502 134.974C223.398 136.081 222.019 137.484 220.346 139.245Z" fill="white"/>
<path fill-rule="evenodd" clip-rule="evenodd" d="M212.21 146.488C211.225 147.594 210.042 148.03 208.486 148.03C207.155 148.03 206.024 147.472 205.192 146.376C204.336 145.251 203.744 143.48 203.744 141.028C203.744 138.614 204.373 136.845 205.269 135.71C206.15 134.593 207.33 134.026 208.646 134.026C209.984 134.026 211.039 134.424 211.77 135.132L211.828 135.187L211.892 135.236C212.48 135.677 213.628 136.073 214.455 135.184C215.259 134.32 214.833 133.216 214.354 132.657L214.304 132.599L214.248 132.547C212.842 131.258 210.933 130.525 208.646 130.525C206.09 130.525 203.872 131.583 202.318 133.483C200.78 135.361 199.957 137.976 199.957 141.028C199.957 144.079 200.732 146.692 202.227 148.572C203.744 150.479 205.93 151.531 208.486 151.531C211.265 151.531 213.322 150.487 214.831 148.831C215.442 148.178 215.754 146.993 214.867 146.183C213.953 145.349 212.794 145.822 212.21 146.488Z" fill="white"/>
<path fill-rule="evenodd" clip-rule="evenodd" d="M194.129 132.78L194.127 132.763C194.019 131.465 195.155 130.684 196.128 130.684C197.108 130.684 198.202 131.5 198.097 132.763L198.095 132.78L198.093 132.798C198.076 132.951 198.05 133.103 198.034 133.195C198.03 133.216 198.027 133.234 198.024 133.248C198.009 133.337 198.006 133.378 198.006 133.421V148.793C198.006 148.836 198.009 148.877 198.024 148.966C198.027 148.98 198.03 148.998 198.034 149.02C198.05 149.111 198.076 149.263 198.093 149.416L198.095 149.434L198.097 149.451C198.202 150.714 197.108 151.53 196.128 151.53C195.155 151.53 194.019 150.749 194.127 149.451L194.129 149.434L194.131 149.416C194.148 149.263 194.175 149.111 194.191 149.02C194.194 148.998 194.198 148.98 194.2 148.966C194.215 148.877 194.218 148.836 194.218 148.793V133.421C194.218 133.378 194.215 133.337 194.2 133.248C194.198 133.234 194.194 133.216 194.191 133.195C194.175 133.103 194.148 132.951 194.131 132.798L194.129 132.78ZM193.805 126.801C193.805 125.442 194.873 124.51 196.128 124.51C197.377 124.51 198.419 125.467 198.419 126.801C198.419 128.096 197.479 129.188 196.128 129.188C195.502 129.188 194.9 128.952 194.457 128.49C194.017 128.03 193.805 127.423 193.805 126.801Z" fill="white"/>
<path fill-rule="evenodd" clip-rule="evenodd" d="M177.602 140.137V148.793C177.602 148.836 177.606 148.878 177.621 148.966C177.623 148.98 177.626 148.998 177.63 149.02C177.646 149.111 177.673 149.263 177.69 149.417L177.692 149.434L177.693 149.451C177.799 150.714 176.705 151.53 175.725 151.53C174.752 151.53 173.616 150.749 173.724 149.451L173.725 149.434L173.727 149.417C173.744 149.263 173.771 149.111 173.787 149.02C173.791 148.998 173.794 148.98 173.797 148.966C173.811 148.878 173.815 148.836 173.815 148.793V126.992C173.815 126.946 173.811 126.918 173.792 126.82C173.791 126.813 173.789 126.805 173.787 126.796C173.764 126.684 173.72 126.464 173.72 126.197C173.72 125.233 174.429 124.224 175.661 124.224C176.121 124.224 176.518 124.371 176.696 124.444C176.723 124.445 176.76 124.446 176.807 124.446H182.917C185.657 124.446 187.962 125.083 189.606 126.424C191.286 127.795 192.115 129.773 192.115 132.085C192.115 134.442 191.301 136.508 189.643 137.969C188.005 139.413 185.69 140.137 182.917 140.137H177.602ZM177.315 137.972H182.695C182.769 137.972 182.843 137.972 182.917 137.97C186.871 137.899 189.601 135.928 189.601 132.085C189.601 128.367 186.871 126.673 182.917 126.612C182.843 126.611 182.769 126.611 182.695 126.611H177.315V137.972Z" fill="white"/>
<path fill-rule="evenodd" clip-rule="evenodd" d="M158.651 152.425L158.653 152.408C158.67 152.255 158.697 152.103 158.713 152.011C158.717 151.99 158.72 151.971 158.722 151.957C158.737 151.869 158.741 151.828 158.741 151.785V124.383C158.741 124.34 158.737 124.298 158.722 124.21C158.72 124.196 158.717 124.178 158.713 124.156C158.697 124.065 158.67 123.912 158.653 123.759L158.651 123.742L158.65 123.724C158.542 122.427 159.678 121.646 160.65 121.646C161.631 121.646 162.724 122.462 162.619 123.724L162.618 123.742L162.616 123.759C162.599 123.912 162.572 124.065 162.556 124.156C162.552 124.178 162.549 124.196 162.547 124.21C162.532 124.298 162.528 124.34 162.528 124.383V133.708H165.615C166.069 133.708 166.531 133.858 166.888 134.199C167.237 134.532 167.413 134.981 167.413 135.426C167.413 135.872 167.237 136.32 166.888 136.653C166.531 136.994 166.069 137.145 165.615 137.145H162.528V151.785C162.528 151.828 162.532 151.869 162.547 151.957C162.549 151.971 162.552 151.99 162.556 152.011C162.572 152.103 162.599 152.255 162.616 152.408L162.618 152.425L162.619 152.443C162.724 153.705 161.631 154.522 160.65 154.522C159.678 154.522 158.542 153.74 158.65 152.443L158.651 152.425ZM139.535 144.146L139.541 144.144C146.003 142.062 152.28 136.892 152.28 129.061V127.883H140.886C140.44 127.883 139.98 127.743 139.616 127.411C139.257 127.083 139.064 126.629 139.064 126.165C139.064 125.7 139.257 125.246 139.616 124.918C139.98 124.587 140.44 124.446 140.886 124.446H152.885C153.765 124.446 154.624 124.679 155.252 125.324C155.875 125.962 156.068 126.796 156.068 127.565V129.22C156.068 138.915 147.708 145.189 140.579 147.458C140.16 147.596 139.673 147.619 139.211 147.419C138.741 147.215 138.398 146.819 138.262 146.342C137.968 145.312 138.663 144.437 139.529 144.148L139.535 144.146Z" fill="white"/>
<path fill-rule="evenodd" clip-rule="evenodd" d="M113.483 145.908L113.48 145.906C111.567 144.631 110.749 142.293 110.749 139.945V126.865C110.749 126.822 110.745 126.781 110.73 126.692C110.728 126.678 110.725 126.66 110.721 126.639C110.705 126.547 110.678 126.395 110.661 126.242L110.659 126.224L110.658 126.207C110.549 124.909 111.686 124.128 112.658 124.128C113.638 124.128 114.732 124.944 114.627 126.207L114.626 126.224L114.624 126.242C114.607 126.395 114.58 126.547 114.564 126.639C114.56 126.66 114.557 126.678 114.554 126.692C114.54 126.781 114.536 126.822 114.536 126.865V139.914C114.536 141.623 114.991 142.484 115.507 142.911L115.514 142.917L115.521 142.923C116.163 143.47 117.213 143.786 118.505 143.659C119.781 143.534 121.195 142.98 122.435 141.933L122.441 141.928L122.447 141.923C122.766 141.659 123.194 141.463 123.686 141.483C124.185 141.502 124.625 141.742 124.912 142.11C125.508 142.874 125.301 143.87 124.697 144.474L124.692 144.48L124.686 144.485C123.2 145.934 121.179 146.78 119.19 147.036C117.21 147.291 115.108 146.979 113.486 145.91L113.483 145.908ZM125.235 151.98L125.237 151.962C125.254 151.809 125.281 151.657 125.297 151.566C125.301 151.544 125.304 151.526 125.306 151.512C125.321 151.424 125.325 151.382 125.325 151.339V124.542C125.325 124.499 125.321 124.457 125.306 124.369C125.304 124.355 125.301 124.337 125.297 124.315C125.281 124.224 125.254 124.072 125.237 123.918L125.235 123.901L125.234 123.884C125.126 122.586 126.262 121.805 127.235 121.805C128.215 121.805 129.309 122.621 129.203 123.884L129.202 123.901L129.2 123.918C129.183 124.072 129.156 124.224 129.14 124.315C129.136 124.337 129.133 124.355 129.131 124.369C129.116 124.457 129.112 124.499 129.112 124.542V133.039H132.231V124.383C132.231 124.34 132.227 124.298 132.213 124.21C132.21 124.196 132.207 124.178 132.203 124.156C132.187 124.065 132.161 123.912 132.144 123.759L132.142 123.742L132.14 123.724C132.032 122.427 133.168 121.646 134.141 121.646C135.121 121.646 136.215 122.462 136.11 123.724L136.108 123.742L136.106 123.759C136.089 123.912 136.062 124.065 136.046 124.156C136.043 124.178 136.039 124.196 136.037 124.21C136.022 124.298 136.019 124.34 136.019 124.383V151.785C136.019 151.828 136.022 151.869 136.037 151.957C136.039 151.971 136.043 151.99 136.046 152.011C136.062 152.103 136.089 152.255 136.106 152.408L136.108 152.425L136.11 152.443C136.215 153.705 135.121 154.522 134.141 154.522C133.168 154.522 132.032 153.74 132.14 152.443L132.142 152.425L132.144 152.408C132.161 152.255 132.187 152.103 132.203 152.011C132.207 151.99 132.21 151.971 132.213 151.957C132.227 151.869 132.231 151.828 132.231 151.785V136.476H129.112V151.339C129.112 151.382 129.116 151.424 129.131 151.512C129.133 151.526 129.136 151.544 129.14 151.566C129.156 151.657 129.183 151.809 129.2 151.962L129.202 151.98L129.203 151.997C129.309 153.26 128.215 154.076 127.235 154.076C126.262 154.076 125.126 153.295 125.234 151.997L125.235 151.98Z" fill="white"/>
</svg>
