<svg width="21" height="100" viewBox="0 0 21 100" fill="none" xmlns="http://www.w3.org/2000/svg">
<path fill-rule="evenodd" clip-rule="evenodd" d="M7.24174 5.10563C6.00712 6.02307 5.00227 7.77147 5.00227 10.5342C5.00227 12.5603 5.96195 13.7319 7.19812 14.4274C8.54456 15.1849 10.1787 15.3342 11.1451 15.1366C12.1239 14.9364 13.0796 15.5676 13.2797 16.5464C13.4798 17.5251 12.8486 18.4808 11.8699 18.6809C10.0649 19.05 7.54193 18.7718 5.42419 17.5803C3.19619 16.3268 1.38457 14.0277 1.38457 10.5342C1.38457 6.8651 2.75527 3.93233 5.08398 2.20188C7.40703 0.475631 10.4292 0.140256 13.3055 1.17027C17.2509 2.58316 18.9662 6.78865 18.8856 11.4906C18.8035 16.2782 16.9208 22.1512 13.0203 28.1013C12.403 29.0429 11.8045 29.9345 11.228 30.7933C8.20201 35.3012 5.78365 38.9039 4.44998 44.0833C2.86746 50.2292 2.06633 58.6786 4.32738 73.1494C4.52293 74.1291 5.23053 78.576 5.23053 78.576C5.23053 78.576 3.42296 73.6016 2.97075 71.7928C0.258116 62.2963 -0.836208 50.1048 0.946565 43.1812C2.44681 37.3549 5.24914 33.1914 8.29043 28.6728C8.8526 27.8376 9.42294 26.9902 9.99473 26.1179C13.6168 20.5925 15.2008 15.376 15.2684 11.4286C15.3376 7.39561 13.8856 5.22069 12.0858 4.57616C10.2109 3.90475 8.48203 4.18398 7.24174 5.10563Z" fill="#E3F1DB"/>
<path fill-rule="evenodd" clip-rule="evenodd" d="M15.1434 56.4356C15.6858 56.8348 16.2254 57.6616 16.2254 59.1526C16.2254 60.3369 15.8295 60.6656 15.6378 60.7854C15.3262 60.9801 14.8019 61.057 14.2445 60.9442C13.2653 60.7458 12.3109 61.3788 12.1126 62.3579C11.9143 63.337 12.5472 64.2915 13.5264 64.4898C14.6663 64.7207 16.2163 64.6897 17.5548 63.8534C19.0132 62.9421 19.843 61.3167 19.843 59.1526C19.843 56.742 18.9279 54.7291 17.288 53.5221C15.6568 52.3215 13.561 52.1086 11.6103 52.8005C8.77989 53.8045 7.67142 56.7512 7.72324 59.7453C7.77643 62.819 8.99009 66.513 11.4342 70.2059C11.8216 70.7914 12.1938 71.3412 12.5496 71.8667C14.3989 74.5978 16.5392 77.672 17.4437 79.9331C18.3974 82.3175 19.2521 83.9199 17.8954 94.773C17.7237 96.1462 17.1922 99.3419 17.1922 99.3419C17.1922 99.3419 17.8937 96.6649 18.3459 94.4038C20.6059 84.9904 20.6058 81.2897 20.0881 78.7756C19.2492 75.8632 17.3418 72.4737 15.4772 69.7322C15.1359 69.2304 14.7923 68.7251 14.4511 68.2094C12.288 64.941 11.3789 61.9079 11.3404 59.6827C11.3005 57.378 12.1315 56.4542 12.8197 56.2101C13.7788 55.8699 14.5922 56.0299 15.1434 56.4356Z" fill="#E3F1DB"/>
</svg>
