<svg width="27" height="37" viewBox="0 0 27 37" fill="none" xmlns="http://www.w3.org/2000/svg">
<path fill-rule="evenodd" clip-rule="evenodd" d="M23.5696 0.926821C22.7393 1.6175 21.9053 2.6957 21.0478 3.80441C20.6463 4.32351 20.2396 4.8493 19.8257 5.34514C17.7074 7.88281 15.3999 9.63595 12.629 5.69267C11.7979 4.50995 10.9251 2.81477 10.0032 0.474609C9.58105 1.84666 9.34286 3.3345 9.11383 4.76508C9.02144 5.34219 8.93054 5.90998 8.82965 6.45709C8.35554 9.0283 7.6609 11.1427 5.55452 11.6211C4.45976 11.8697 2.98367 11.6763 0.958984 10.8755C1.683 12.3717 2.64553 13.8889 3.76586 15.3037C10.1467 23.362 21.6465 28.1 23.355 6.7313C23.4953 4.97669 23.5696 3.04607 23.5696 0.926821ZM19.2067 10.7155C18.2999 11.2325 17.1508 11.6518 15.8098 11.6274C14.2933 11.5997 12.9471 11.0124 11.8231 10.123C11.7697 10.0808 11.7167 10.0377 11.6639 9.9938C11.5988 10.1809 11.5297 10.3656 11.4561 10.5468C10.8619 12.0097 9.81205 13.6479 7.93174 14.5882C8.30516 14.9795 8.69128 15.354 9.08675 15.7065C11.1735 17.5661 13.0688 18.4189 14.3757 18.4791C14.9488 18.5055 15.4125 18.385 15.8449 18.1106C16.3033 17.8198 16.9239 17.2277 17.5575 16.0114C18.1945 14.7885 18.7762 13.0654 19.2067 10.7155Z" fill="#E3F1DB"/>
<path fill-rule="evenodd" clip-rule="evenodd" d="M7.33552 32.246C7.58863 31.5935 7.67945 30.6248 7.38749 29.5352C7.09553 28.4456 6.53253 27.6521 5.9871 27.2136C5.43988 26.7736 5.08768 26.8002 4.96372 26.8335C4.83976 26.8667 4.52145 27.0197 4.26752 27.6744C4.01442 28.3268 3.92359 29.2955 4.21555 30.3851C4.50752 31.4748 5.07051 32.2682 5.61595 32.7068C6.16316 33.1467 6.51536 33.1201 6.63932 33.0869C6.76328 33.0537 7.0816 32.9006 7.33552 32.246ZM7.34157 35.7077C9.66491 35.0852 10.8589 32.0073 10.0083 28.833C9.15776 25.6587 6.58482 23.5901 4.26147 24.2126C1.93813 24.8352 0.744191 27.9131 1.59474 31.0874C2.44528 34.2617 5.01823 36.3303 7.34157 35.7077Z" fill="#E3F1DB"/>
<path fill-rule="evenodd" clip-rule="evenodd" d="M14.5715 32.0084C14.9848 31.4436 15.3233 30.5315 15.3233 29.4034C15.3233 28.2754 14.9848 27.3632 14.5715 26.7985C14.1568 26.2319 13.8097 26.1664 13.6814 26.1664C13.553 26.1664 13.2059 26.2319 12.7912 26.7985C12.3779 27.3632 12.0394 28.2754 12.0394 29.4034C12.0394 30.5315 12.3779 31.4436 12.7912 32.0084C13.2059 32.575 13.553 32.6404 13.6814 32.6404C13.8097 32.6404 14.1568 32.575 14.5715 32.0084ZM13.6814 35.3537C16.0867 35.3537 18.0365 32.6897 18.0365 29.4034C18.0365 26.1172 16.0867 23.4531 13.6814 23.4531C11.2761 23.4531 9.32617 26.1172 9.32617 29.4034C9.32617 32.6897 11.2761 35.3537 13.6814 35.3537Z" fill="#E3F1DB"/>
<path fill-rule="evenodd" clip-rule="evenodd" d="M21.3601 31.802C21.9056 31.3635 22.4686 30.57 22.7605 29.4804C23.0525 28.3908 22.9617 27.4221 22.7086 26.7696C22.4546 26.115 22.1363 25.9619 22.0124 25.9287C21.8884 25.8955 21.5362 25.8689 20.989 26.3088C20.4435 26.7473 19.8805 27.5408 19.5886 28.6305C19.2966 29.7201 19.3874 30.6887 19.6405 31.3412C19.8945 31.9958 20.2128 32.1489 20.3367 32.1821C20.4607 32.2153 20.8129 32.2419 21.3601 31.802ZM19.6345 34.8029C21.9578 35.4255 24.5308 33.3569 25.3813 30.1826C26.2319 27.0083 25.0379 23.9304 22.7146 23.3079C20.3913 22.6853 17.8183 24.7539 16.9678 27.9282C16.1172 31.1025 17.3112 34.1804 19.6345 34.8029Z" fill="#E3F1DB"/>
</svg>
