<svg width="136" height="139" viewBox="0 0 136 139" fill="none" xmlns="http://www.w3.org/2000/svg">
<circle cx="69.9549" cy="75.3107" r="6.96837" transform="rotate(29.7305 69.9549 75.3107)" stroke="white" stroke-width="6"/>
<circle cx="69.9539" cy="75.3084" r="13.8585" transform="rotate(29.7305 69.9539 75.3084)" stroke="white" stroke-width="2"/>
<path fill-rule="evenodd" clip-rule="evenodd" d="M54.0362 31.4659L47.4842 27.724L44.8115 32.4041L51.3635 36.1459L54.0362 31.4659ZM46.6813 24.7829L42.4069 32.2674L42.2693 32.1888L40.5326 31.197L39.5407 32.9337L31.1773 47.5783L27.1677 45.9088L21.5549 55.7368L24.8967 58.5759L18.0043 70.6445L17.0125 72.3812L18.7492 73.373L69.4288 102.316L90.158 114.154L91.8948 115.146L92.8866 113.409L109.215 84.8187L112.342 85.8605L115.015 81.1805L117.688 76.5004L115.201 74.3358L117.63 70.0826L118.622 68.3458L116.885 67.354L74.1619 42.9548L70.5054 48.3143L66.7404 46.1641L69.4133 41.4837L59.1173 35.6037L56.4443 40.2841L52.703 38.1475L56.9773 30.663L46.6813 24.7829ZM71.1169 50.9667L69.5135 50.051L41.2775 33.9256L32.9141 48.5701L32.0385 50.1033L30.4085 49.4246L28.0288 48.4338L24.1148 55.2873L26.1916 57.0517L27.4565 58.1264L26.6334 59.5677L19.7411 71.6363L70.4206 100.579L91.1499 112.417L107.478 83.8269L108.291 82.4031L109.847 82.9212L111.419 83.4449L113.278 80.1886L115.138 76.9324L113.888 75.8443L112.651 74.7677L113.465 73.344L115.894 69.0907L74.7735 45.6072L72.1575 49.4415L71.1169 50.9667ZM59.9202 38.5448L66.4722 42.2866L65.4031 44.1586L58.8511 40.4168L59.9202 38.5448Z" fill="white"/>
<circle cx="69.9547" cy="75.3078" r="18.402" transform="rotate(29.7305 69.9547 75.3078)" stroke="white" stroke-width="2"/>
<rect x="43.1543" y="36.917" width="10.6932" height="37.5307" rx="2" transform="rotate(29.8781 43.1543 36.917)" fill="white"/>
</svg>
