<svg width="225" height="198" viewBox="0 0 225 198" fill="none" xmlns="http://www.w3.org/2000/svg">
<path fill-rule="evenodd" clip-rule="evenodd" d="M91.4363 116.918C94.9786 115.45 100.45 113.506 104.958 112.911C106.042 112.768 106.997 112.334 107.696 111.595C108.398 110.854 108.779 109.873 108.834 108.756C108.943 106.562 107.81 103.798 105.325 100.766C100.329 94.6692 89.4974 87.0217 69.8539 79.8663C45.8697 71.1296 32.8144 62.7333 26.9689 57.5751C33.2441 60.7232 41.4952 64.7187 49.3807 68.2385C57.9133 72.0471 66.1128 75.3426 70.9027 76.3634C83.405 79.0279 103.645 89.1332 116.158 103.644C119.471 107.486 125.905 111.161 133.614 114.553C141.364 117.964 150.553 121.151 159.515 123.96C168.481 126.771 177.241 129.211 184.137 131.125L184.701 131.282C187.913 132.173 190.693 132.945 192.875 133.583C195.213 134.266 196.787 134.774 197.484 135.097C198.932 135.769 199.707 136.527 200.001 137.121C200.142 137.406 200.164 137.632 200.134 137.804C200.104 137.973 200.012 138.166 199.791 138.367C199.323 138.793 198.317 139.21 196.584 139.268C194.878 139.326 192.583 139.031 189.684 138.175L167.588 131.65C160.26 129.486 153.466 131.101 149.614 132.757C149.611 132.758 149.605 132.761 149.589 132.758C149.569 132.754 149.542 132.743 149.516 132.722C149.504 132.711 149.496 132.702 149.491 132.695C150.439 129.448 148.584 126.028 145.307 125.114C138.894 123.324 130.596 121.177 122.994 119.575C119.194 118.775 115.556 118.108 112.409 117.691C109.281 117.276 106.57 117.098 104.655 117.308C98.8393 117.946 94.2315 117.483 91.4363 116.918ZM147.716 132.192C147.478 132.999 147.838 133.729 148.344 134.146C148.845 134.558 149.607 134.767 150.343 134.451C153.927 132.91 160.267 131.411 167.065 133.419L189.162 139.944C192.191 140.839 194.689 141.178 196.646 141.112C198.574 141.047 200.099 140.583 201.034 139.73C201.515 139.292 201.842 138.745 201.951 138.121C202.059 137.499 201.938 136.877 201.655 136.304C201.1 135.182 199.903 134.186 198.26 133.424C197.41 133.03 195.688 132.483 193.393 131.812C191.198 131.171 188.406 130.396 185.201 129.506L184.631 129.348C177.734 127.434 169 125.001 160.067 122.2C151.131 119.399 142.016 116.236 134.357 112.865C126.654 109.476 120.571 105.938 117.555 102.44C104.753 87.5932 84.142 77.299 71.2871 74.5594C66.7182 73.5857 58.6936 70.3754 50.1325 66.5541C41.6032 62.7469 32.6356 58.3768 26.2261 55.1358C25.5103 54.7739 24.6334 54.8489 24.1162 55.4894C23.5688 56.1675 23.7474 57.0633 24.3393 57.6473C29.6471 62.8851 43.079 72.0762 69.2226 81.5994C88.7272 88.7043 99.2034 96.2062 103.898 101.935C106.259 104.815 107.068 107.134 106.992 108.664C106.955 109.41 106.712 109.951 106.357 110.327C105.998 110.706 105.46 110.984 104.716 111.083C98.7207 111.874 91.2574 114.889 88.2821 116.289L86.3286 117.208L88.3431 117.984C90.4346 118.79 96.5037 120.057 104.856 119.142C106.538 118.958 109.064 119.108 112.167 119.519C115.25 119.928 118.838 120.585 122.614 121.38C130.164 122.971 138.421 125.107 144.811 126.89C147.086 127.525 148.39 129.909 147.716 132.192Z" fill="white"/>
<path d="M35.2977 75.4879C38.4258 76.6327 42.5964 78.1576 46.3154 79.2559C54.2843 81.6109 58.6277 87.0186 63.8773 82.378C74.8136 72.7102 69.8717 64.0348 66.462 59.9332C63.0522 55.8316 55.6957 57.2696 43.6161 53.1867C31.5366 49.1038 27.9997 72.817 35.2977 75.4879Z" fill="white"/>
<path fill-rule="evenodd" clip-rule="evenodd" d="M46.3868 72.9345C45.3395 72.5269 44.2914 72.1209 43.2844 71.7616C40.5555 70.7882 39.2167 69.3358 38.5635 68.0554C37.8824 66.7204 37.8778 65.4386 38.0225 64.7787C38.2407 63.7837 37.6109 62.8001 36.6158 62.582C35.6207 62.3638 34.6372 62.9936 34.419 63.9887C34.1016 65.4362 34.187 67.5948 35.2773 69.732C36.3956 71.9238 38.5097 73.9753 42.0449 75.2363C42.9954 75.5754 43.9969 75.963 45.0486 76.3724C45.128 76.4033 45.2077 76.4343 45.2876 76.4654C46.2586 76.8435 47.2686 77.2368 48.2829 77.6095C50.4656 78.4114 52.7748 79.1589 54.9745 79.4976C57.1601 79.8342 59.4508 79.8024 61.4614 78.8186C63.549 77.7971 65.0352 75.8999 65.8517 73.1352C66.1402 72.1582 65.582 71.1322 64.605 70.8437C63.628 70.5552 62.6021 71.1134 62.3136 72.0904C61.7239 74.0873 60.8085 75.031 59.84 75.5049C58.7945 76.0165 57.3747 76.1347 55.536 75.8515C53.7116 75.5705 51.6829 74.9284 49.5552 74.1467C48.5757 73.7868 47.5978 73.406 46.6204 73.0255C46.5425 72.9951 46.4646 72.9648 46.3868 72.9345Z" fill="#7CB45B"/>
</svg>
