<svg width="136" height="81" viewBox="0 0 136 81" fill="none" xmlns="http://www.w3.org/2000/svg">
<path fill-rule="evenodd" clip-rule="evenodd" d="M30.3786 4.15267C44.4742 3.35259 65.0621 3.35146 90.9859 3.84219C101.434 4.03997 107.69 5.34349 111.307 6.57399L12.1849 6.57397C12.7982 6.36652 13.5294 6.163 14.3862 5.96722C17.9571 5.15125 23.3191 4.55337 30.3786 4.15267ZM116.784 7.93063L117.816 7.05009L119 9.27734L7.12328 9.28724V7.93061C7.12328 6.5149 8.13659 5.54805 9.2182 4.9199C10.3347 4.27151 11.8924 3.75385 13.7818 3.32212C17.5839 2.45334 23.1327 1.84631 30.2248 1.44376C44.4323 0.637329 65.1103 0.638615 91.0372 1.1294C101.871 1.33448 108.464 2.70878 112.397 4.07962C114.365 4.76597 115.674 5.45381 116.514 5.99863C116.935 6.27106 117.237 6.50739 117.447 6.68924C117.551 6.78012 117.632 6.85723 117.693 6.91823C117.723 6.94872 117.748 6.97516 117.769 6.99724C117.779 7.00828 117.839 7.0942 117.795 7.02706L117.806 7.03943L117.811 7.04498L117.813 7.04759C117.813 7.04759 117.816 7.05009 116.784 7.93063Z" fill="#E3F1DB"/>
<path fill-rule="evenodd" clip-rule="evenodd" d="M83.9258 13.2152H86.8076C89.3051 13.2152 91.3297 15.2398 91.3297 17.7373V18.6826C91.3297 21.1801 89.3051 23.2047 86.8076 23.2047H83.9258C81.4284 23.2047 79.4037 21.1801 79.4037 18.6826V17.7373C79.4037 15.2398 81.4283 13.2152 83.9258 13.2152ZM86.8076 10.502C90.8036 10.502 94.043 13.7414 94.043 17.7373V18.6826C94.043 22.6786 90.8036 25.918 86.8076 25.918H83.9258C79.9299 25.918 76.6905 22.6786 76.6905 18.6826V17.7373C76.6905 13.7413 79.9298 10.502 83.9258 10.502H86.8076Z" fill="#E3F1DB"/>
<path fill-rule="evenodd" clip-rule="evenodd" d="M62.6856 13.2152H65.5673C68.0648 13.2152 70.0895 15.2398 70.0895 17.7373V18.6826C70.0895 21.1801 68.0648 23.2047 65.5674 23.2047H62.6856C60.1881 23.2047 58.1635 21.1801 58.1635 18.6826V17.7373C58.1635 15.2398 60.1881 13.2152 62.6856 13.2152ZM65.5673 10.502C69.5633 10.502 72.8027 13.7414 72.8027 17.7373V18.6826C72.8027 22.6786 69.5633 25.918 65.5674 25.918H62.6856C58.6896 25.918 55.4502 22.6786 55.4502 18.6826V17.7373C55.4502 13.7413 58.6896 10.502 62.6856 10.502H65.5673Z" fill="#E3F1DB"/>
<path fill-rule="evenodd" clip-rule="evenodd" d="M41.4434 13.2152H44.3252C46.8227 13.2152 48.8473 15.2398 48.8473 17.7373V18.6826C48.8473 21.1801 46.8227 23.2047 44.3252 23.2047H41.4434C38.9459 23.2047 36.9213 21.1801 36.9213 18.6826V17.7373C36.9213 15.2398 38.9459 13.2152 41.4434 13.2152ZM44.3252 10.502C48.3212 10.502 51.5605 13.7414 51.5605 17.7373V18.6826C51.5605 22.6786 48.3212 25.918 44.3252 25.918H41.4434C37.4474 25.918 34.208 22.6786 34.208 18.6826V17.7373C34.208 13.7413 37.4474 10.502 41.4434 10.502H44.3252Z" fill="#E3F1DB"/>
<path fill-rule="evenodd" clip-rule="evenodd" d="M11.3725 62.0336C11.012 63.8828 9.3833 65.2785 7.42858 65.2785H5.03275C4.13668 65.2785 3.41027 64.5521 3.41027 63.6561C3.41027 62.76 4.13668 62.0336 5.03275 62.0336H11.3725ZM13.2557 59.3203C13.7552 59.3203 14.1602 59.7252 14.1602 60.2247V61.2602C14.1602 64.978 11.1463 67.9918 7.42858 67.9918H5.03275C2.63818 67.9918 0.697002 66.0506 0.697002 63.6561C0.697002 61.2615 2.63818 59.3203 5.03275 59.3203H13.2557Z" fill="#E3F1DB"/>
<path fill-rule="evenodd" clip-rule="evenodd" d="M116.084 6.75799C115.435 7.13255 115.213 7.96224 115.587 8.61114L130.651 34.7092C130.886 35.3007 131.412 37.1676 131.412 39.7285V58.9265H123.3L120.457 53.0083C119.178 50.3438 116.483 48.6492 113.528 48.6492H103.796C101.049 48.6492 98.8216 46.4221 98.8216 43.6748V28.9694C98.8216 28.2201 98.2142 27.6127 97.465 27.6127C96.7157 27.6127 96.1083 28.2201 96.1083 28.9694V43.6748C96.1083 47.9206 99.5502 51.3624 103.796 51.3624H113.528C115.44 51.3624 117.183 52.459 118.012 54.183L121.593 61.6398H134.125V39.7285C134.125 36.74 133.497 34.4564 133.117 33.5722L133.086 33.4989L118 7.27734C118.063 7.30008 116.733 6.38344 116.084 6.75799Z" fill="#E3F1DB"/>
<path fill-rule="evenodd" clip-rule="evenodd" d="M127.847 33.0811C129.615 34.9209 130.881 37.2565 131.552 39.1439C131.803 39.8499 132.579 40.2188 133.285 39.9678C133.991 39.7169 134.36 38.9412 134.109 38.2352C133.334 36.0545 131.885 33.3672 129.804 31.2012C127.718 29.0301 124.895 27.2871 121.417 27.2871H5.18554C4.43629 27.2871 3.82891 27.8945 3.82891 28.6437C3.82891 29.393 4.43629 30.0004 5.18554 30.0004H121.417C123.923 30.0004 126.084 31.2463 127.847 33.0811Z" fill="#E3F1DB"/>
<path fill-rule="evenodd" clip-rule="evenodd" d="M122.436 29.142C120.335 27.2979 117.802 26.7365 116.073 26.9427C115.329 27.0315 114.798 27.7065 114.887 28.4505C114.976 29.1945 115.651 29.7256 116.395 29.6369C117.358 29.522 119.123 29.8448 120.646 31.1813C122.118 32.4729 123.472 34.814 123.472 38.9226V60.441C123.472 61.1902 124.079 61.7976 124.829 61.7976C125.578 61.7976 126.185 61.1902 126.185 60.441V45.2575H132.831C133.58 45.2575 134.188 44.6501 134.188 43.9009C134.188 43.1516 133.58 42.5442 132.831 42.5442H126.185V40.2792H131.926C132.676 40.2792 133.283 39.6718 133.283 38.9226C133.283 38.1733 132.676 37.5659 131.926 37.5659H126.14C125.866 33.5621 124.377 30.8452 122.436 29.142Z" fill="#E3F1DB"/>
<path fill-rule="evenodd" clip-rule="evenodd" d="M8.69801 6.62737C7.97738 6.42225 7.22692 6.84016 7.0218 7.56078C5.92345 11.4195 3.67898 20.733 3.67898 26.7204V50.8451L3.68101 50.8822C3.78549 52.7887 4.48395 57.4494 6.58976 60.699C6.99722 61.3277 7.83725 61.5072 8.46602 61.0997C9.09479 60.6922 9.27419 59.8522 8.86673 59.2234C7.15483 56.5817 6.49427 52.5232 6.39225 50.7697V26.7204C6.39225 21.1459 8.53577 12.1528 9.63142 8.30358C9.83654 7.58295 9.41863 6.83249 8.69801 6.62737Z" fill="#E3F1DB"/>
<path fill-rule="evenodd" clip-rule="evenodd" d="M13.5652 6.73535C12.816 6.73535 12.2086 7.34274 12.2086 8.09199V60.4422C12.2086 61.1914 12.816 61.7988 13.5652 61.7988C14.3145 61.7988 14.9219 61.1914 14.9219 60.4422V8.09199C14.9219 7.34274 14.3145 6.73535 13.5652 6.73535Z" fill="#E3F1DB"/>
<path fill-rule="evenodd" clip-rule="evenodd" d="M30.9453 33.6223C30.9453 32.873 30.3379 32.2656 29.5887 32.2656H18.9677C18.2185 32.2656 17.6111 32.873 17.6111 33.6223C17.6111 34.3715 18.2185 34.9789 18.9677 34.9789H29.5887C30.3379 34.9789 30.9453 34.3715 30.9453 33.6223Z" fill="#E3F1DB"/>
<path fill-rule="evenodd" clip-rule="evenodd" d="M30.9453 37.1555C30.9453 36.4062 30.3379 35.7988 29.5887 35.7988H18.9677C18.2185 35.7988 17.6111 36.4062 17.6111 37.1555C17.6111 37.9047 18.2185 38.5121 18.9677 38.5121H29.5887C30.3379 38.5121 30.9453 37.9047 30.9453 37.1555Z" fill="#E3F1DB"/>
<path fill-rule="evenodd" clip-rule="evenodd" d="M30.9453 40.6896C30.9453 39.9404 30.3379 39.333 29.5887 39.333H18.9677C18.2185 39.333 17.6111 39.9404 17.6111 40.6896C17.6111 41.4389 18.2185 42.0463 18.9677 42.0463H29.5887C30.3379 42.0463 30.9453 41.4389 30.9453 40.6896Z" fill="#E3F1DB"/>
<path fill-rule="evenodd" clip-rule="evenodd" d="M30.9453 44.2228C30.9453 43.4736 30.3379 42.8662 29.5887 42.8662H18.9677C18.2185 42.8662 17.6111 43.4736 17.6111 44.2228C17.6111 44.9721 18.2185 45.5795 18.9677 45.5795H29.5887C30.3379 45.5795 30.9453 44.9721 30.9453 44.2228Z" fill="#E3F1DB"/>
<path fill-rule="evenodd" clip-rule="evenodd" d="M35.1061 57.9428C38.0974 57.9428 40.8864 59.4537 42.5203 61.9594C44.1526 64.4625 46.9388 65.9719 49.9271 65.9719H94.7879C95.5371 65.9719 96.1445 65.3645 96.1445 64.6153C96.1445 63.866 95.5371 63.2587 94.7879 63.2587H49.9271C47.8557 63.2587 45.9245 62.2124 44.7931 60.4773C42.6583 57.2035 39.0144 55.2295 35.1061 55.2295H21.1942C17.9561 55.2295 14.8546 56.5343 12.5904 58.8492C12.0665 59.3848 12.076 60.2437 12.6116 60.7676C13.1472 61.2915 14.0061 61.282 14.53 60.7464C16.2838 58.9534 18.6861 57.9428 21.1942 57.9428H35.1061Z" fill="#E3F1DB"/>
<path fill-rule="evenodd" clip-rule="evenodd" d="M108.103 77.8019C102.179 77.8019 97.0538 72.5866 97.0538 65.7414C97.0538 58.8963 102.179 53.681 108.103 53.681C114.027 53.681 119.152 58.8963 119.152 65.7414C119.152 72.5866 114.027 77.8019 108.103 77.8019ZM108.103 80.5151C100.502 80.5151 94.3406 73.9007 94.3406 65.7414C94.3406 57.5822 100.502 50.9678 108.103 50.9678C115.704 50.9678 121.865 57.5822 121.865 65.7414C121.865 73.9007 115.704 80.5151 108.103 80.5151Z" fill="#E3F1DB"/>
<path fill-rule="evenodd" clip-rule="evenodd" d="M108.105 72.3412C104.99 72.3412 102.142 69.5704 102.142 65.7406C102.142 61.9108 104.99 59.14 108.105 59.14C111.22 59.14 114.068 61.9108 114.068 65.7406C114.068 69.5704 111.22 72.3412 108.105 72.3412ZM108.105 75.0544C103.313 75.0544 99.4287 70.8845 99.4287 65.7406C99.4287 60.5967 103.313 56.4268 108.105 56.4268C112.897 56.4268 116.781 60.5967 116.781 65.7406C116.781 70.8845 112.897 75.0544 108.105 75.0544Z" fill="#E3F1DB"/>
<path fill-rule="evenodd" clip-rule="evenodd" d="M108.106 67.5226C107.47 67.5226 106.631 66.9087 106.631 65.7395C106.631 64.5703 107.47 63.9564 108.106 63.9564C108.743 63.9564 109.582 64.5703 109.582 65.7395C109.582 66.9087 108.743 67.5226 108.106 67.5226ZM108.106 70.2358C105.793 70.2358 103.918 68.2228 103.918 65.7395C103.918 63.2562 105.793 61.2432 108.106 61.2432C110.42 61.2432 112.295 63.2562 112.295 65.7395C112.295 68.2228 110.42 70.2358 108.106 70.2358Z" fill="#E3F1DB"/>
<path d="M106.908 36.5137H100.925V40.0465H106.908V36.5137Z" fill="#E3F1DB"/>
<path fill-rule="evenodd" clip-rule="evenodd" d="M103.169 11.6278C103.604 11.5437 104.158 11.5375 105.65 11.5375H118.275C119.025 11.5375 119.632 10.9301 119.632 10.1809C119 9.27734 119.025 8.82426 118.275 8.82426H105.65C105.596 8.82426 105.542 8.82425 105.489 8.82424C104.215 8.824 103.379 8.82385 102.655 8.9637C99.5711 9.55916 97.1597 11.9706 96.5642 15.0543C96.4244 15.7785 96.4245 16.6143 96.4248 17.8887C96.4248 17.9415 96.4248 17.9951 96.4248 18.0495C96.4248 18.1038 96.4248 18.1574 96.4248 18.2102C96.4245 19.4847 96.4244 20.3204 96.5642 21.0447C97.1597 24.1284 99.5711 26.5398 102.655 27.1353C103.379 27.2751 104.215 27.275 105.489 27.2747C105.542 27.2747 105.596 27.2747 105.65 27.2747H127.251C128 27.2747 128.607 26.6673 128.607 25.9181C128.607 25.1688 128 24.5614 127.251 24.5614H105.65C104.158 24.5614 103.604 24.5552 103.169 24.4712C101.174 24.0859 99.6136 22.5256 99.2283 20.5302C99.1443 20.0951 99.1381 19.5415 99.1381 18.0495C99.1381 16.5575 99.1443 16.0039 99.2283 15.5687C99.6136 13.5734 101.174 12.0131 103.169 11.6278Z" fill="#E3F1DB"/>
<path fill-rule="evenodd" clip-rule="evenodd" d="M121.665 25.5142L112.842 9.29356L110.552 10.7363L119.374 26.957L121.665 25.5142Z" fill="#E3F1DB"/>
<path fill-rule="evenodd" clip-rule="evenodd" d="M124.824 62.9955H131.177C131.807 62.9955 132.318 63.5062 132.318 64.1362C132.318 64.7662 131.807 65.277 131.177 65.277H124.824C124.194 65.277 123.683 64.7662 123.683 64.1362C123.683 63.5062 124.194 62.9955 124.824 62.9955ZM131.177 60.2822C133.306 60.2822 135.031 62.0077 135.031 64.1362C135.031 66.2647 133.306 67.9902 131.177 67.9902H124.824C122.695 67.9902 120.97 66.2647 120.97 64.1362C120.97 62.0077 122.695 60.2822 124.824 60.2822H131.177Z" fill="#E3F1DB"/>
<path fill-rule="evenodd" clip-rule="evenodd" d="M27.9273 72.3392C24.812 72.3392 21.9643 69.5685 21.9643 65.7386C21.9643 61.9088 24.812 59.1381 27.9273 59.1381C31.0425 59.1381 33.8902 61.9088 33.8902 65.7386C33.8902 69.5685 31.0425 72.3392 27.9273 72.3392ZM27.9273 75.0525C23.1355 75.0525 19.251 70.8825 19.251 65.7386C19.251 60.5948 23.1355 56.4248 27.9273 56.4248C32.719 56.4248 36.6035 60.5948 36.6035 65.7386C36.6035 70.8825 32.719 75.0525 27.9273 75.0525Z" fill="#E3F1DB"/>
<path fill-rule="evenodd" clip-rule="evenodd" d="M27.9247 67.5226C27.288 67.5226 26.4495 66.9087 26.4495 65.7395C26.4495 64.5703 27.288 63.9564 27.9247 63.9564C28.5615 63.9564 29.4 64.5703 29.4 65.7395C29.4 66.9087 28.5615 67.5226 27.9247 67.5226ZM27.9247 70.2358C25.6115 70.2358 23.7362 68.2228 23.7362 65.7395C23.7362 63.2562 25.6115 61.2432 27.9247 61.2432C30.238 61.2432 32.1133 63.2562 32.1133 65.7395C32.1133 68.2228 30.238 70.2358 27.9247 70.2358Z" fill="#E3F1DB"/>
<path fill-rule="evenodd" clip-rule="evenodd" d="M38.845 56.7441C40.6277 59.235 41.6875 62.3531 41.6875 65.737C41.6875 73.8963 35.5259 80.5107 27.9252 80.5107C20.3244 80.5107 14.1628 73.8963 14.1628 65.737C14.1628 62.3531 15.2226 59.235 17.0053 56.7441H21.1565C18.7153 58.8638 17.1543 62.1054 17.1543 65.7385C17.1543 72.124 21.9764 77.3005 27.9248 77.3005C33.8732 77.3005 38.6953 72.124 38.6953 65.7385C38.6953 62.1054 37.1344 58.8638 34.6931 56.7441H38.845Z" fill="#E3F1DB"/>
</svg>
