<svg width="748" height="298" viewBox="0 0 748 298" fill="none" xmlns="http://www.w3.org/2000/svg">
<path fill-rule="evenodd" clip-rule="evenodd" d="M119.666 114.544L129.373 123.972C130.09 124.668 130.106 125.813 129.41 126.53C128.714 127.246 127.569 127.263 126.852 126.567L122.001 121.855V136.363L129.373 143.523C130.09 144.219 130.106 145.364 129.41 146.081C128.714 146.798 127.569 146.814 126.852 146.118L122.001 141.406V155.915L129.373 163.074C130.09 163.77 130.106 164.916 129.41 165.632C128.714 166.349 127.569 166.366 126.852 165.67L122.001 160.958V175.466L129.373 182.626C130.09 183.322 130.106 184.467 129.41 185.184C128.714 185.9 127.569 185.917 126.852 185.221L122.001 180.509V222.599C122.001 223.598 121.191 224.408 120.192 224.408C119.193 224.408 118.383 223.598 118.383 222.599V180.333L113.659 185.939C113.015 186.703 111.874 186.8 111.11 186.156C110.346 185.513 110.249 184.371 110.893 183.608L118.383 174.72V160.782L113.659 166.388C113.015 167.152 111.874 167.249 111.11 166.605C110.346 165.961 110.249 164.82 110.893 164.056L118.383 155.168V141.231L113.659 146.836C113.015 147.6 111.874 147.698 111.11 147.054C110.346 146.41 110.249 145.269 110.893 144.505L118.383 135.617V121.679L113.659 127.285C113.015 128.049 111.874 128.146 111.11 127.502C110.346 126.859 110.249 125.717 110.893 124.954L119.666 114.544Z" fill="#E3F1DB"/>
<path fill-rule="evenodd" clip-rule="evenodd" d="M690.59 124.348L700.297 133.775C701.013 134.471 701.03 135.617 700.334 136.333C699.638 137.05 698.493 137.067 697.776 136.371L692.927 131.661V146.169L700.297 153.327C701.014 154.023 701.03 155.168 700.334 155.885C699.638 156.601 698.493 156.618 697.776 155.922L692.927 151.212V163.169L700.297 170.327C701.014 171.023 701.03 172.168 700.334 172.885C699.638 173.601 698.493 173.618 697.776 172.922L692.927 168.212V180.169L700.297 187.326C701.014 188.022 701.03 189.168 700.334 189.884C699.638 190.601 698.493 190.618 697.776 189.922L692.927 185.212V194.621L700.297 201.779C701.014 202.475 701.03 203.62 700.334 204.337C699.638 205.053 698.493 205.07 697.776 204.374L692.927 199.664V232.401C692.927 233.4 692.117 234.209 691.118 234.209C690.119 234.209 689.309 233.4 689.309 232.401V199.484L684.583 205.092C683.939 205.856 682.798 205.953 682.034 205.309C681.27 204.666 681.173 203.524 681.816 202.761L689.309 193.87V185.032L684.583 190.64C683.939 191.404 682.798 191.501 682.034 190.857C681.27 190.213 681.173 189.072 681.816 188.308L689.309 179.418V168.032L684.583 173.64C683.939 174.404 682.798 174.501 682.034 173.857C681.27 173.214 681.173 172.072 681.816 171.309L689.309 162.418V151.032L684.583 156.64C683.939 157.404 682.798 157.502 682.034 156.858C681.27 156.214 681.173 155.073 681.816 154.309L689.309 145.419V131.48L684.583 137.089C683.939 137.853 682.798 137.95 682.034 137.306C681.27 136.662 681.173 135.521 681.816 134.757L690.59 124.348Z" fill="#E3F1DB"/>
<path fill-rule="evenodd" clip-rule="evenodd" d="M661.559 155.105L651.852 145.677L643.078 156.086C642.434 156.85 642.532 157.991 643.296 158.635C644.059 159.279 645.201 159.182 645.844 158.418L650.508 152.885V166.264L643.078 175.079C642.434 175.843 642.532 176.984 643.296 177.628C644.059 178.272 645.201 178.174 645.844 177.411L650.508 171.878V179.83L643.078 188.645C642.434 189.409 642.532 190.55 643.296 191.194C644.059 191.838 645.201 191.741 645.844 190.977L650.508 185.444V193.397L643.078 202.212C642.434 202.975 642.532 204.117 643.296 204.76C644.059 205.404 645.201 205.307 645.844 204.543L650.508 199.01V214.198L643.078 223.013C642.434 223.777 642.532 224.918 643.296 225.562C644.059 226.206 645.201 226.108 645.844 225.345L650.508 219.812V253.199C650.508 254.198 651.318 255.008 652.317 255.008C653.316 255.008 654.125 254.198 654.125 253.199V219.855L659.038 224.626C659.755 225.322 660.9 225.306 661.596 224.589C662.292 223.872 662.275 222.727 661.559 222.031L654.125 214.812V199.053L659.038 203.825C659.755 204.521 660.9 204.504 661.596 203.788C662.292 203.071 662.275 201.926 661.559 201.23L654.125 194.01V185.487L659.038 190.259C659.755 190.955 660.9 190.938 661.596 190.221C662.292 189.505 662.275 188.36 661.559 187.663L654.125 180.444V171.921L659.038 176.692C659.755 177.388 660.9 177.372 661.596 176.655C662.292 175.938 662.275 174.793 661.559 174.097L654.125 166.878V152.928L659.038 157.7C659.755 158.396 660.9 158.379 661.596 157.662C662.292 156.946 662.275 155.801 661.559 155.105Z" fill="#E3F1DB"/>
<path fill-rule="evenodd" clip-rule="evenodd" d="M168.169 123.972L158.463 114.544L149.689 124.954C149.045 125.717 149.142 126.859 149.906 127.502C150.67 128.146 151.811 128.049 152.455 127.285L157.184 121.674V135.612L149.689 144.505C149.045 145.269 149.142 146.41 149.906 147.054C150.67 147.698 151.811 147.6 152.455 146.836L157.184 141.226V150.914L149.689 159.806C149.045 160.57 149.142 161.711 149.906 162.355C150.67 162.999 151.811 162.902 152.455 162.138L157.184 156.527V163.434L149.656 172.366C149.012 173.13 149.11 174.271 149.874 174.915C150.638 175.558 151.779 175.461 152.422 174.697L157.184 169.048V180.774L149.689 189.666C149.045 190.43 149.142 191.571 149.906 192.215C150.67 192.859 151.811 192.762 152.455 191.998L157.184 186.387V222.599C157.184 223.598 157.994 224.408 158.993 224.408C159.992 224.408 160.802 223.598 160.802 222.599V186.572L165.649 191.28C166.365 191.976 167.511 191.959 168.207 191.242C168.903 190.526 168.886 189.38 168.169 188.684L160.802 181.529V169.303L165.616 173.979C166.333 174.675 167.478 174.658 168.174 173.942C168.87 173.225 168.853 172.08 168.137 171.384L160.802 164.26V156.712L165.649 161.42C166.365 162.116 167.511 162.099 168.207 161.382C168.903 160.666 168.886 159.52 168.169 158.824L160.802 151.669V141.41L165.649 146.118C166.365 146.814 167.511 146.798 168.207 146.081C168.903 145.364 168.886 144.219 168.169 143.523L160.802 136.367V121.859L165.649 126.567C166.365 127.263 167.511 127.246 168.207 126.53C168.903 125.813 168.886 124.668 168.169 123.972Z" fill="#E3F1DB"/>
<path fill-rule="evenodd" clip-rule="evenodd" d="M191.725 67.791L201.432 77.2188C202.148 77.9148 202.165 79.06 201.469 79.7766C200.773 80.4933 199.628 80.51 198.911 79.8139L194.06 75.1021L194.06 89.6103L201.432 96.7701C202.148 97.4662 202.165 98.6113 201.469 99.328C200.773 100.045 199.628 100.061 198.911 99.3653L194.06 94.6535L194.06 106.61L201.432 113.77C202.148 114.466 202.165 115.611 201.469 116.328C200.773 117.044 199.628 117.061 198.911 116.365L194.06 111.653L194.06 125.312L201.432 132.472C202.148 133.168 202.165 134.313 201.469 135.03C200.773 135.746 199.628 135.763 198.911 135.067L194.06 130.355V143.161L201.432 150.321C202.148 151.017 202.165 152.162 201.469 152.879C200.773 153.595 199.628 153.612 198.911 152.916L194.06 148.204L194.06 164.415L201.432 171.575C202.148 172.271 202.165 173.416 201.469 174.132C200.773 174.849 199.628 174.866 198.911 174.17L194.06 169.458L194.06 211.547C194.06 212.546 193.25 213.356 192.251 213.356C191.252 213.356 190.442 212.546 190.442 211.547L190.442 169.282L185.717 174.888C185.074 175.652 183.932 175.749 183.169 175.105C182.405 174.462 182.307 173.32 182.951 172.557L190.442 163.669L190.442 148.028L185.717 153.634C185.074 154.398 183.932 154.495 183.169 153.852C182.405 153.208 182.307 152.067 182.951 151.303L190.442 142.415L190.442 130.18L185.717 135.785C185.074 136.549 183.932 136.647 183.169 136.003C182.405 135.359 182.307 134.218 182.951 133.454L190.442 124.566L190.442 111.477L185.717 117.083C185.074 117.847 183.932 117.944 183.169 117.301C182.405 116.657 182.307 115.516 182.951 114.752L190.442 105.864L190.442 94.4777L185.717 100.083C185.074 100.847 183.932 100.945 183.169 100.301C182.405 99.657 182.307 98.5159 182.951 97.752L190.442 88.8641L190.442 74.9264L185.717 80.5321C185.074 81.296 183.932 81.3933 183.169 80.7495C182.405 80.1057 182.307 78.9646 182.951 78.2007L191.725 67.791Z" fill="#E3F1DB"/>
<path fill-rule="evenodd" clip-rule="evenodd" d="M221.815 55.04L231.521 64.4678C232.238 65.1638 232.255 66.309 231.559 67.0257C230.863 67.7423 229.718 67.759 229.001 67.063L224.152 62.3532V74.3097L231.521 81.4676C232.238 82.1636 232.255 83.3088 231.559 84.0254C230.863 84.742 229.718 84.7587 229.001 84.0627L224.152 79.3529L224.152 94.7102L231.521 101.868C232.238 102.564 232.255 103.709 231.559 104.426C230.863 105.142 229.718 105.159 229.001 104.463L224.152 99.7534L224.152 115.113L231.521 122.271C232.238 122.967 232.255 124.112 231.559 124.828C230.863 125.545 229.718 125.562 229.001 124.866L224.152 120.156V132.115L231.521 139.272C232.238 139.968 232.255 141.114 231.559 141.83C230.863 142.547 229.718 142.564 229.001 141.867L224.152 137.158V151.666L231.521 158.824C232.238 159.52 232.255 160.665 231.559 161.382C230.863 162.098 229.718 162.115 229.001 161.419L224.152 156.709L224.152 207.297C224.152 208.296 223.342 209.106 222.343 209.106C221.344 209.106 220.534 208.296 220.534 207.297L220.534 156.529L215.807 162.137C215.163 162.901 214.022 162.998 213.258 162.354C212.495 161.711 212.397 160.569 213.041 159.806L220.534 150.915L220.534 136.977L215.807 142.586C215.163 143.35 214.022 143.447 213.258 142.803C212.495 142.159 212.397 141.018 213.041 140.254L220.534 131.364L220.534 119.976L215.807 125.584C215.163 126.348 214.022 126.445 213.258 125.801C212.495 125.157 212.397 124.016 213.041 123.252L220.534 114.362L220.534 99.5732L215.807 105.181C215.163 105.945 214.022 106.043 213.258 105.399C212.495 104.755 212.397 103.614 213.041 102.85L220.534 93.9596L220.534 79.1727L215.807 84.7809C215.163 85.5448 214.022 85.6421 213.258 84.9983C212.495 84.3545 212.397 83.2133 213.041 82.4494L220.534 73.5591L220.534 62.173L215.807 67.7812C215.163 68.545 214.022 68.6424 213.258 67.9986C212.495 67.3547 212.397 66.2136 213.041 65.4497L221.815 55.04Z" fill="#E3F1DB"/>
<path fill-rule="evenodd" clip-rule="evenodd" d="M250.318 78.8438L260.025 88.2715C260.742 88.9676 260.759 90.1127 260.063 90.8294C259.367 91.546 258.221 91.5627 257.505 90.8667L252.336 85.8468L252.336 102.053L260.025 109.521C260.742 110.217 260.759 111.362 260.063 112.079C259.367 112.796 258.221 112.812 257.505 112.116L252.336 107.096L252.336 127.557L260.025 135.025C260.742 135.721 260.759 136.866 260.063 137.583C259.367 138.299 258.221 138.316 257.505 137.62L252.336 132.6L252.336 147.106L260.025 154.574C260.742 155.27 260.759 156.415 260.063 157.132C259.367 157.849 258.221 157.865 257.505 157.169L252.336 152.149L252.336 168.358L260.025 175.826C260.742 176.522 260.759 177.667 260.063 178.384C259.367 179.1 258.221 179.117 257.505 178.421L252.336 173.401V181.652L260.39 189.474C261.106 190.17 261.123 191.315 260.427 192.032C259.731 192.748 258.586 192.765 257.869 192.069L252.336 186.695L252.336 240.578C252.336 241.577 251.527 242.387 250.528 242.387C249.529 242.387 248.719 241.577 248.719 240.578L248.719 187.99L244.675 192.787C244.032 193.551 242.89 193.648 242.127 193.005C241.363 192.361 241.265 191.22 241.909 190.456L248.719 182.376L248.719 173.91L244.311 179.139C243.667 179.903 242.526 180 241.762 179.357C240.998 178.713 240.901 177.572 241.545 176.808L248.719 168.296L248.719 152.658L244.311 157.887C243.667 158.651 242.526 158.749 241.762 158.105C240.998 157.461 240.901 156.32 241.545 155.556L248.719 147.044L248.719 133.109L244.311 138.338C243.667 139.102 242.526 139.199 241.762 138.556C240.998 137.912 240.901 136.771 241.545 136.007L248.719 127.495L248.719 107.605L244.311 112.835C243.667 113.598 242.526 113.696 241.762 113.052C240.998 112.408 240.901 111.267 241.545 110.503L248.719 101.992L248.719 86.3554L244.311 91.5849C243.667 92.3487 242.526 92.4461 241.762 91.8023C240.998 91.1584 240.901 90.0173 241.545 89.2534L250.318 78.8438Z" fill="#E3F1DB"/>
<path fill-rule="evenodd" clip-rule="evenodd" d="M21.623 145.994L11.9161 136.566L3.14257 146.976C2.49876 147.74 2.59608 148.881 3.35996 149.525C4.12383 150.169 5.26499 150.071 5.9088 149.308L10.6335 143.702V157.64L3.14257 166.527C2.49876 167.291 2.59608 168.432 3.35996 169.076C4.12383 169.72 5.26499 169.623 5.9088 168.859L10.6335 163.253V177.191L3.14257 186.079C2.49876 186.843 2.59608 187.984 3.35996 188.628C4.12383 189.271 5.26499 189.174 5.9088 188.41L10.6335 182.804V196.742L3.14257 205.63C2.49876 206.394 2.59608 207.535 3.35996 208.179C4.12383 208.823 5.26499 208.725 5.9088 207.961L10.6335 202.356V243.389C9.2829 243.504 8.17179 243.63 7.36201 243.808C6.38638 244.023 5.76964 244.988 5.98448 245.964C6.19931 246.94 7.16437 247.556 8.14 247.341C9.15721 247.117 10.9243 246.987 13.6506 246.786C13.9331 246.765 14.2258 246.744 14.5291 246.721C17.6712 246.488 21.7446 246.162 26.6951 245.509C36.6012 244.202 49.9869 241.59 66.5485 235.807C72.4174 233.758 83.2022 228.823 93.1132 224.188C95.7401 222.959 98.3024 221.753 100.702 220.623L100.705 220.622L100.706 220.621L100.711 220.619L100.711 220.619L100.711 220.619L100.711 220.619C107.459 217.443 112.918 214.873 114.903 214.112C115.835 213.755 116.302 212.709 115.944 211.776C115.586 210.843 114.54 210.377 113.608 210.734C111.487 211.547 105.799 214.225 98.9656 217.442C96.607 218.552 94.112 219.726 91.5805 220.911C81.607 225.575 71.0118 230.417 65.3558 232.392C49.0555 238.084 35.9141 240.644 26.2219 241.922C21.3732 242.562 17.3797 242.882 14.2612 243.114C14.2579 243.114 14.2545 243.114 14.2512 243.114V202.532L19.1025 207.243C19.8191 207.939 20.9643 207.923 21.6603 207.206C22.3563 206.489 22.3396 205.344 21.623 204.648L14.2512 197.488V182.98L19.1025 187.692C19.8191 188.388 20.9643 188.371 21.6603 187.655C22.3563 186.938 22.3396 185.793 21.623 185.097L14.2512 177.937V163.429L19.1025 168.141C19.8191 168.837 20.9643 168.82 21.6603 168.103C22.3563 167.387 22.3396 166.242 21.623 165.546L14.2512 158.386V143.878L19.1025 148.589C19.8191 149.285 20.9643 149.269 21.6603 148.552C22.3563 147.835 22.3396 146.69 21.623 145.994ZM214.361 202.116C208.414 198.924 201.934 198.667 199.572 198.921C198.579 199.027 197.687 198.309 197.581 197.315C197.474 196.322 198.193 195.43 199.186 195.324C202.103 195.011 209.348 195.32 216.072 198.929C216.952 199.401 217.282 200.498 216.81 201.378C216.337 202.258 215.241 202.589 214.361 202.116ZM185.136 201.792C185.608 202.672 185.278 203.769 184.397 204.241C182.987 204.998 179.301 207.596 175.479 210.898C172.002 213.903 168.655 217.285 166.839 220.177L181.613 234.054C182.341 234.738 182.377 235.883 181.693 236.611C181.009 237.339 179.865 237.375 179.136 236.691L163.299 221.816C162.604 221.163 162.54 220.089 163.131 219.36C165.109 215.652 169.246 211.503 173.114 208.161C177.009 204.796 180.929 201.997 182.687 201.054C183.567 200.581 184.663 200.912 185.136 201.792ZM137.343 209.58C132.977 209.427 129.142 210.043 127.009 210.631C126.047 210.897 125.05 210.332 124.785 209.369C124.519 208.406 125.084 207.41 126.047 207.144C128.534 206.458 132.736 205.799 137.47 205.964C142.202 206.13 147.601 207.125 152.373 209.87C153.239 210.368 153.538 211.474 153.04 212.34C152.542 213.206 151.436 213.504 150.57 213.006C146.473 210.65 141.71 209.733 137.343 209.58ZM231.352 208.004C230.555 207.402 229.42 207.56 228.818 208.357C228.216 209.155 228.374 210.289 229.171 210.891C232.736 213.584 240.907 219.94 245.27 223.955C246.005 224.631 247.149 224.583 247.825 223.848C248.502 223.113 248.454 221.969 247.719 221.292C243.213 217.146 234.914 210.695 231.352 208.004ZM255.474 229.878C256.161 229.153 257.306 229.123 258.031 229.811C264.411 235.862 270.606 242.956 276.809 250.125L277.851 251.329L277.851 251.33C283.731 258.128 289.635 264.955 295.809 271.115C308.912 284.189 322.902 293.917 339.751 293.917H569.617L569.668 293.92C573.995 294.165 586.586 291.252 598.645 276.314C606.337 266.787 612.987 258.662 619.985 252.891C627.052 247.064 634.556 243.565 643.957 243.34C644.956 243.316 645.785 244.107 645.809 245.105C645.833 246.104 645.042 246.933 644.044 246.957C635.628 247.158 628.879 250.246 622.286 255.682C615.625 261.175 609.21 268.988 601.46 278.586C588.853 294.202 575.252 297.832 569.518 297.535H339.751C321.412 297.535 306.531 286.923 293.254 273.675C286.982 267.418 280.996 260.497 275.138 253.723L274.074 252.493C267.855 245.306 261.772 238.345 255.541 232.435C254.816 231.748 254.786 230.603 255.474 229.878Z" fill="#E3F1DB"/>
<path fill-rule="evenodd" clip-rule="evenodd" d="M686.108 222.584C686.789 221.853 686.748 220.708 686.017 220.027C685.286 219.346 684.142 219.387 683.461 220.118C674.183 230.077 667.968 239.056 665.472 243.347C662.982 243.004 660.899 243.097 659.488 243.378C658.508 243.573 657.872 244.525 658.066 245.505C658.261 246.484 659.213 247.121 660.193 246.926C663.196 246.329 671.858 246.794 679.972 254.536C681.603 256.093 683.266 257.732 684.946 259.389L684.947 259.389L684.947 259.389C688.669 263.058 692.472 266.808 696.195 269.917C701.557 274.393 707.244 277.988 712.895 277.988C713.894 277.988 714.703 277.178 714.703 276.179C714.703 275.18 713.894 274.37 712.895 274.37C708.647 274.37 703.842 271.589 698.514 267.14C694.907 264.129 691.288 260.56 687.624 256.947L687.624 256.947C685.917 255.263 684.199 253.57 682.469 251.919C677.996 247.65 673.305 245.312 669.214 244.141C671.897 239.776 677.692 231.618 686.108 222.584Z" fill="#E3F1DB"/>
<path fill-rule="evenodd" clip-rule="evenodd" d="M740.641 101.678L730.934 92.25L722.16 102.66C721.516 103.424 721.614 104.565 722.378 105.209C723.141 105.852 724.283 105.755 724.926 104.991L729.653 99.3829V113.321L722.16 122.211C721.516 122.975 721.614 124.116 722.378 124.76C723.141 125.404 724.283 125.306 724.926 124.542L729.653 118.934V130.32L722.16 139.211C721.516 139.975 721.614 141.116 722.378 141.76C723.141 142.403 724.283 142.306 724.926 141.542L729.653 135.934V147.32L722.16 156.21C721.516 156.974 721.614 158.115 722.378 158.759C723.141 159.403 724.283 159.306 724.926 158.542L729.653 152.934V161.772L722.16 170.663C721.516 171.427 721.614 172.568 722.378 173.212C723.141 173.855 724.283 173.758 724.926 172.994L729.653 167.386V207.398C716.039 204.2 702.991 207.712 696.661 210.801C695.763 211.239 695.39 212.322 695.828 213.22C696.266 214.118 697.349 214.49 698.247 214.052C706.642 209.956 727.673 205.189 744.639 218.524C745.424 219.141 746.562 219.005 747.179 218.22C747.796 217.434 747.66 216.297 746.874 215.68C742.495 212.238 737.881 209.905 733.271 208.407V167.566L738.12 172.276C738.837 172.972 739.982 172.955 740.678 172.239C741.374 171.522 741.357 170.377 740.641 169.681L733.271 162.523V153.114L738.12 157.824C738.837 158.52 739.982 158.503 740.678 157.786C741.374 157.07 741.357 155.925 740.641 155.229L733.271 148.071V136.114L738.12 140.824C738.837 141.52 739.982 141.503 740.678 140.787C741.374 140.07 741.357 138.925 740.641 138.229L733.271 131.071V119.114L738.12 123.824C738.837 124.52 739.982 124.504 740.678 123.787C741.374 123.07 741.357 121.925 740.641 121.229L733.271 114.071V99.5631L738.12 104.273C738.837 104.969 739.982 104.952 740.678 104.236C741.374 103.519 741.357 102.374 740.641 101.678Z" fill="#E3F1DB"/>
<path fill-rule="evenodd" clip-rule="evenodd" d="M103.278 29.965C104.989 31.4632 106.906 32.009 108.858 31.3458C110.599 30.7542 112.025 29.2997 113.209 27.7123C115.1 25.1764 116.925 21.5023 118.718 17.8943L118.718 17.8942L118.718 17.8936C119.179 16.9673 119.637 16.0453 120.093 15.148C121.239 12.8949 122.394 10.751 123.596 8.91479C124.807 7.06423 125.999 5.63062 127.186 4.71883C128.343 3.8301 129.389 3.51048 130.428 3.64967C131.515 3.79539 132.935 4.48873 134.709 6.34114C138.347 10.1415 142.556 17.3925 146.911 26.5369C151.237 35.6195 155.615 46.3689 159.636 56.997C161.112 60.8988 162.539 64.7806 163.895 68.5531C163.359 68.0848 162.816 67.7062 162.265 67.4226C160.926 66.7343 159.553 66.6239 158.261 67.112C157.054 67.5683 156.118 68.4726 155.393 69.4189C154.658 70.3793 154.032 71.5264 153.491 72.6783C152.946 73.8374 152.457 75.0667 152.014 76.212C151.907 76.4876 151.804 76.7566 151.703 77.0187C151.377 77.8689 151.079 78.6461 150.786 79.3369C149.881 81.4756 149.168 82.0107 148.916 82.1084L148.913 82.1094C148.868 82.1273 148.56 82.2517 147.7 81.4931C146.845 80.7392 145.872 79.4621 144.767 77.7536C143.862 76.3536 142.934 74.7706 141.957 73.1044C141.757 72.7626 141.554 72.4172 141.349 72.0692C140.105 69.9548 138.714 68.198 137.116 67.1274C135.43 65.997 133.5 65.6371 131.51 66.4138C129.658 67.1369 127.992 68.7558 126.441 71.0031C124.87 73.2804 123.29 76.3903 121.68 80.3861C120.144 84.1986 118.551 86.8357 117.04 88.5567C115.527 90.279 114.176 90.997 113.11 91.1876C111.177 91.533 108.996 90.1924 107.542 86.7366C107.099 85.6847 106.614 84.2333 106.052 82.551L106.052 82.5507C105.9 82.094 105.741 81.6203 105.577 81.1329C104.828 78.9152 103.964 76.4725 102.978 74.4304C102.484 73.4077 101.935 72.4332 101.322 71.616C100.721 70.816 99.9696 70.0455 99.03 69.5911C98.0109 69.0983 96.8618 69.0267 95.7237 69.5173C94.6731 69.9701 93.7787 70.8375 92.9907 71.9252C91.9762 73.3253 90.9637 75.0346 90.0067 76.6501C89.6072 77.3244 89.2174 77.9824 88.8412 78.5947C87.4583 80.8458 86.2838 82.4374 85.2307 83.1212C84.7741 83.4176 84.4886 83.4433 84.2849 83.4079C84.0483 83.3666 83.585 83.182 82.9078 82.4282C81.5402 80.906 79.8626 77.6993 77.9007 71.7999C80.5299 66.9043 82.9132 61.7883 84.6973 56.7551C85.6248 54.1386 86.4884 51.5979 87.3076 49.1824L87.437 48.8008C88.2098 46.5218 88.9424 44.3615 89.6579 42.341C91.177 38.0517 92.5795 34.5115 94.0452 31.934C95.55 29.2877 96.8907 28.0766 98.0856 27.7598C99.1561 27.476 100.764 27.7625 103.278 29.965ZM75.5495 76.0138C69.8542 85.8601 63.5418 94.3751 59.7752 98.8439C59.7564 98.8662 59.7372 98.8879 59.7176 98.9091C68.5822 125.401 79.1816 150.946 103.914 191.036L100.835 192.935C84.1441 165.88 73.823 145.344 66.1473 126.725C63.7906 126.693 61.5963 125.546 59.8563 124.315C57.79 122.854 55.9913 121.003 54.8171 119.795L54.7537 119.73C53.0587 117.986 51.8502 116.843 50.9987 116.139C51.0004 116.312 51.0032 116.497 51.0062 116.694L51.0111 117.024C51.0296 118.35 51.0361 120.074 50.6991 121.792C50.4887 122.865 50.1717 123.89 49.603 124.626C49.2961 125.023 48.8538 125.416 48.2445 125.614C47.6173 125.817 47.0113 125.75 46.5094 125.565C45.6213 125.236 44.9345 124.498 44.4397 123.86C43.8971 123.161 43.3572 122.276 42.8274 121.291C40.7247 117.382 38.3046 110.98 36.1394 105.064C35.6468 103.718 35.2361 102.551 34.8798 101.539C34.4233 100.243 34.0562 99.2001 33.7204 98.358C33.6689 98.2287 33.6199 98.1091 33.5735 97.9986C33.479 98.1468 33.3765 98.3128 33.2653 98.4984C32.6788 99.4774 31.9736 100.785 31.0599 102.48C30.6046 103.325 30.0975 104.265 29.5275 105.309C27.8561 108.37 26.6504 110.464 25.7436 111.712C25.3136 112.304 24.8111 112.909 24.2192 113.279C23.8974 113.481 23.4358 113.686 22.8694 113.682C22.2655 113.678 21.7667 113.438 21.4046 113.134C20.8082 112.632 20.5147 111.893 20.3562 111.459C20.1667 110.94 19.9916 110.306 19.8187 109.674L19.7809 109.536C19.5138 108.56 19.211 107.453 18.7871 106.269C17.9293 107.166 16.7928 108.677 15.3597 110.696C14.8105 111.47 14.2264 112.306 13.6105 113.188C10.7275 117.314 7.14484 122.441 3.1572 126.9C2.49126 127.645 1.34774 127.708 0.603075 127.042C-0.000497566 126.503 -0.156782 125.649 0.160267 124.949C3.14141 107.315 8.62869 75.1386 15.5671 53.6366C17.3194 48.2062 19.1845 43.3908 21.1547 39.6362C23.08 35.967 25.2709 32.9798 27.8292 31.6454C29.1812 30.9402 30.6644 30.6831 32.1949 31.0677C33.6848 31.4421 35.0288 32.3763 36.2445 33.6948C38.6408 36.2937 40.9063 40.7893 43.1153 47.3235C46.7597 58.1039 49.8056 67.8063 52.6809 76.9653C54.6125 83.1182 56.4671 89.0258 58.3745 94.8505C64.7222 86.9475 75.8955 70.7578 81.2875 55.5464C82.2058 52.956 83.0621 50.4368 83.8815 48.0205L84.0138 47.6306C84.784 45.3591 85.5239 43.1774 86.2478 41.1333C87.77 36.8354 89.2619 33.0271 90.9004 30.1457C92.4998 27.333 94.4731 24.9749 97.1584 24.2629C99.9682 23.5179 102.807 24.7431 105.662 27.2436C106.636 28.097 107.236 28.0761 107.694 27.9205C108.362 27.6933 109.238 26.9854 110.309 25.5495C111.985 23.3022 113.608 20.0387 115.382 16.4736L115.382 16.4735C115.865 15.5024 116.359 14.509 116.869 13.5076C118.03 11.2258 119.256 8.93969 120.568 6.93382C121.872 4.94229 123.327 3.12169 124.982 1.85003C126.667 0.555316 128.657 -0.237753 130.909 0.0640364C133.112 0.359292 135.236 1.6606 137.322 3.83937C141.402 8.10135 145.821 15.8333 150.177 24.9814C154.564 34.1913 158.982 45.0441 163.02 55.7169C167.348 67.1589 171.251 78.4253 174.219 87.2881C174.309 87.517 174.399 87.7481 174.489 87.9815C174.545 88.127 174.581 88.2753 174.599 88.4234C176.812 95.0572 178.464 100.221 179.324 102.91L179.499 103.458C179.803 104.409 179.279 105.427 178.327 105.732C177.376 106.036 176.358 105.512 176.053 104.56L175.879 104.017L175.879 104.016C174.975 101.19 173.2 95.6371 170.818 88.523C167.69 80.5375 165.147 75.7105 163.098 73.0243C162.041 71.6383 161.208 70.947 160.611 70.64C160.082 70.3681 159.774 70.4077 159.54 70.4961C159.222 70.6164 158.788 70.9358 158.266 71.6181C157.754 72.2864 157.256 73.1729 156.765 74.2171C156.278 75.2541 155.826 76.3834 155.388 77.5169C155.341 77.6378 155.295 77.7591 155.248 77.8806L155.097 78.2735C154.766 79.1366 154.437 79.9939 154.118 80.7468C153.157 83.0177 151.948 84.8149 150.219 85.4829C148.271 86.2356 146.533 85.2874 145.307 84.2062C144.057 83.1033 142.861 81.4677 141.729 79.7182C140.777 78.2451 139.8 76.5785 138.823 74.912L138.811 74.8919C138.618 74.562 138.424 74.2321 138.231 73.9037C137.1 71.9804 136.041 70.7621 135.102 70.1326C134.252 69.563 133.558 69.498 132.826 69.7839C131.956 70.1234 130.801 71.0547 129.419 73.0576C128.058 75.0305 126.594 77.8709 125.036 81.7378C123.404 85.788 121.624 88.8198 119.758 90.9441C117.893 93.0671 115.862 94.3708 113.746 94.7489C109.312 95.5411 105.919 92.2071 104.207 88.1397C103.706 86.9477 103.16 85.313 102.591 83.6094L102.591 83.6078L102.59 83.6062L102.587 83.5951C102.442 83.1626 102.296 82.7258 102.149 82.2907C101.4 80.0718 100.598 77.8215 99.7198 76.0032C99.2817 75.0958 98.8493 74.3483 98.4286 73.7877C97.9948 73.2099 97.6595 72.9468 97.4551 72.848C97.3302 72.7877 97.2787 72.7865 97.1557 72.8395C96.9451 72.9302 96.5179 73.2229 95.9202 74.0478C95.0072 75.3079 94.1392 76.7739 93.2252 78.3178C92.8041 79.029 92.3732 79.7567 91.9237 80.4884C90.6038 82.6368 89.0441 84.9585 87.2008 86.1553C86.2093 86.7992 85.006 87.2057 83.664 86.9719C82.3548 86.7438 81.2154 85.9577 80.2166 84.8459C78.6667 83.1208 77.1376 80.2535 75.5495 76.0138ZM10.6009 111.177C8.85795 113.671 6.9159 116.449 4.80715 119.202C7.94059 100.934 12.9232 73.6104 19.01 54.7476C20.7331 49.4075 22.5246 44.8113 24.3581 41.3171C26.2365 37.7374 27.9964 35.6385 29.5022 34.853C30.1822 34.4984 30.7594 34.4372 31.3133 34.5763C31.9077 34.7257 32.6722 35.1573 33.5848 36.1471C35.4452 38.1648 37.5157 42.0559 39.6881 48.4821C43.3033 59.1761 46.3338 68.8311 49.2021 77.9691C54.0917 93.5472 58.5097 107.623 64.5488 122.781C63.7326 122.49 62.8601 122.009 61.9453 121.362C60.1559 120.096 58.551 118.446 57.3478 117.208C54.9875 114.78 53.2924 113.215 52.0697 112.434C51.51 112.076 50.6986 111.644 49.7935 111.714C49.2657 111.755 48.7666 111.962 48.3652 112.331C47.9937 112.673 47.7897 113.075 47.6722 113.394C47.4518 113.992 47.4043 114.673 47.3875 115.207C47.3724 115.686 47.3809 116.234 47.3892 116.773V116.773C47.3908 116.874 47.3924 116.975 47.3938 117.075C47.4123 118.402 47.4059 119.786 47.149 121.096C47.1304 121.191 47.1116 121.28 47.0927 121.365C46.7723 120.912 46.4108 120.316 46.0134 119.577C44.0578 115.942 41.7268 109.805 39.5368 103.82C39.0903 102.6 38.6917 101.47 38.3338 100.455L38.3336 100.455L38.3335 100.454C37.8467 99.0738 37.4352 97.9069 37.0809 97.0183C36.7714 96.2417 36.4442 95.5132 36.0689 94.9541C35.7392 94.4631 35.0457 93.608 33.8679 93.5506C32.7322 93.4952 31.945 94.2304 31.5452 94.6684C31.0809 95.1772 30.6242 95.8676 30.162 96.6391C29.5326 97.6896 28.7639 99.1153 27.8188 100.868C27.3709 101.699 26.8834 102.603 26.3524 103.575C25.0147 106.025 24.0499 107.714 23.336 108.821L23.308 108.719L23.2605 108.545C22.9136 107.276 22.449 105.576 21.6927 103.75C21.5181 103.328 21.2254 102.831 20.7155 102.465C20.1583 102.064 19.5195 101.949 18.9289 102.029C17.9476 102.163 17.1375 102.834 16.6009 103.341C15.4086 104.469 13.9701 106.404 12.4095 108.603C11.8337 109.414 11.2303 110.277 10.601 111.177L10.601 111.177L10.6009 111.177ZM34.3354 96.9934C34.3353 96.9946 34.3255 97.0035 34.3062 97.0168C34.3259 96.9989 34.3355 96.9923 34.3354 96.9934ZM33.0021 96.8871C33.0004 96.8852 32.9989 96.8836 32.9977 96.8821C32.9943 96.8781 32.9926 96.8756 32.9927 96.8751C32.9927 96.8741 33.0005 96.8818 33.0158 96.9015C33.0102 96.8959 33.0056 96.8911 33.0021 96.8871ZM18.3451 105.123C18.3451 105.123 18.3461 105.125 18.3479 105.129L18.346 105.125L18.3451 105.123Z" fill="#E3F1DB"/>
</svg>
